<svg width="500" height="500" viewBox="0 0 500 500" fill="none" xmlns="http://www.w3.org/2000/svg">
<path d="M250 404.15C367.07 404.15 461.973 396.574 461.973 387.229C461.973 377.884 367.07 370.308 250 370.308C132.931 370.308 38.0273 377.884 38.0273 387.229C38.0273 396.574 132.931 404.15 250 404.15Z" fill="#F0E5E6"/>
<path d="M102.862 378.938C102.765 379.242 387.777 379.686 397.141 379.7C397.296 379.7 397.446 379.655 397.576 379.571C430.132 358.238 445.982 318.597 443.235 282.012C433.313 147.746 390.304 235.521 336.66 107.6C287.916 8.3231 70.8314 106.487 109.277 221.898C109.318 222.02 109.328 222.151 109.307 222.278C105.962 242.174 93.0294 254.21 78.8254 276.035C78.8094 276.06 78.7944 276.085 78.7814 276.112C60.6524 311.544 68.2754 358.807 102.862 378.938ZM356.124 157.507C371.536 188.673 417.337 189.485 429.832 221.405C430.189 222.318 428.89 222.927 428.41 222.073C411.088 191.257 383.023 192.382 362.356 173.624C335.521 149.267 337.699 113.192 320.754 93.1331C320.152 92.4211 321.221 91.2881 321.825 91.9981C345.326 119.567 344.524 134.681 356.124 157.507ZM79.1114 278.993C90.7664 260.016 103.573 246.712 108.839 229.986C109.118 229.1 110.429 229.345 110.374 230.272C108.898 255.048 67.5304 273.654 73.4414 330.776C73.5464 331.787 72.0444 331.989 71.8844 330.986C69.1394 313.769 72.4974 294.817 79.0534 279.108C79.0694 279.068 79.0894 279.029 79.1114 278.993Z" fill="#DDE9E9"/>
<path d="M171.512 89.4412C141.792 100.892 112.883 131.946 107.125 160.965C116.642 128.786 145.661 104.261 171.512 89.4412Z" fill="#DDE9E9"/>
<path d="M159.531 358.596L155.215 381.447L154.778 383.796C154.3 386.386 155.488 389 157.771 390.321L175.5 400.583C177.252 401.597 179.59 400.233 179.316 398.23C179.304 398.223 179.298 398.203 179.293 398.184C179.088 396.945 174.24 391.405 171.824 388.294C170.995 387.221 170.455 386.447 170.5 386.227C170.522 386.075 170.677 385.522 170.906 384.7C171.965 380.964 174.686 371.767 174.686 371.767L159.531 358.596Z" fill="#924B33"/>
<path d="M155.215 381.447L154.778 383.796C154.3 386.386 155.488 389 157.771 390.321L175.5 400.583C177.252 401.597 179.59 400.233 179.316 398.23C179.304 398.223 179.298 398.203 179.293 398.184C179.088 396.945 174.24 391.405 171.824 388.294C171.824 388.294 171.768 387.224 171.795 386.466C171.818 385.886 171.734 385.064 170.907 384.7C170.658 384.589 170.337 384.518 169.928 384.512C168.199 384.483 165.405 387.346 165.405 387.346L155.215 381.447Z" fill="#1E1F35"/>
<path d="M203.199 365.331L209.355 387.757L209.994 390.06C210.702 392.596 212.917 394.424 215.548 394.609L235.983 396.045C238.002 396.187 239.504 393.934 238.379 392.255C238.365 392.254 238.352 392.239 238.338 392.224C237.61 391.201 230.822 388.352 227.285 386.617C226.07 386.017 225.244 385.559 225.188 385.341C225.141 385.195 225.038 384.63 224.883 383.79C224.194 379.969 222.6 370.511 222.6 370.511L203.199 365.331Z" fill="#924B33"/>
<path d="M209.354 387.757L209.993 390.06C210.701 392.596 212.916 394.424 215.547 394.609L235.982 396.045C238.001 396.187 239.503 393.934 238.378 392.255C238.364 392.254 238.351 392.239 238.337 392.224C237.609 391.201 230.821 388.352 227.284 386.617C227.284 386.617 226.764 385.68 226.455 384.987C226.221 384.456 225.784 383.754 224.882 383.79C224.61 383.799 224.29 383.877 223.92 384.051C222.354 384.784 221.101 388.583 221.101 388.583L209.354 387.757Z" fill="#1E1F35"/>
<path d="M202.179 127.504C202.179 132.217 198.357 136.038 193.644 136.038C188.93 136.038 185.109 132.217 185.109 127.504C185.109 122.792 188.931 118.972 193.644 118.972C198.358 118.972 202.179 122.793 202.179 127.504Z" fill="#1E1F35"/>
<path d="M213.815 138.091C211.633 139.622 208.613 139.228 208.613 139.228L209.078 144.004C209.078 144.004 211.941 148.49 206.2 149.069C198.494 149.846 196.119 144.004 196.119 144.004C196.119 144.004 197.534 138.514 196.621 134.231C195.534 129.129 194.372 124.947 194.372 124.947C194.372 124.947 193.192 122.363 193.609 116.499C194.142 109.115 207.051 104.5 207.051 104.5L215.729 107.898C215.729 107.898 217.215 112.067 217.098 115.873C216.917 121.712 219.376 134.19 213.815 138.091Z" fill="#924B33"/>
<path d="M192.549 107.342C193.99 97.055 214.137 102.347 217.37 107.21C220.481 111.888 217.09 116.661 217.09 116.661C217.09 116.661 216.334 109.636 211.97 109.36C209.855 118.082 200.036 116.611 199.294 120.983C198.552 125.355 197.026 124.41 197.006 125.733C196.968 127.849 194.348 128.549 193.718 126.709C193.085 124.868 183.362 113.239 192.549 107.342Z" fill="#1E1F35"/>
<path d="M197.006 125.733C199.002 125.39 196.468 128.25 194.962 128.485C193.885 128.652 192.455 127.877 192.041 126.331C191.585 124.629 192.78 123.529 193.857 123.358C195.733 123.062 195.639 125.963 197.006 125.733Z" fill="#924B33"/>
<path d="M201.572 136.156C203.638 138.187 207.655 138.548 207.655 138.548" stroke="#7C2E20" stroke-width="0.5775" stroke-miterlimit="10" stroke-linecap="round"/>
<path d="M206.236 129.781C207.985 132.411 211.667 132.761 213.131 130.596C213.334 130.295 213.575 129.998 213.452 129.626C213.278 129.104 212.844 129.417 212.539 129.432C210.482 129.531 208.411 129.387 206.236 129.781Z" fill="#FCFAFA"/>
<path d="M204.166 119.929C205.101 119.899 206.109 119.888 207.115 119.828C207.725 119.791 208.41 119.734 208.361 118.867C208.311 117.977 207.579 118.064 206.997 118.073C205.99 118.087 204.984 118.196 203.976 118.221C203.311 118.238 202.684 118.334 202.72 119.151C202.759 120.029 203.502 119.888 204.166 119.929Z" fill="#2E2127"/>
<path d="M213.648 119.751C214.402 119.731 215.16 119.744 215.91 119.677C216.454 119.629 216.9 119.351 216.832 118.717C216.776 118.198 216.401 117.919 215.885 117.926C215.131 117.937 214.376 117.972 213.625 118.038C213.066 118.087 212.645 118.357 212.689 118.993C212.728 119.561 213.158 119.712 213.648 119.751Z" fill="#2E2127"/>
<path d="M211.729 124.471C211.154 124.934 211.243 125.407 211.334 125.83C211.553 126.84 211.486 127.568 210.15 127.408C209.906 127.379 209.609 127.529 209.586 127.811C209.552 128.247 209.949 128.212 210.227 128.266C211.436 128.498 212.287 127.722 212.172 126.501C212.111 125.851 212.089 125.193 211.729 124.471Z" fill="#2E2127"/>
<path d="M204.811 123.284C204.859 123.846 205.172 124.254 205.735 124.258C206.289 124.262 206.648 123.916 206.648 123.293C206.648 122.74 206.343 122.441 205.841 122.401C205.256 122.356 204.915 122.691 204.811 123.284Z" fill="#2E2127"/>
<path d="M213.323 123.199C213.287 123.842 213.623 124.133 214.207 124.167C214.745 124.199 215.064 123.878 215.124 123.391C215.195 122.819 214.884 122.417 214.305 122.355C213.715 122.291 213.389 122.63 213.323 123.199Z" fill="#2E2127"/>
<path opacity="0.5" d="M215.892 126.648C214.449 126.648 213.324 126.476 212.931 125.828C212.634 125.339 212.51 124.842 212.399 124.402C212.224 123.708 212.026 122.922 211.083 122.903C210.126 122.921 209.928 123.708 209.754 124.402C209.643 124.842 209.519 125.34 209.222 125.828C208.829 126.477 207.643 126.896 206.2 126.896C205.243 126.896 204.278 126.714 203.411 126.368C201.144 125.464 200.68 121.48 200.68 120.462C200.68 119.032 201.274 118.372 202.8 118.108C203.362 118.011 204.888 117.959 207.211 117.959C208.971 117.959 210.645 117.99 211.071 117.996C211.508 117.99 213.184 117.959 214.942 117.959C217.265 117.959 217.866 117.917 218.429 118.014C219.954 118.277 219.091 120.485 218.878 121.9C218.108 127.021 215.892 126.648 215.892 126.648Z" fill="white"/>
<path opacity="0.5" d="M218.359 119.246C218.514 120.426 218.023 122.937 217.183 124.33C215.802 126.623 214.325 126.216 213.613 125.47C212.901 124.724 212.782 122.991 212.432 121.884C211.914 120.241 210.124 120.975 209.668 122.32C208.748 125.033 205.511 126.562 203.626 124.729C202.735 123.864 202.119 122.748 201.717 121.52C201.426 120.636 201.509 119.38 201.517 118.558C200.932 118.94 200.68 119.539 200.68 120.462C200.68 121.48 201.144 125.464 203.411 126.368C204.278 126.715 205.243 126.896 206.2 126.896C207.643 126.896 208.829 126.476 209.222 125.828C209.518 125.339 209.643 124.842 209.754 124.402C209.928 123.708 210.126 122.922 211.083 122.903C212.027 122.921 212.224 123.708 212.399 124.402C212.509 124.842 212.633 125.34 212.931 125.828C213.323 126.477 214.651 126.98 216.061 126.51C218.8 125.597 219.013 121.492 219.013 120.475C219.013 119.867 218.598 119.605 218.359 119.246Z" fill="white"/>
<path d="M214.941 118.343C217.855 118.343 218.478 118.827 218.478 119.877C218.478 121.299 218.053 124.485 217.365 125.257C216.104 126.672 213.923 126.614 213.212 125.61C212.947 125.172 212.835 124.726 212.727 124.296C212.551 123.598 212.286 122.541 211.063 122.517C209.865 122.541 209.6 123.597 209.424 124.296C209.315 124.726 209.203 125.173 208.939 125.61C208.677 126.044 207.707 126.51 206.198 126.51C205.279 126.51 204.355 126.335 203.524 126.004C201.652 125.256 201.02 121.883 201.02 120.46C201.02 119.411 201.32 118.752 202.849 118.486C203.229 118.42 204.296 118.341 207.209 118.341C208.959 118.341 210.602 118.371 211.087 118.379C211.549 118.373 213.192 118.343 214.941 118.343ZM214.941 117.573C213.179 117.573 211.501 117.603 211.075 117.611C210.649 117.603 208.972 117.573 207.209 117.573C205.374 117.573 203.447 117.605 202.746 117.726C201.264 117.982 200.336 118.662 200.336 120.461C200.336 121.77 200.892 125.772 203.296 126.73C204.24 127.107 205.258 127.281 206.198 127.281C207.714 127.281 209.028 126.829 209.503 126.045C210.332 124.675 209.933 123.31 211.074 123.287C212.215 123.31 211.817 124.675 212.646 126.045C213.121 126.829 216.33 127.88 218.027 125.732C219.175 124.279 219.384 121.186 219.384 119.877C219.384 118.079 218.898 117.824 217.416 117.568C216.716 117.447 216.777 117.573 214.941 117.573Z" fill="#111D3F"/>
<path d="M234.58 256.822C233.122 246.646 231.018 236.592 228.486 226.63C227.612 223.192 230.292 221.31 233.091 221.379C231.575 214.963 230.17 211.598 230.17 211.598L198.401 212.413C196.242 220.229 193.351 227.914 189.853 235.123C186.194 242.663 181.339 251.314 173.804 255.547L181.82 297.142C181.82 297.142 175.125 303.64 168.252 324.864C167.247 327.968 166.391 331.119 165.661 334.299L156.869 372.617C156.869 372.617 161.958 382.44 172.717 377.889L201.715 327.032L201.681 327.347L202.922 375.314C213.266 380.785 225.327 376.647 225.327 376.647L232.33 298.796C235.26 284.253 236.495 271.358 236.736 260.22C235.648 259.564 234.813 258.448 234.58 256.822Z" fill="#1E1F35"/>
<path d="M201.315 205.324C203.22 205.324 205.072 205.249 206.723 205.182L206.914 205.174C207.34 205.157 207.849 205.142 208.419 205.127C212.847 205.004 220.257 204.797 222.196 202.426C222.347 202.241 222.32 201.969 222.135 201.819C221.951 201.668 221.68 201.695 221.528 201.88C219.839 203.946 212.395 204.153 208.395 204.264C207.822 204.28 207.309 204.294 206.879 204.312L206.688 204.32C201.771 204.521 195.038 204.793 190.665 202.907C190.445 202.812 190.192 202.913 190.098 203.132C190.004 203.351 190.104 203.605 190.324 203.699C193.373 205.014 197.452 205.324 201.315 205.324Z" fill="#1E1F35"/>
<path d="M188.26 223.8C189.658 223.8 191.003 223.424 192.256 222.672C196.521 220.111 198.905 213.751 198.982 209.067C198.986 208.828 198.796 208.632 198.557 208.628C198.277 208.619 198.122 208.814 198.118 209.053C198.045 213.505 195.809 219.531 191.81 221.932C189.546 223.291 187.039 223.286 184.357 221.913C184.146 221.804 183.885 221.888 183.776 222.101C183.668 222.313 183.752 222.573 183.964 222.682C185.423 223.427 186.868 223.8 188.26 223.8Z" fill="#1E1F35"/>
<path d="M228.488 219.417C228.891 219.417 229.306 219.366 229.732 219.262C229.964 219.206 230.106 218.973 230.05 218.741C229.994 218.509 229.76 218.367 229.529 218.423C228.417 218.691 227.448 218.55 226.566 217.994C223.783 216.236 222.616 210.691 221.92 207.377C221.845 207.02 221.774 206.684 221.707 206.377C221.656 206.144 221.426 205.995 221.193 206.048C220.96 206.099 220.813 206.329 220.864 206.562L221.076 207.555C221.848 211.225 223.015 216.771 226.106 218.725C226.836 219.185 227.634 219.417 228.488 219.417Z" fill="#1E1F35"/>
<path d="M217.926 142.454L220.185 143.376C220.185 143.376 226.695 154.938 230.796 166.744C233.024 175.065 228.757 186.453 224.125 196.9C221.167 203.568 195.49 203.199 190.665 199.738C189.038 198.571 178.901 178.985 178.335 177.29C177.134 173.689 186.27 170.413 187.911 163.218C188.918 158.806 191.403 151.063 185.314 145.618L188.363 144.391C194.275 144.914 201.288 144.995 209.077 144.004C212.229 143.604 215.183 143.068 217.926 142.454Z" fill="#7ABE4C"/>
<path d="M194.381 280.571L198.457 201.073L204.707 164.668C199.137 147.506 194.507 142.113 194.507 142.113C170.558 148.297 174.082 161.215 174.082 161.215L179.443 202.762L168.832 275.909C168.832 275.909 178.961 280.983 194.381 280.571Z" fill="#F5F7F7"/>
<path d="M238.313 275.65C232.083 278.242 218.786 278.757 218.786 278.757L214.527 201.486L217.071 163.414L212.154 140.726C212.154 140.726 216.558 141.555 220.186 143.378C220.186 143.378 232.376 160.237 231.961 171.744L229.632 198.077C229.631 198.075 237.086 238.549 238.313 275.65Z" fill="#F5F7F7"/>
<path d="M194.367 249.507C194.704 249.507 194.728 249.399 194.776 249.187C194.797 249.091 194.832 248.769 194.375 248.642L194.149 248.641C193.703 248.578 192.665 248.399 191.997 248.284C191.54 248.206 191.134 248.136 190.905 248.099C190.132 247.975 189.402 247.889 188.68 247.804C187.886 247.71 187.136 247.622 186.337 247.487C185.899 247.413 185.455 247.342 185.006 247.269C182.258 246.828 179.417 246.372 177.119 245.137C176.907 245.024 176.647 245.103 176.534 245.313C176.421 245.523 176.5 245.785 176.71 245.898C179.137 247.201 182.051 247.67 184.869 248.122C185.315 248.194 185.758 248.265 186.193 248.339C187.014 248.478 187.81 248.571 188.579 248.662C189.29 248.745 190.008 248.83 190.769 248.952C190.996 248.988 191.398 249.057 191.852 249.135C193.304 249.385 194.011 249.507 194.367 249.507Z" fill="#C1D8DD"/>
<path d="M189.274 266.235C190.344 266.235 191.182 266.064 191.67 265.628C193.251 264.215 193.474 256.543 193.403 255.005C193.392 254.767 193.209 254.577 192.952 254.594C192.714 254.605 192.53 254.807 192.541 255.045C192.652 257.439 192.197 263.999 191.096 264.984C190.073 265.898 185.64 264.99 183.258 264.501C182.625 264.372 182.077 264.259 181.672 264.192C178.262 263.628 175.04 262.758 174.556 260.24C174.165 258.208 174.608 255.869 175.037 253.607C175.315 252.139 175.578 250.752 175.625 249.449C175.634 249.211 175.447 249.011 175.209 249.002C174.992 248.991 174.771 249.179 174.762 249.418C174.717 250.656 174.46 252.012 174.188 253.447C173.745 255.789 173.286 258.21 173.707 260.403C174.372 263.86 179.028 264.63 181.53 265.044C181.926 265.11 182.463 265.22 183.083 265.347C185.402 265.823 187.615 266.235 189.274 266.235Z" fill="#C1D8DD"/>
<path d="M223.347 245.769C226.729 245.769 232.516 244.395 235.4 241.599C235.571 241.433 235.575 241.16 235.409 240.989C235.243 240.818 234.97 240.814 234.799 240.98C232.008 243.686 225.907 245.079 222.751 244.889C222.517 244.876 222.308 245.056 222.294 245.294C222.28 245.532 222.46 245.737 222.699 245.751C222.902 245.763 223.119 245.769 223.347 245.769Z" fill="#C1D8DD"/>
<path d="M229.95 262.738C232.858 262.738 236.502 261.78 238.036 260.632C238.227 260.489 238.266 260.218 238.123 260.027C237.981 259.837 237.711 259.797 237.518 259.94C235.667 261.325 230.303 262.417 227.749 261.598C225.776 260.965 225.237 257.565 224.761 254.564C224.482 252.806 224.219 251.145 223.689 250.025C223.587 249.81 223.328 249.716 223.114 249.82C222.899 249.922 222.806 250.179 222.909 250.395C223.386 251.402 223.64 253.004 223.908 254.699C224.422 257.945 225.005 261.624 227.484 262.419C228.171 262.641 229.023 262.738 229.95 262.738Z" fill="#C1D8DD"/>
<path d="M215.259 204.377L215.453 204.332C216.355 203.886 222.323 181.193 222.192 171.904C222.164 169.986 220.795 169.014 219.47 168.074C218.91 167.676 218.336 167.269 217.838 166.782C219.598 166.566 221.663 166.167 222.191 164.631C222.427 163.947 221.321 161.047 218.09 153.222C216.763 150.007 215.39 146.683 215.338 146.159C215.315 145.922 215.095 145.753 214.866 145.772C214.629 145.796 214.455 146.007 214.479 146.244C214.541 146.864 215.537 149.3 217.292 153.551C218.945 157.555 221.443 163.604 221.366 164.385C220.956 165.567 218.716 165.817 217.081 166L216.914 166.019C216.76 166.037 216.627 166.136 216.565 166.279C216.504 166.422 216.525 166.587 216.619 166.71C217.287 167.585 218.142 168.192 218.969 168.779C220.223 169.669 221.306 170.437 221.327 171.918C221.45 180.578 216.732 198.088 215.29 202.632C215.14 202.672 215.017 202.792 214.981 202.954C214.786 203.821 214.727 204.082 214.985 204.285C215.065 204.345 215.162 204.377 215.259 204.377Z" fill="#C1D8DD"/>
<path d="M219.045 143.248C219.045 143.248 228.95 145.306 237.176 163.55C237.176 163.55 252.069 189.448 247.471 210.207C247.471 210.207 231.797 220.176 206.799 223.018V203.48L225.924 195.582C225.924 195.582 227.568 163.034 219.045 143.248Z" fill="white"/>
<path d="M224.762 198.534C224.762 198.534 222.255 191.436 230.032 185.12L230.125 188.538C230.125 188.538 235.219 201.887 228.06 205.904L224.762 198.534Z" fill="#924B33"/>
<path d="M233.971 202.791C233.971 202.791 240.365 211.273 239.001 218.701C239.001 218.701 206.307 223.792 191.027 218.856C191.027 218.856 171.338 187.683 169.84 161.769C169.84 161.769 170.903 148.39 186.982 143.776C186.982 143.776 203.281 160.821 204.828 199.281L233.971 202.791Z" fill="#F5F7F7"/>
<path d="M191.744 202.74L193.44 201.104L200.178 194.613C202.317 193.365 207.08 195.407 207.08 195.407L216.583 200.697L205.265 200.2C205.265 200.2 201.956 207.464 191.744 202.74Z" fill="#924B33"/>
<path d="M201.761 131.337C202.442 129.27 204.26 128.283 205.835 126.975C207.668 125.454 208.97 123.943 211.558 123.842C214.146 123.942 215.448 125.454 217.28 126.975C218.855 128.283 220.673 129.27 221.354 131.337C222.277 134.136 221.676 137.686 219.275 139.581C217.173 141.24 214.171 141.739 211.558 141.655C208.945 141.739 205.942 141.24 203.841 139.581C201.44 137.686 200.839 134.136 201.761 131.337Z" fill="#319898"/>
<path d="M208.037 134.276C208.037 136.059 209.481 137.504 211.264 137.504C213.047 137.504 214.491 136.058 214.491 134.276C214.491 132.494 213.046 131.049 211.264 131.049C209.481 131.048 208.037 132.494 208.037 134.276Z" fill="#40A198"/>
<path d="M208.33 134.26C208.33 136.042 209.774 137.488 211.557 137.488C213.339 137.488 214.784 136.042 214.784 134.26C214.784 132.478 213.34 131.033 211.557 131.033C209.774 131.033 208.33 132.478 208.33 134.26Z" fill="white"/>
<path d="M207.199 126.938C208.585 125.736 209.682 124.785 211.557 124.702C213.432 124.785 214.528 125.736 215.915 126.938" stroke="white" stroke-width="0.4902" stroke-miterlimit="10"/>
<path d="M209.707 127.413C210.296 126.902 210.762 126.498 211.558 126.464C212.354 126.498 212.819 126.903 213.408 127.413" stroke="white" stroke-width="0.4902" stroke-miterlimit="10"/>
<path d="M222.128 131.205H219.678V131.983H222.128V131.205Z" fill="#84A2B2"/>
<path d="M222.128 135.796H219.678V136.574H222.128V135.796Z" fill="#84A2B2"/>
<path d="M193.257 122.468L192.834 123.121L204.197 130.484L204.62 129.831L193.257 122.468Z" fill="#84A2B2"/>
<path d="M190.227 128.37L189.908 129.08L202.262 134.623L202.581 133.914L190.227 128.37Z" fill="#84A2B2"/>
<path d="M193.384 164.481C194.203 165.883 196.305 165.87 198.075 165.734C197.683 166.309 197.2 166.822 196.729 167.322C195.615 168.504 194.464 169.726 194.813 171.612C194.898 172.067 194.968 173.065 195.037 174.428C195.097 175.618 195.155 177.086 195.22 178.713C195.414 183.577 195.684 190.225 196.257 196.265C196.54 196.195 196.823 196.13 197.107 196.063C196.544 190.079 196.275 183.501 196.083 178.679C195.937 175.014 195.832 172.367 195.662 171.454C195.393 169.998 196.303 169.032 197.358 167.913C198.053 167.176 198.772 166.413 199.255 165.423C199.323 165.283 199.311 165.118 199.223 164.99C199.135 164.862 198.989 164.789 198.83 164.804L198.666 164.818C197.025 164.961 194.779 165.156 194.131 164.045C193.754 163.259 193.441 154.393 193.291 150.133C193.216 148.019 193.162 146.492 193.121 146.078C193.097 145.841 192.882 145.672 192.649 145.691C192.412 145.715 192.238 145.926 192.262 146.163C192.3 146.55 192.356 148.144 192.428 150.163C192.735 158.914 192.979 163.787 193.384 164.481Z" fill="#C1D8DD"/>
<path d="M194.322 167.618C193.4 161.35 193.197 154.973 193.761 148.609C193.772 148.495 193.783 148.381 193.791 148.249C193.857 147.638 193.932 146.988 194.061 146.326C194.126 145.958 194.191 145.589 194.278 145.234C194.432 144.606 194.629 143.986 194.877 143.389C195.124 142.796 195.425 142.225 195.796 141.7C195.96 141.467 196.138 141.244 196.329 141.033C196.424 140.928 196.523 140.826 196.624 140.728C196.675 140.678 196.727 140.63 196.78 140.582C196.795 140.569 196.935 140.44 196.906 140.525C196.862 140.652 196.819 140.779 196.775 140.907C196.65 141.269 196.61 141.655 196.524 142.029C196.421 142.478 196.132 142.819 195.946 143.235C195.422 144.285 195.114 145.472 194.921 146.67C194.814 147.346 194.729 148.035 194.675 148.699C194.101 154.935 194.297 161.201 195.195 167.364C195.23 167.598 195.268 167.85 195.303 168.084L195.25 168.096C195.232 168.1 195.197 168.108 195.197 168.108C195.197 168.108 194.418 168.285 194.414 168.267C194.383 168.051 194.352 167.835 194.322 167.618Z" fill="#4B4B4B"/>
<path d="M194.603 167.866C194.647 168.061 194.524 168.256 194.33 168.301C194.33 168.301 194.295 168.309 194.277 168.313C190.772 169.11 189.124 172.668 188.781 175.501C188.675 176.344 188.665 177.203 188.722 178.027C188.84 179.694 189.206 181.305 189.544 182.792L191.352 190.665C191.517 191.391 191.69 192.152 192.042 192.798C192.445 193.507 193.107 194.045 193.774 194.192C194.401 194.329 195.014 194.078 195.68 193.815C196.004 193.685 196.328 193.556 196.665 193.479L196.683 193.475C196.878 193.431 197.056 193.558 197.117 193.748C197.161 193.943 197.038 194.138 196.844 194.182C196.561 194.246 196.254 194.372 195.948 194.497C195.588 194.635 195.211 194.776 194.822 194.865C194.433 194.954 194.031 194.989 193.619 194.896C192.756 194.701 191.916 194.036 191.415 193.145C191.008 192.418 190.815 191.569 190.646 190.825L188.842 182.97C188.52 181.554 188.17 180.014 188.028 178.408C187.935 177.424 187.93 176.42 188.053 175.405C188.44 172.357 190.258 168.481 194.117 167.604C194.324 167.539 194.555 167.654 194.603 167.866Z" fill="#3C4349"/>
<path d="M196.683 193.474L196.665 193.478C196.329 193.554 196.004 193.684 195.68 193.814C195.014 194.077 194.401 194.328 193.774 194.191C193.108 194.045 192.446 193.506 192.042 192.797C191.69 192.151 191.517 191.39 191.352 190.664L189.544 182.791C189.235 181.43 188.922 179.957 188.777 178.44L188.055 178.604C188.207 180.138 188.532 181.613 188.84 182.97L190.644 190.825C190.813 191.568 191.006 192.418 191.413 193.145C191.914 194.036 192.754 194.702 193.617 194.896C194.029 194.989 194.43 194.953 194.82 194.865C195.209 194.776 195.587 194.635 195.946 194.497C196.253 194.372 196.559 194.246 196.842 194.182C197.037 194.138 197.16 193.942 197.115 193.748C197.055 193.557 196.877 193.43 196.683 193.474Z" fill="#BABCBE"/>
<path d="M195.814 193.25C195.963 193.103 196.105 192.979 196.196 192.902C196.739 192.447 197.618 192.043 198.255 192.563C199.02 193.188 198.52 194.399 197.673 194.64C197.017 194.827 196.285 194.719 195.627 194.596C194.787 194.44 195.336 193.724 195.814 193.25Z" fill="#3C4349"/>
<path d="M194.763 167.83C194.807 168.025 195.003 168.148 195.197 168.104C195.197 168.104 195.232 168.096 195.25 168.092C198.755 167.295 201.779 169.791 203.313 172.197C203.773 172.911 204.152 173.681 204.457 174.45C205.071 176.004 205.438 177.615 205.776 179.102L207.549 186.983C207.714 187.709 207.887 188.47 207.849 189.204C207.792 190.018 207.428 190.789 206.89 191.209C206.384 191.603 205.723 191.642 205.008 191.693C204.66 191.716 204.311 191.74 203.975 191.816L203.957 191.82C203.762 191.864 203.657 192.056 203.684 192.254C203.728 192.449 203.924 192.572 204.118 192.528C204.401 192.464 204.732 192.444 205.063 192.425C205.447 192.394 205.848 192.358 206.238 192.27C206.627 192.181 207.005 192.04 207.336 191.778C208.03 191.229 208.499 190.266 208.565 189.246C208.618 188.415 208.426 187.565 208.257 186.822L206.488 178.959C206.166 177.543 205.815 176.003 205.248 174.494C204.907 173.566 204.478 172.659 203.929 171.797C202.263 169.216 198.947 166.507 195.089 167.384C194.874 167.414 194.715 167.618 194.763 167.83Z" fill="#3C4349"/>
<path d="M203.957 191.82L203.975 191.816C204.311 191.74 204.66 191.716 205.008 191.693C205.723 191.642 206.384 191.604 206.89 191.209C207.428 190.789 207.792 190.017 207.849 189.204C207.887 188.47 207.714 187.708 207.549 186.983L205.776 179.102C205.467 177.741 205.112 176.277 204.587 174.847L205.309 174.683C205.835 176.132 206.18 177.602 206.488 178.959L208.257 186.822C208.426 187.565 208.619 188.415 208.566 189.246C208.5 190.266 208.03 191.229 207.336 191.778C207.005 192.04 206.627 192.181 206.238 192.27C205.849 192.359 205.447 192.394 205.063 192.425C204.732 192.444 204.402 192.464 204.118 192.528C203.923 192.572 203.728 192.449 203.684 192.254C203.657 192.056 203.763 191.864 203.957 191.82Z" fill="#BABCBE"/>
<path d="M204.644 191.243C204.446 191.174 204.264 191.124 204.15 191.095C203.464 190.919 202.496 190.935 202.147 191.679C201.728 192.573 202.702 193.449 203.57 193.301C204.242 193.186 204.856 192.772 205.396 192.377C206.085 191.871 205.279 191.463 204.644 191.243Z" fill="#3C4349"/>
<path d="M222.442 171.959C224.937 171.959 226.96 169.936 226.96 167.441C226.96 164.946 224.937 162.923 222.442 162.923C219.947 162.923 217.924 164.946 217.924 167.441C217.924 169.936 219.947 171.959 222.442 171.959Z" fill="#D0D2D3"/>
<path d="M221.911 162.642C222.087 163.421 222.259 164.182 222.417 164.966C222.455 165.218 222.362 165.462 222.057 165.513C221.805 165.551 221.566 165.4 221.528 165.149C221.37 164.366 221.194 163.587 221.018 162.808C220.353 159.943 219.55 157.129 218.592 154.367C217.709 151.775 216.55 148.78 214.68 146.187C214.462 145.883 214.201 145.551 213.923 145.223C213.563 144.783 213.142 144.32 212.668 143.869C212.638 143.82 212.595 143.792 212.548 143.747C212.264 143.476 211.957 143.192 211.624 142.951C211.107 142.472 210.648 141.925 210.274 141.339C210.159 141.16 210.044 140.981 209.93 140.803C211.498 141.566 212.803 142.648 213.83 143.738C214.049 143.968 214.251 144.201 214.448 144.417C214.804 144.839 215.142 145.265 215.415 145.65C215.496 145.762 215.581 145.892 215.662 146.004C217.443 148.617 218.586 151.541 219.453 154.062C220.419 156.857 221.238 159.742 221.911 162.642Z" fill="#4B4B4B"/>
<path d="M221.911 162.642C222.087 163.421 222.259 164.182 222.417 164.966C222.455 165.218 222.362 165.462 222.057 165.513C221.805 165.551 221.566 165.4 221.528 165.149C221.37 164.366 221.194 163.587 221.018 162.808L221.496 162.7C221.641 162.684 221.765 162.656 221.911 162.642Z" fill="#E4E6E6"/>
<path d="M222.443 169.872C223.785 169.872 224.874 168.784 224.874 167.441C224.874 166.098 223.785 165.01 222.443 165.01C221.1 165.01 220.012 166.098 220.012 167.441C220.012 168.784 221.1 169.872 222.443 169.872Z" fill="#727373"/>
<path d="M208.575 253.465C210.919 263.68 213.198 279.69 210.098 298.751C208.229 310.242 204.903 319.78 201.715 327.032C192.049 343.984 182.383 360.936 172.717 377.889" stroke="#4F3120" stroke-width="0.6215" stroke-miterlimit="10"/>
<path d="M312.449 121.423C310.948 120.051 308.386 120.602 307.17 122.544C306.928 122.931 306.888 123.485 306.327 123.734C306.147 123.246 306.163 122.833 306.209 122.444C306.412 120.706 306.058 119.14 305.005 117.708C304.558 117.1 304.35 116.34 304.23 115.578C303.937 113.714 303.019 113.092 301.207 113.622C300.137 113.935 299.093 114.364 298.002 114.586C295.239 115.147 292.47 115.582 289.974 113.68C288.68 112.693 288.013 112.86 287.299 114.342C287.009 114.943 286.883 115.58 286.822 116.248C286.703 117.564 287.246 121.089 287.214 121.61C287.107 123.379 287.145 125.143 287.189 126.915C287.305 131.532 289.458 134.81 293.557 136.762C293.89 136.92 294.348 137.115 294.842 137.307C294.914 137.33 294.98 137.357 295.046 137.387C295.991 137.744 297.036 138.07 297.641 138.105C301.082 138.301 304.172 137.422 306.445 134.948C306.467 134.911 306.373 135.071 306.292 135.238C304.329 139.315 301.168 141.263 296.59 140.719C296.49 140.707 296.386 140.691 296.282 140.678L296.515 142.647C296.593 142.965 296.586 143.281 296.494 143.595C295.681 143.755 294.868 143.915 294.055 144.075C293.88 144.303 292.18 146.591 293.069 148.873C293.541 150.085 294.513 150.719 295.093 151.072C297.118 152.306 299.932 152.539 302.313 151.638C307.687 149.606 308.795 142.616 308.84 141.799C308.897 140.744 308.906 139.686 308.935 138.629C309.015 135.658 309.08 132.687 309.183 129.717C309.219 128.69 309.635 127.999 310.847 128.042C311.805 128.077 312.59 127.656 313.216 126.895C314.619 125.189 314.379 123.376 312.449 121.423Z" fill="#924B33"/>
<path d="M312.448 121.423C309.593 120.494 308.216 121.134 307.036 124.008C306.873 124.406 306.711 124.583 306.3 124.58C305.785 124.576 305.754 124.247 305.771 123.86C305.786 123.506 305.776 123.15 305.794 122.796C305.886 121.012 305.829 119.291 304.583 117.803C304.065 117.185 303.919 116.327 303.799 115.522C303.559 113.919 302.954 113.513 301.268 114.037C299.523 114.579 297.804 115.171 295.969 115.381C293.448 115.668 291.089 115.443 289.203 113.519C288.675 112.981 288.392 113.185 288.039 113.691C287.069 115.082 287.198 116.668 287.142 118.236C287.118 118.894 287.509 119.658 286.772 120.189C284.405 117.106 283.915 113.97 286.558 110.785C287.018 110.231 286.749 109.732 286.611 109.216C285.383 104.601 287.868 100.502 292.529 99.4149C294.551 98.9439 296.552 98.9379 298.542 99.5139C300.99 100.223 302.743 101.735 303.605 104.157C304.417 106.439 305.935 107.79 308.295 108.479C313.258 109.927 315.02 113.29 313.669 118.325C313.379 119.406 313.024 120.458 312.448 121.423Z" fill="#272127"/>
<path d="M296.136 137.286C295.816 137.242 295.556 137.23 295.342 137.251C295.352 137.329 295.362 137.407 295.354 137.481C295.351 137.508 295.353 137.536 295.351 137.563C295.659 137.794 295.988 138.193 296.031 138.558L296.341 141.178C296.548 141.197 296.756 141.22 296.963 141.236C302.064 141.636 306.687 138.168 307.738 132.961C304.542 136.541 300.638 137.912 296.136 137.286Z" fill="#292027"/>
<path d="M298.552 129.644C296.803 132.273 293.123 132.623 291.659 130.459C291.456 130.158 291.215 129.861 291.338 129.489C291.512 128.967 291.945 129.28 292.25 129.295C294.307 129.393 296.378 129.25 298.552 129.644Z" fill="#FCFAFA"/>
<path d="M300.62 119.795C299.686 119.765 298.677 119.754 297.672 119.694C297.062 119.657 296.377 119.6 296.426 118.733C296.476 117.843 297.207 117.931 297.789 117.939C298.796 117.953 299.801 118.062 300.809 118.087C301.474 118.104 302.101 118.2 302.065 119.016C302.026 119.895 301.283 119.755 300.62 119.795Z" fill="#2E2127"/>
<path d="M291.142 119.618C290.388 119.598 289.631 119.611 288.881 119.544C288.337 119.496 287.891 119.218 287.96 118.584C288.016 118.065 288.391 117.786 288.907 117.794C289.661 117.805 290.415 117.84 291.166 117.906C291.725 117.955 292.146 118.225 292.102 118.861C292.062 119.428 291.632 119.579 291.142 119.618Z" fill="#2E2127"/>
<path d="M293.061 124.335C293.636 124.797 293.547 125.271 293.456 125.693C293.237 126.703 293.305 127.431 294.64 127.271C294.884 127.242 295.181 127.392 295.203 127.674C295.237 128.11 294.84 128.075 294.562 128.128C293.353 128.359 292.503 127.584 292.618 126.364C292.679 125.715 292.701 125.057 293.061 124.335Z" fill="#2E2127"/>
<path d="M299.977 123.149C299.929 123.711 299.616 124.118 299.054 124.123C298.5 124.127 298.141 123.781 298.141 123.159C298.141 122.606 298.445 122.307 298.948 122.268C299.532 122.222 299.873 122.556 299.977 123.149Z" fill="#2E2127"/>
<path d="M291.465 123.064C291.501 123.707 291.165 123.997 290.581 124.032C290.043 124.064 289.724 123.743 289.664 123.256C289.593 122.685 289.904 122.282 290.483 122.22C291.074 122.157 291.399 122.495 291.465 123.064Z" fill="#2E2127"/>
<path d="M285.488 104.978C284.924 106.4 284.839 108.218 285.83 109.478C286.088 109.807 286.415 110.099 286.801 110.267C287.257 110.465 287.731 110.356 288.206 110.441C289.296 110.636 290.377 110.966 291.452 111.23C291.755 111.304 291.885 110.837 291.581 110.762C290.602 110.522 289.624 110.274 288.643 110.041C288.451 109.995 288.259 109.953 288.062 109.932C287.797 109.903 287.524 109.951 287.262 109.907C286.863 109.84 286.524 109.553 286.268 109.254C285.298 108.123 285.439 106.403 285.954 105.107C286.071 104.817 285.602 104.691 285.488 104.978Z" fill="#272127"/>
<path d="M271.792 237.568L262.811 376.214H289.058L299.471 283.735L310.775 376.214H337.062L329.573 237.568H271.792Z" fill="#1E1F35"/>
<path d="M323.168 251.756L333.3 374.36" stroke="#4F3120" stroke-width="0.6215" stroke-miterlimit="10"/>
<path d="M262.81 376.214L249.237 385.07C247.303 386.332 248.196 389.337 250.506 389.337H286.968C288.27 389.337 289.318 388.266 289.29 386.964L289.056 376.213L262.81 376.214Z" fill="#1E1F35"/>
<path d="M337.022 376.214L350.595 385.07C352.529 386.332 351.636 389.337 349.326 389.337H312.864C311.562 389.337 310.514 388.266 310.542 386.964L310.776 376.213L337.022 376.214Z" fill="#1E1F35"/>
<path d="M304.168 325.862L298.033 278.573L288.809 277.242" stroke="#4F3120" stroke-width="0.6215" stroke-miterlimit="10"/>
<path d="M295.08 278.147L282.924 372.933" stroke="#4F3120" stroke-width="0.6215" stroke-miterlimit="10"/>
<path d="M294.356 271.445C294.528 271.445 294.667 271.306 294.667 271.134C294.667 270.962 294.528 270.823 294.356 270.823C292.601 270.823 291.173 269.395 291.173 267.64L290.928 253.931C290.925 253.759 290.8 253.618 290.612 253.626C290.44 253.629 290.304 253.771 290.307 253.942L290.552 267.646C290.551 269.738 292.258 271.445 294.356 271.445Z" fill="#4F3120"/>
<path d="M297.225 276.204C297.227 276.204 297.23 276.204 297.234 276.204C297.405 276.199 297.54 276.057 297.536 275.885L296.267 228.648C296.262 228.479 296.124 228.345 295.956 228.345C295.954 228.345 295.951 228.345 295.947 228.345C295.776 228.35 295.641 228.492 295.645 228.664L296.914 275.902C296.919 276.07 297.057 276.204 297.225 276.204Z" fill="#4F3120"/>
<path d="M278.587 244.983C278.448 245.535 278.299 246.085 278.143 246.634C277.806 247.819 277.43 248.991 277.014 250.15C275.323 254.887 273.006 259.403 270.137 263.534C269.825 263.983 269.392 264.48 268.851 264.406C268.346 264.336 268.057 263.81 267.848 263.346C266.516 260.387 265.177 257.405 264.438 254.245C263.739 251.251 263.598 248.201 263.818 245.161C263.964 243.141 264.27 241.125 264.678 239.13C265.124 236.95 265.692 234.798 266.306 232.696C267.606 228.245 272.514 224.274 276.59 228.887C278.455 230.997 279.38 233.819 279.575 236.628C279.768 239.437 279.278 242.253 278.587 244.983Z" fill="#924B33"/>
<path d="M293.885 207.111C292.714 209.703 291.511 212.278 290.271 214.834C285.994 223.65 281.306 232.247 276.226 240.581C275.891 241.128 275.525 241.704 274.961 241.974C274.335 242.275 273.604 242.134 272.929 241.987C272.793 241.957 272.659 241.928 272.523 241.898C269.088 241.153 265.652 240.405 262.217 239.658C262.434 238.543 262.646 237.426 262.856 236.308C265.159 223.988 266.949 211.588 268.506 199.151C269.949 187.632 271.189 176.082 272.451 164.539C272.75 161.803 273.224 158.828 274.991 156.67C276.894 154.342 280.34 153.168 283.138 154.199C287.255 155.719 289.455 160.845 290.833 165.532C291.293 167.101 291.663 168.618 291.981 169.937C292.204 170.861 292.408 171.794 292.595 172.738C294.088 180.278 294.447 188.411 293.735 196.139C294.073 199.794 295.372 203.818 293.885 207.111Z" fill="#F4F5F5"/>
<path d="M292.594 172.739C292.539 177.354 292.26 181.981 291.982 186.585C291.411 196.001 290.842 205.418 290.272 214.834C285.995 223.65 281.307 232.247 276.227 240.581C275.892 241.128 275.526 241.704 274.962 241.974C274.336 242.275 273.605 242.134 272.93 241.987C272.794 241.957 272.66 241.928 272.524 241.898C272.015 235.035 271.442 228.178 270.803 221.327C270.112 213.926 269.348 206.535 268.506 199.152C269.949 187.633 271.189 176.083 272.451 164.54C272.75 161.804 273.224 158.829 274.991 156.671C276.894 154.343 280.34 153.169 283.138 154.2C287.255 155.72 289.455 160.846 290.833 165.533C291.293 167.102 291.663 168.619 291.981 169.938C292.203 170.862 292.407 171.795 292.594 172.739Z" fill="#F0F0F0"/>
<path d="M333.467 162.202C333.217 165.418 332.926 168.628 332.624 171.834C331.748 181.13 330.773 190.401 330.418 199.762C330.102 207.457 330.554 215.009 330.692 222.704C330.755 226.255 331.959 232.226 328.96 234.889C327.317 236.349 324.969 236.252 323.046 237.133C321.086 238.03 319.446 239.493 317.496 240.413C314.205 241.966 310.502 241.993 306.938 242.08C303.882 242.156 300.831 242.338 297.78 242.539C296.143 242.647 294.506 242.759 292.87 242.862C289.76 243.06 286.021 243.961 283.166 242.315C281.678 241.455 280.806 239.693 279.234 238.984C278.231 238.532 277.192 238.687 276.24 237.98C274.552 236.726 274.163 234.401 274.056 232.439C273.806 227.884 275.204 223.529 275.764 219.061C276.438 213.672 276.583 208.158 276.514 202.724C276.362 191.004 274.009 179.459 273.52 167.77C273.484 166.911 273.458 166.051 273.444 165.19C273.348 159.434 276.288 155.597 280.573 152.038C283.343 149.737 286.329 147.704 289.198 145.539C290.395 144.634 291.86 144.361 293.312 144.762C294.514 145.093 295.631 145.711 296.853 145.964C297.607 146.119 298.384 146.132 299.154 146.144C300.274 146.161 301.411 146.177 302.496 145.897C303.459 145.647 304.35 145.171 305.213 144.674C307.239 143.51 309.151 142.194 311.023 140.797C311.839 140.19 312.273 140.041 313.073 140.455C313.162 140.501 313.256 140.555 313.356 140.615C314.327 141.207 315.191 141.956 316.217 142.459C317.425 143.052 318.751 143.474 319.996 143.992C322.555 145.055 325.097 146.162 327.617 147.314C330.089 148.443 333.366 149.494 333.855 152.584C334.367 155.81 333.716 158.994 333.467 162.202Z" fill="#69B5B5"/>
<path d="M296.131 213.56C296.029 213.66 295.926 213.758 295.822 213.854C293.721 211.566 292.05 208.211 292.142 205.124C292.388 196.831 293.522 188.465 294.207 180.195C294.561 175.925 294.915 171.654 295.268 167.384C295.593 163.459 296.237 159.412 295.957 155.47C295.909 154.789 295.316 154.156 294.936 153.62C294.432 152.908 293.906 152.212 293.412 151.493C293.979 150.183 294.546 148.874 295.112 147.564C295.242 147.263 295.376 146.956 295.592 146.709C296.12 146.105 297.001 145.989 297.8 145.913C298.176 145.877 298.564 145.843 298.924 145.956C299.336 146.086 299.665 146.394 299.964 146.706C301.073 147.863 301.759 149.435 302.437 150.887C302.361 151.086 302.249 151.27 302.137 151.452C301.354 152.731 300.739 154.134 299.85 155.322C299.386 155.942 299.625 156.981 299.637 157.718C299.656 158.861 299.679 160.003 299.68 161.146C299.682 162.575 299.7 164.003 299.733 165.431C299.798 168.285 299.919 171.137 300.072 173.988C300.38 179.689 300.82 185.382 301.214 191.077C301.548 195.92 301.849 200.765 302.005 205.617C302.018 206.02 302.027 206.435 301.881 206.81C301.756 207.131 301.528 207.4 301.303 207.661C299.611 209.637 297.998 211.743 296.131 213.56Z" fill="#8CBFCB"/>
<path d="M290.822 142.845C291.069 142.515 291.37 142.251 291.829 142.263C292.19 142.273 292.443 142.823 292.654 143.067C293.116 143.602 293.623 144.125 294.242 144.479C295.073 144.954 295.943 145.372 296.867 145.635C299.193 146.296 301.489 145.502 303.625 144.566C305.704 143.655 307.682 142.45 309.394 140.956C309.931 140.503 310.435 140.016 310.872 139.512C311.151 139.19 311.405 138.851 311.669 138.517C312.01 138.086 312.622 138.182 312.995 138.503C313.563 138.994 314.068 139.601 314.601 140.133C315.29 140.822 316.028 141.51 316.465 141.964L316.566 142.065C316.734 142.25 316.835 142.384 316.851 142.434C316.969 143.089 315.675 144.567 315.323 145.104C314.718 146.011 314.08 146.901 313.425 147.774C310.906 151.083 308.588 154.509 306.136 157.868C305.884 158.204 305.817 158.321 305.531 158.019C305.279 157.734 305.078 157.381 304.859 157.079C304.439 156.491 304.019 155.87 303.633 155.265C302.575 153.619 301.651 151.94 300.795 150.193C300.174 148.933 299.418 147.489 298.276 146.616C297.016 145.675 296.009 147.489 295.421 148.346C294.514 149.673 293.876 151.151 293.171 152.595C292.298 154.342 291.525 156.172 290.467 157.818C290.45 157.852 290.433 157.885 290.4 157.936C289.577 153.972 289.191 149.807 288.721 145.793C288.788 145.692 288.855 145.608 288.923 145.508C289.371 144.836 289.889 144.207 290.354 143.547C290.507 143.328 290.652 143.071 290.822 142.845Z" fill="#5FA09E"/>
<path d="M275.807 236.469C276.241 234.503 277.482 233.134 280.083 233.846C294.464 237.786 312.64 232.988 327.197 231.087C327.854 231.001 328.589 230.988 328.963 231.616C329.134 231.903 329.196 232.236 329.256 232.562C329.417 233.438 329.579 234.315 329.74 235.191C330.119 237.247 330.381 239.067 327.744 239.412C312.695 241.377 297.179 245.628 281.967 242.86C279.956 242.494 276.492 242.359 275.782 240.077C275.553 239.34 275.592 238.552 275.634 237.781C275.659 237.326 275.715 236.884 275.807 236.469Z" fill="#1E1F35"/>
<path d="M291.214 147.413C291.081 145.911 290.98 144.41 290.68 142.925C290.547 142.291 289.495 143.659 289.345 143.809C288.611 144.543 287.844 145.244 287.059 145.911C285.507 147.229 283.889 148.464 282.287 149.715C279.701 151.734 276.498 154.003 274.863 156.906C273.829 158.758 273.011 160.66 272.677 162.779C270.975 173.123 271.693 183.784 272.026 194.211C272.36 205.306 273.127 216.718 272.41 227.862C272.31 229.48 272.176 231.082 272.01 232.684C271.343 239.074 270.208 245.38 268.84 251.654C268.273 254.273 267.655 256.893 267.021 259.512C265.052 267.604 262.283 275.946 262.767 284.371C263.084 289.927 267.122 294.431 271.293 297.718C274.48 300.237 277.933 302.623 281.72 304.158C282.95 304.66 285.597 305.929 286.882 305.152C284.435 280.224 286.166 254.437 287.809 229.498C288.476 219.371 289.244 209.26 289.928 199.133C290.045 197.415 290.162 195.679 290.278 193.961C290.678 187.671 291.029 181.365 291.279 175.058C291.479 169.602 291.596 164.147 291.563 158.674V152.668C291.464 150.917 291.364 149.165 291.214 147.413Z" fill="#F5F7F7"/>
<path d="M341.283 293.736C331.068 302.331 318.395 306.502 304.97 305.365C304.924 305.362 304.886 305.348 304.84 305.341C304.838 305.319 304.838 305.295 304.837 305.271C303.763 305.086 302.795 304.295 302.754 302.898C302.433 291.785 303.137 280.71 303.113 269.597C303.088 258.413 302.689 247.025 302.613 235.97C302.483 216.914 302.544 197.745 303.365 178.691C303.642 172.282 303.513 165.024 305.335 158.876C307.219 152.516 310.067 146.476 312.515 140.321C312.708 139.832 312.808 139.247 313.158 138.837C313.667 138.238 314.289 138.975 314.637 139.392C315.412 140.322 316.221 140.396 317.321 140.757C318.011 140.985 318.706 141.195 319.401 141.404C320.929 141.86 322.463 142.296 323.978 142.797C326.384 143.594 329.001 144.63 331.089 146.198C333 147.629 334.47 149.504 334.938 152.044C335.696 156.163 335.553 160.47 335.264 164.773C335.02 168.408 334.672 172.041 334.672 175.56C334.591 182.094 334.452 188.628 334.327 195.162V195.203C334.27 198.14 334.219 201.079 334.175 204.016C334.075 210.591 334.024 217.166 334.095 223.743C334.1 224.197 334.105 224.651 334.11 225.105C334.279 240.041 334.547 255.117 337.35 269.811C337.529 270.747 337.701 271.685 337.865 272.623C339.098 279.653 339.986 286.709 341.283 293.736Z" fill="#F5F7F7"/>
<path d="M282.967 230.835C279.703 231.008 276.292 230.788 273.089 230.03C273.026 236.945 272.186 243.933 270.639 250.772C272.275 252.304 273.862 253.893 275.401 255.54C275.532 255.465 275.67 255.379 275.797 255.312C276.858 254.755 277.918 254.179 278.962 253.547C280.16 252.824 281.044 252.451 281.522 251.543C281.722 251.135 281.866 250.633 281.901 249.959C282.083 246.946 282.303 243.916 282.504 240.904C282.725 237.64 282.465 234.124 282.967 230.835Z" fill="white"/>
<path d="M286.795 174.301C289.4 174.301 291.512 172.189 291.512 169.584C291.512 166.979 289.4 164.867 286.795 164.867C284.19 164.867 282.078 166.979 282.078 169.584C282.078 172.189 284.19 174.301 286.795 174.301Z" fill="#F0F0F0"/>
<path d="M334.094 223.745C334.099 224.199 334.103 224.653 334.108 225.107C333.441 225.688 332.795 226.296 332.158 226.912C330.953 228.076 329.765 229.273 328.806 230.648C327.683 232.258 326.895 234.077 325.837 235.728C325.045 236.963 324.107 238.096 323.172 239.225C323.036 239.39 322.889 239.56 322.686 239.628C322.52 239.682 322.341 239.658 322.169 239.634C321.337 239.517 320.505 239.401 319.673 239.284C318.387 239.105 317.081 238.919 315.894 238.39C314.708 237.862 313.637 236.933 313.24 235.696C313.082 235.201 313.03 234.662 312.758 234.219C312.418 233.665 311.246 233.324 311.086 232.758C310.915 232.154 311.916 231.195 312.222 230.724C313.16 229.274 313.943 227.722 314.55 226.104C314.958 225.014 315.292 223.839 315.066 222.695C314.876 221.74 314.307 220.884 314.171 219.918C313.907 218.034 315.322 216.359 316.714 215.064C321.791 210.339 327.817 206.863 334.173 204.018C334.074 210.594 334.023 217.169 334.094 223.745Z" fill="#F4F5F5"/>
<path d="M335.263 164.775C335.019 168.41 334.671 172.043 334.671 175.562C334.59 182.096 334.451 188.63 334.326 195.164V195.205C329.068 187.936 323.77 180.685 321.704 172.035C320.273 166.048 319.702 158.943 322.927 153.401C324.716 150.326 327.583 147.535 331.087 146.2C332.998 147.631 334.469 149.506 334.937 152.046C335.695 156.165 335.553 160.472 335.263 164.775Z" fill="#F4F5F5"/>
<path d="M330.99 219.113C329.484 220.495 328.235 222.158 326.759 223.586C326.541 223.798 326.33 224.004 326.131 224.206C324.763 225.603 323.893 226.87 323.871 229.068C323.86 230.269 323.452 231.651 322.819 232.911C322.238 234.072 321.467 235.13 320.638 235.85C319.792 236.604 318.808 237.169 317.919 237.879C316.473 239.024 315.977 240.506 315.482 242.202C314.97 243.994 314.647 245.86 314.1 247.627C314.007 247.91 313.89 248.23 313.624 248.343C312.998 248.639 312.52 247.783 312.37 247.147C311.209 241.981 310.13 236.298 312.696 231.673C313.658 229.927 315.228 228.612 316.184 226.86C316.59 226.113 316.918 225.332 317.226 224.54C317.786 223.102 318.286 221.631 319.088 220.279C319.464 219.645 319.868 219.025 320.298 218.422C321.263 217.073 322.361 215.815 323.577 214.699C323.598 214.678 323.67 214.612 323.73 214.557C324.636 215.019 325.538 215.493 326.42 216.001C328.032 216.928 329.533 217.991 330.99 219.113Z" fill="#924B33"/>
<path d="M322.763 172.425H309.521C309.434 172.425 309.363 172.354 309.363 172.267V169.386C309.363 169.299 309.434 169.228 309.521 169.228H322.763C322.85 169.228 322.921 169.299 322.921 169.386V172.267C322.921 172.354 322.85 172.425 322.763 172.425Z" fill="#E4E6E6"/>
<path d="M352.923 186.513C351.376 181.45 349.399 176.534 347.424 171.627C345.654 167.23 343.883 162.828 341.835 158.551C339.936 154.585 337.904 149.543 334.073 147.046C330.645 144.812 326.308 145.922 323.859 149.065C318.971 155.34 322.95 167.917 325.279 174.523C326.831 178.925 328.748 183.187 330.728 187.41C331.3 188.63 337.087 199.083 336.472 199.724C335.463 200.776 334.553 201.692 334.354 201.914C332.429 204.055 330.452 206.151 328.428 208.199C325.866 210.791 323.224 213.306 320.512 215.741C319.389 216.749 318.139 217.673 317.077 218.741C315.965 219.859 316.013 220.745 317.325 221.635C319.518 223.123 321.454 224.986 323.037 227.111C323.946 228.33 324.738 229.636 325.396 231.007C325.485 231.192 325.622 231.409 325.826 231.389C325.924 231.379 326.006 231.314 326.082 231.251C329.107 228.75 331.948 226.058 335.041 223.668C338.101 221.305 341.302 219.129 344.333 216.727C349.005 213.025 354.686 207.975 355.475 201.704C356.1 196.737 354.364 191.23 352.923 186.513Z" fill="#F5F7F7"/>
<path d="M330.06 238.83C329.623 235.489 329.167 232.15 328.697 228.813C322.077 230.777 314.567 231.715 308.23 229.91C308.702 233.172 308.337 236.635 308.5 239.847C308.651 242.816 308.815 245.789 308.936 248.759C308.963 249.426 309.09 249.921 309.305 250.317C309.799 251.226 310.76 251.612 312.048 252.347C313.162 252.983 314.306 253.572 315.455 254.152C317.321 255.094 319.711 256.917 321.747 257.376C323.324 257.731 326.241 254.117 327.19 253.177C328.475 251.905 330.032 250.58 331.011 249.074C331.766 247.913 330.896 245.389 330.735 244.102C330.515 242.343 330.29 240.586 330.06 238.83Z" fill="white"/>
<path d="M317.179 163.201C316.699 156.883 315.492 150.619 313.541 144.535C313.505 144.426 313.469 144.317 313.433 144.19C313.234 143.609 313.017 142.991 312.746 142.374C312.601 142.029 312.457 141.684 312.294 141.357C312.006 140.778 311.677 140.217 311.303 139.69C310.932 139.166 310.512 138.675 310.035 138.245C309.824 138.054 309.601 137.876 309.368 137.712C309.252 137.631 309.134 137.553 309.013 137.479C308.952 137.442 308.891 137.406 308.829 137.371C308.812 137.361 308.647 137.266 308.694 137.343C308.765 137.457 308.835 137.572 308.906 137.686C309.107 138.012 309.232 138.38 309.398 138.726C309.597 139.141 309.954 139.41 310.228 139.775C310.971 140.684 311.532 141.774 311.984 142.9C312.237 143.536 312.472 144.19 312.671 144.825C314.604 150.782 315.793 156.937 316.273 163.146C316.291 163.382 316.309 163.636 316.326 163.872H316.381C316.399 163.872 316.435 163.872 316.435 163.872C316.435 163.872 317.234 163.873 317.234 163.855C317.215 163.637 317.197 163.419 317.179 163.201Z" fill="#4B4B4B"/>
<path d="M316.959 163.505C316.959 163.705 317.122 163.868 317.321 163.869C317.321 163.869 317.357 163.869 317.376 163.869C320.97 163.875 323.361 166.982 324.319 169.67C324.608 170.469 324.807 171.304 324.932 172.121C325.184 173.773 325.181 175.425 325.179 176.95L325.148 185.028C325.147 185.772 325.146 186.553 324.945 187.26C324.708 188.04 324.18 188.711 323.563 189.001C322.982 189.272 322.328 189.163 321.621 189.052C321.276 188.997 320.931 188.942 320.586 188.941H320.568C320.368 188.941 320.223 189.104 320.204 189.303C320.204 189.503 320.367 189.666 320.566 189.667C320.856 189.667 321.183 189.722 321.51 189.777C321.891 189.832 322.29 189.887 322.69 189.888C323.089 189.889 323.489 189.835 323.87 189.654C324.669 189.274 325.342 188.44 325.634 187.46C325.871 186.662 325.873 185.79 325.874 185.028L325.905 176.968C325.907 175.516 325.91 173.937 325.694 172.339C325.569 171.359 325.352 170.378 325.009 169.415C323.961 166.527 321.334 163.147 317.376 163.141C317.16 163.124 316.96 163.288 316.959 163.505Z" fill="#3C4349"/>
<path d="M320.569 188.942H320.587C320.932 188.943 321.277 188.997 321.622 189.053C322.33 189.163 322.983 189.273 323.564 189.002C324.182 188.713 324.709 188.042 324.946 187.261C325.147 186.553 325.148 185.773 325.149 185.029L325.18 176.951C325.182 175.555 325.163 174.049 324.97 172.537L325.711 172.538C325.9 174.067 325.908 175.578 325.906 176.97L325.875 185.03C325.874 185.792 325.872 186.664 325.635 187.462C325.343 188.442 324.67 189.276 323.871 189.656C323.49 189.837 323.09 189.891 322.691 189.89C322.292 189.889 321.892 189.834 321.511 189.779C321.184 189.724 320.858 189.669 320.567 189.669C320.367 189.669 320.204 189.505 320.205 189.305C320.223 189.105 320.369 188.942 320.569 188.942Z" fill="#BABCBE"/>
<path d="M321.365 188.533C321.187 188.422 321.021 188.332 320.916 188.278C320.286 187.953 319.339 187.753 318.833 188.401C318.225 189.179 318.979 190.25 319.858 190.299C320.539 190.337 321.23 190.07 321.844 189.805C322.63 189.467 321.936 188.89 321.365 188.533Z" fill="#3C4349"/>
<path d="M316.797 163.505C316.797 163.705 316.633 163.868 316.434 163.867C316.434 163.867 316.398 163.867 316.379 163.867C312.785 163.861 310.384 166.962 309.418 169.647C309.126 170.445 308.925 171.28 308.797 172.097C308.54 173.748 308.538 175.4 308.535 176.925L308.541 185.003C308.54 185.747 308.539 186.528 308.737 187.236C308.972 188.017 309.497 188.689 310.114 188.981C310.694 189.254 311.348 189.146 312.056 189.039C312.401 188.985 312.746 188.931 313.091 188.932H313.109C313.309 188.932 313.454 189.096 313.471 189.296C313.471 189.496 313.307 189.659 313.107 189.659C312.817 189.659 312.49 189.713 312.163 189.766C311.782 189.82 311.382 189.874 310.983 189.873C310.584 189.872 310.184 189.817 309.804 189.635C309.006 189.253 308.336 188.417 308.047 187.436C307.812 186.637 307.814 185.766 307.815 185.003L307.809 176.943C307.811 175.491 307.814 173.912 308.034 172.315C308.163 171.335 308.382 170.355 308.728 169.394C309.785 166.509 312.423 163.137 316.38 163.143C316.598 163.124 316.797 163.287 316.797 163.505Z" fill="#3C4349"/>
<path d="M313.108 188.931H313.09C312.745 188.93 312.4 188.984 312.055 189.038C311.347 189.146 310.693 189.254 310.113 188.98C309.496 188.689 308.971 188.016 308.736 187.235C308.537 186.527 308.539 185.746 308.54 185.002L308.534 176.924C308.536 175.528 308.56 174.022 308.757 172.511L308.016 172.51C307.822 174.039 307.809 175.549 307.807 176.941L307.813 185.001C307.812 185.763 307.81 186.635 308.045 187.434C308.334 188.415 309.004 189.251 309.802 189.633C310.183 189.815 310.582 189.87 310.981 189.871C311.38 189.872 311.78 189.818 312.161 189.764C312.488 189.71 312.815 189.656 313.105 189.657C313.305 189.657 313.468 189.494 313.469 189.294C313.453 189.095 313.308 188.931 313.108 188.931Z" fill="#BABCBE"/>
<path d="M312.311 188.519C312.489 188.408 312.655 188.319 312.761 188.265C313.392 187.942 314.339 187.745 314.843 188.394C315.449 189.174 314.692 190.243 313.812 190.289C313.131 190.325 312.441 190.056 311.828 189.789C311.043 189.449 311.739 188.874 312.311 188.519Z" fill="#3C4349"/>
<path d="M289.709 173.737C292.205 173.737 294.227 171.714 294.227 169.219C294.227 166.723 292.205 164.701 289.709 164.701C287.214 164.701 285.191 166.723 285.191 169.219C285.191 171.714 287.214 173.737 289.709 173.737Z" fill="#D0D2D3"/>
<path d="M289.172 164.421C289.172 165.22 289.172 166 289.19 166.799C289.208 167.053 289.353 167.271 289.662 167.253C289.916 167.235 290.116 167.035 290.098 166.781C290.08 165.982 290.08 165.184 290.08 164.385C290.098 161.444 290.262 158.522 290.588 155.617C290.878 152.894 291.35 149.717 292.603 146.777C292.748 146.432 292.93 146.051 293.129 145.67C293.383 145.162 293.692 144.617 294.055 144.073C294.073 144.019 294.11 143.982 294.146 143.928C294.364 143.601 294.6 143.256 294.872 142.948C295.271 142.367 295.598 141.732 295.834 141.078C295.907 140.878 295.979 140.679 296.052 140.479C294.691 141.568 293.656 142.911 292.893 144.2C292.73 144.472 292.584 144.745 292.439 144.999C292.185 145.489 291.949 145.979 291.767 146.415C291.713 146.542 291.658 146.687 291.604 146.814C290.442 149.755 289.97 152.859 289.68 155.509C289.354 158.449 289.19 161.444 289.172 164.421Z" fill="#4B4B4B"/>
<path d="M289.172 164.421C289.172 165.22 289.172 166 289.19 166.799C289.208 167.053 289.353 167.271 289.662 167.253C289.916 167.235 290.116 167.035 290.098 166.781C290.08 165.982 290.08 165.184 290.08 164.385H289.59C289.445 164.403 289.318 164.403 289.172 164.421Z" fill="#E4E6E6"/>
<path d="M289.71 171.65C291.053 171.65 292.141 170.561 292.141 169.219C292.141 167.876 291.053 166.788 289.71 166.788C288.368 166.788 287.279 167.876 287.279 169.219C287.279 170.561 288.368 171.65 289.71 171.65Z" fill="#727373"/>
<path d="M313.653 140.529L313.629 140.558L313.537 140.578L313.653 140.529Z" fill="#323244"/>
<path d="M286.643 126.008C286.643 126.008 297.858 123.071 305.215 126.036C305.215 126.036 304.941 133.559 302.797 137.401C302.797 137.401 295.914 143.973 290.161 135.91C290.161 135.91 286.59 130.343 286.643 126.008Z" fill="#80CECF"/>
<path d="M303.494 128.124L303.823 128.734L307.477 123.825L306.931 124.022L303.494 128.124Z" fill="#80CECF"/>
<path d="M307.935 130.293L302.199 136.828L302.634 137.37L307.93 131.274C307.93 131.274 307.932 130.574 307.935 130.293Z" fill="#80CECF"/>
<path d="M296.415 129.832C297.598 129.743 298.792 129.566 299.994 129.298C300.105 129.275 300.175 129.164 300.15 129.053C300.125 128.944 300.016 128.875 299.906 128.899C296.473 129.66 293.11 129.686 289.91 128.976C289.8 128.951 289.691 129.021 289.667 129.132C289.642 129.241 289.71 129.349 289.821 129.375C291.958 129.85 294.165 130.002 296.415 129.832Z" fill="#5AC0C8"/>
<path d="M295.961 132.467C296.884 132.397 297.685 132.231 298.509 132.006C298.618 131.976 298.682 131.864 298.653 131.755C298.623 131.646 298.508 131.584 298.402 131.612C296.752 132.063 295.186 132.271 292.484 131.91C292.373 131.892 292.269 131.973 292.254 132.086C292.239 132.198 292.318 132.301 292.43 132.315C293.858 132.505 294.979 132.54 295.961 132.467Z" fill="#5AC0C8"/>
<path d="M295.94 134.956C297.396 134.846 298.83 134.5 300.047 133.93C300.148 133.882 300.192 133.759 300.145 133.658C300.097 133.556 299.973 133.512 299.872 133.56C297.41 134.715 294.024 134.917 291.446 134.061C291.339 134.026 291.222 134.083 291.188 134.192C291.152 134.298 291.21 134.414 291.317 134.449C292.713 134.913 294.34 135.076 295.94 134.956Z" fill="#5AC0C8"/>
<path d="M281.335 120.365C281.099 120.387 280.866 120.257 280.768 120.027C280.646 119.742 280.777 119.412 281.062 119.289C281.27 119.2 285.674 117.179 294.904 116.331C304.143 115.482 314.106 117.995 314.305 118.047C314.605 118.125 314.784 118.432 314.706 118.732C314.628 119.032 314.321 119.212 314.021 119.134C313.974 119.122 304.023 116.621 295.006 117.45C285.952 118.282 281.554 120.301 281.505 120.322C281.45 120.346 281.393 120.36 281.335 120.365Z" fill="#DAE9EE"/>
<path opacity="0.47" d="M309.861 143.454C309.861 143.454 309.182 143.877 307.128 144.417C305.812 144.763 303.934 145.154 301.313 145.512C300.082 145.682 298.686 145.842 297.105 145.987C293.25 146.341 290.465 146.404 288.492 146.342C287.572 146.316 286.83 146.261 286.239 146.198C285.526 146.118 285.031 146.031 284.705 145.956C284.343 145.875 284.192 145.813 284.192 145.813C284.124 145.797 284.056 145.778 283.991 145.759C283.208 145.537 282.663 145.185 282.651 144.427L282.307 120.206C282.296 119.467 282.853 118.846 283.587 118.779L305.527 116.762C306.261 116.695 306.925 117.203 307.049 117.932L311.123 141.81C311.262 142.62 310.599 143.159 309.861 143.454Z" fill="white"/>
<g opacity="0.54">
<path d="M286.281 118.531C286.264 119.342 286.206 120.158 286.175 120.958C286.123 122.288 286.062 123.616 286.001 124.948C285.775 129.784 285.492 134.619 285.17 139.451C285.025 141.622 284.87 143.791 284.702 145.957C284.34 145.876 284.189 145.814 284.189 145.814C284.121 145.798 284.053 145.779 283.988 145.76C284.348 140.969 284.682 136.174 284.969 131.377C285.115 128.934 285.254 126.495 285.387 124.05C285.448 122.858 285.503 121.66 285.573 120.467C285.608 119.847 285.622 119.216 285.657 118.59L286.281 118.531Z" fill="white"/>
<path d="M287.417 118.427C287.288 120.192 287.22 121.96 287.142 123.726C287.039 126.086 286.943 128.445 286.85 130.805L286.287 144.948C286.271 145.364 286.253 145.783 286.238 146.199C286.829 146.262 287.571 146.317 288.491 146.343C288.588 143.885 288.697 141.427 288.788 138.97C288.959 134.259 289.134 129.549 289.311 124.841C289.393 122.638 289.463 120.433 289.551 118.232L287.417 118.427Z" fill="white"/>
<path d="M307.128 144.417C305.812 144.763 303.934 145.154 301.313 145.512L298.219 117.434L302.987 116.996L307.128 144.417Z" fill="white"/>
</g>
<path d="M282.836 120.297C282.319 120.344 281.822 120.027 281.662 119.511C281.478 118.919 281.809 118.289 282.401 118.106C284.882 117.336 289.056 116.306 294.853 115.773C300.225 115.279 304.127 115.485 306.456 115.744C307.072 115.813 307.516 116.368 307.448 116.984C307.38 117.6 306.826 118.045 306.208 117.976C303.984 117.728 300.244 117.533 295.06 118.009C289.457 118.524 285.446 119.512 283.068 120.251C282.991 120.275 282.913 120.29 282.836 120.297Z" fill="black"/>
<path d="M128.523 361.671L135.634 387.576L136.372 390.236C137.19 393.166 139.748 395.277 142.787 395.491L166.392 397.149C168.724 397.313 170.459 394.711 169.159 392.771C169.143 392.77 169.127 392.752 169.112 392.735C168.271 391.553 160.43 388.262 156.344 386.258C154.94 385.565 153.987 385.036 153.922 384.784C153.868 384.615 153.749 383.963 153.569 382.993C152.773 378.579 150.932 367.654 150.932 367.654L128.523 361.671Z" fill="#FFAF99"/>
<path d="M135.633 387.576L136.371 390.236C137.189 393.166 139.747 395.277 142.786 395.491L166.391 397.149C168.723 397.313 170.458 394.711 169.158 392.771C169.142 392.77 169.126 392.752 169.111 392.735C168.27 391.553 160.429 388.262 156.343 386.258C156.343 386.258 155.742 385.176 155.386 384.375C155.116 383.762 154.611 382.95 153.568 382.993C153.253 383.004 152.884 383.094 152.457 383.295C150.648 384.142 149.2 388.53 149.2 388.53L135.633 387.576Z" fill="#F5F7F7"/>
<path d="M51.9677 344.351L39.1047 367.935L37.7897 370.362C36.3447 373.039 36.7217 376.335 38.7607 378.598L54.6017 396.177C56.1667 397.914 59.2217 397.245 59.6327 394.946C59.6217 394.934 59.6227 394.911 59.6237 394.887C59.8387 393.452 56.4787 385.641 54.9287 381.363C54.3987 379.89 54.0797 378.847 54.2087 378.62C54.2867 378.461 54.6537 377.909 55.1977 377.086C57.6887 373.356 63.9477 364.214 63.9477 364.214L51.9677 344.351Z" fill="#FFAF99"/>
<path d="M39.1047 367.934L37.7897 370.361C36.3447 373.038 36.7217 376.334 38.7607 378.597L54.6017 396.176C56.1667 397.913 59.2217 397.244 59.6327 394.945C59.6217 394.933 59.6227 394.91 59.6237 394.886C59.8387 393.451 56.4787 385.64 54.9287 381.362C54.9287 381.362 55.2477 380.166 55.5467 379.342C55.7777 378.713 55.9777 377.779 55.1977 377.085C54.9637 376.875 54.6357 376.683 54.1887 376.531C52.2987 375.885 48.2107 378.039 48.2107 378.039L39.1047 367.934Z" fill="#F5F7F7"/>
<path d="M124.846 219.108C124.846 219.108 135.887 267.55 139.581 291.333C143.275 315.116 150.933 367.653 150.933 367.653L124.856 365.821C124.856 365.821 111.722 320.74 105.38 302.342C99.0377 283.944 83.4317 244.674 83.7067 229.011C83.9817 213.348 85.1777 208.067 85.1777 208.067L124.846 219.108Z" fill="#FF6619"/>
<path d="M102.006 276.931C102.006 276.931 96.1583 303.824 92.0363 315.502C86.8843 330.097 63.3423 365.331 63.3423 365.331L41.8203 352.108C41.8203 352.108 58.6703 318.523 62.3283 298.764C65.9863 279.005 70.5183 225.814 75.4183 214.809C80.3183 203.804 91.8893 203.585 92.1703 205.462C92.4513 207.339 102.647 235.499 102.934 243.154C103.222 250.81 102.006 276.931 102.006 276.931Z" fill="#FF6619"/>
<path d="M83.1582 128.989C87.392 128.989 90.8242 125.557 90.8242 121.323C90.8242 117.089 87.392 113.657 83.1582 113.657C78.9244 113.657 75.4922 117.089 75.4922 121.323C75.4922 125.557 78.9244 128.989 83.1582 128.989Z" fill="#1E1F35"/>
<path d="M85.3267 123.621C84.6477 127.86 85.7067 132.424 87.4517 136.363C88.2077 138.064 90.4377 140.862 91.4397 142.434C92.0617 143.411 93.2637 144.498 94.2577 145.11C95.9387 146.15 97.9307 143.085 99.6647 142.763C101.942 142.341 104.895 142.602 106.52 141.012C111.517 136.132 114.898 131.324 115.308 123.032C115.596 117.198 112.978 113.806 108.486 112.438C104.179 111.127 98.7047 112.116 94.1717 112.593C89.5157 113.087 86.0017 119.41 85.3267 123.621Z" fill="#1E1F35"/>
<path d="M92.9662 135.203L92.3262 153.478L104.653 153.909L105.293 135.634L92.9662 135.203Z" fill="#FCA287"/>
<path d="M95.9835 145.29C94.4375 142.208 94.0555 138.886 93.9805 135.246L105.295 135.642L104.74 151.526C101.518 150.819 97.5475 148.407 95.9835 145.29Z" fill="#FB7961"/>
<path d="M85.251 132.132C85.11 135.183 86.674 138.689 89.345 140.04C92.965 141.873 94.485 138.501 94.592 135.164C94.676 132.469 93.654 127.796 90.671 126.746C87.859 125.754 85.365 129.633 85.251 132.132Z" fill="#FCA287"/>
<path d="M93.1248 137.085C94.3188 140.391 96.0078 143.129 99.0218 145.112C101.973 147.054 105.049 148.098 108.028 145.792C110.398 143.959 111.982 141.224 112.91 138.448C115.047 132.058 113.854 123.081 109.917 117.752C105.593 111.899 96.8508 112.896 93.2878 119.162C90.3828 124.262 91.1938 131.752 93.1248 137.085Z" fill="#FCA287"/>
<path d="M90.8513 134.663C91.0373 134.67 91.2123 134.553 91.2713 134.367C92.0503 131.89 91.5833 129.507 90.1613 128.699C89.9583 128.584 89.6993 128.655 89.5843 128.858C89.4693 129.062 89.5403 129.32 89.7433 129.436C90.7863 130.028 91.1023 132.082 90.4643 134.114C90.3943 134.337 90.5183 134.575 90.7413 134.645L90.8513 134.663Z" fill="#FB7961"/>
<path d="M88.8843 131.434L89.0553 131.405C89.6283 131.179 90.4203 131.055 90.8063 131.313C91.0013 131.443 91.2633 131.391 91.3933 131.196C91.5233 131.002 91.4703 130.739 91.2763 130.609C90.5913 130.151 89.5193 130.312 88.7453 130.617C88.5273 130.703 88.4203 130.949 88.5063 131.166C88.5693 131.327 88.7213 131.428 88.8843 131.434Z" fill="#FB7961"/>
<path d="M98.1388 132.695C98.1508 133.206 99.0998 133.597 100.257 133.567C101.414 133.536 102.339 133.096 102.325 132.586C102.313 132.074 101.362 131.686 100.208 131.717C99.0518 131.747 98.1248 132.185 98.1388 132.695Z" fill="#FB7961"/>
<path d="M108.44 133.049C108.452 133.56 109.401 133.949 110.558 133.92C111.714 133.889 112.641 133.45 112.629 132.939C112.617 132.428 111.667 132.04 110.51 132.071C109.354 132.098 108.425 132.538 108.44 133.049Z" fill="#FB7961"/>
<path d="M94.5744 131.442C93.3424 131.164 93.0414 131.16 92.7624 130.394C92.7244 130.298 92.4604 129.153 92.4604 129.153C91.9464 127.722 91.4664 127.403 90.0934 127.306C89.1124 127.238 88.1184 128.696 87.8044 129.678C87.7734 128.633 87.8464 127.133 87.8704 126.019C87.8944 124.962 87.9924 123.829 88.1614 122.75C88.5474 120.232 88.7954 118.855 90.0784 116.526C91.4584 114.021 93.5484 112.113 96.4414 111.487C99.9344 110.734 105.613 110.214 108.485 112.44C109.955 113.582 108.692 113.817 108.309 118.561C108.309 118.561 94.8454 114.831 94.5744 131.442Z" fill="#1E1F35"/>
<path d="M113.639 127.354C115.726 123.209 116.514 115.539 108.815 112.211C106.926 111.393 102.234 110.655 100.562 112.279C96.8614 115.875 104.556 117.871 106.629 118.21C109.931 118.753 111.852 121.13 113.639 127.354Z" fill="#1E1F35"/>
<path d="M105.985 138.977C106.659 139.003 107.313 138.765 107.845 138.256C108.014 138.095 108.02 137.827 107.858 137.657C107.697 137.488 107.429 137.483 107.259 137.644C106.376 138.488 105.225 138.125 104.478 137.391C104.311 137.227 104.043 137.23 103.879 137.397C103.715 137.564 103.718 137.832 103.885 137.996C104.521 138.619 105.264 138.949 105.985 138.977Z" fill="#FB7961"/>
<path d="M113.141 118.023C113.141 118.023 102.013 120.333 93.5711 117.351L92.6641 108.184C92.6641 108.184 100.469 103.384 114.461 108.194C114.461 108.194 114.484 113.627 113.141 118.023Z" fill="#EFEAE8"/>
<path d="M102.499 109.308L102.281 115.577L104.353 115.649L104.571 109.38L102.499 109.308Z" fill="#6FBACE"/>
<path d="M100.325 111.336L100.254 113.41L106.522 113.624L106.593 111.55L100.325 111.336Z" fill="#6FBACE"/>
<path d="M108.334 186.103C108.351 186.103 108.351 186.12 108.351 186.12C108.334 186.12 108.334 186.137 108.334 186.137C108.334 186.12 108.334 186.12 108.334 186.103Z" fill="#141414"/>
<path d="M105.097 206.696C105.724 206.696 106.233 206.187 106.233 205.56C106.233 204.932 105.724 204.424 105.097 204.424C104.47 204.424 103.961 204.932 103.961 205.56C103.961 206.187 104.47 206.696 105.097 206.696Z" fill="#D5D7D8"/>
<path d="M119.918 181.783H109.507C109.415 181.783 109.34 181.708 109.34 181.616V178.67C109.34 178.578 109.415 178.503 109.507 178.503H119.918C120.01 178.503 120.085 178.578 120.085 178.67V181.616C120.085 181.708 120.01 181.783 119.918 181.783Z" fill="#EAEBEC"/>
<path d="M105.688 149.449L124.713 159.754L106.931 176.052H82.9827L80.5957 152.032L94.8297 149.449H105.688Z" fill="#FFAF99"/>
<path d="M71.1406 158.929C71.1256 156.92 70.9916 154.347 72.2806 152.582C74.0176 150.204 80.4756 150.938 80.4756 150.938L98.2926 171.346L118.307 153.024C118.307 153.024 126.068 155.664 129.778 157.199C129.961 157.275 131.163 169.995 130.245 176.554C129.754 180.059 129.268 183.457 129.429 187.01C129.582 190.397 130.062 193.757 130.387 197.13C131.026 203.766 129.209 210.167 129.559 216.793C130.795 240.17 126.97 238.249 126.97 238.249C126.97 238.249 76.6276 236.725 74.2076 237.947C67.9256 241.12 68.1576 235.189 68.1006 228.834C68.0396 222.031 68.3026 215.228 68.6706 208.436C69.4186 194.626 70.6816 180.839 71.0536 167.01C71.1246 164.318 71.1606 161.623 71.1406 158.929Z" fill="#8CBFCB"/>
<path d="M122.35 190.414C122.346 191.549 123.02 192.901 123.387 193.981C123.773 195.115 124.194 196.238 124.622 197.359C125.463 199.562 126.293 201.77 127.171 203.961C128.522 207.33 130.748 210.273 135.023 209.745C136.347 209.582 131.61 210.486 134.694 210.751C135.948 210.859 138.604 210.162 139.558 209.14C139.971 208.698 140.189 208.107 140.308 207.515C140.628 205.931 140.65 204.311 140.413 202.715C140.042 200.227 139.144 197.814 138.454 195.435C137.787 193.135 137.225 190.744 136.318 188.511C136.584 188.299 136.513 187.808 136.087 187.847C132.933 188.131 129.784 188.466 126.644 188.862C125.444 189.011 122.355 188.768 122.35 190.414Z" fill="#FFAF99"/>
<path d="M139.188 197.194C136.883 197.473 134.562 197.374 132.25 197.547C130.002 197.715 127.77 198.036 125.529 198.269C123.99 198.429 122.439 198.552 120.889 198.557C120.587 197.561 120.399 196.504 120.231 195.61C119.384 191.101 119.319 186.46 119.256 181.887C119.184 176.666 119.044 171.389 119.731 166.2C120.151 163.026 121.436 160.07 123.454 157.587C123.788 157.176 124.139 156.778 124.504 156.394C124.696 156.192 124.891 155.994 125.09 155.799C125.261 155.631 124.477 154.753 124.477 154.753C124.477 154.753 127.337 155.573 128.705 156.369C130.822 157.601 132.451 160.116 133.476 161.915C135.598 165.638 140.295 177.473 141.475 179.125C142.617 180.724 143.397 182.524 144.011 184.382C144.57 186.074 144.992 187.806 145.484 189.518C145.751 190.45 146.035 191.379 146.373 192.287C146.726 193.237 147.51 194.299 147.725 195.28C147.73 195.303 147.731 195.323 147.734 195.345C144.894 195.923 142.137 196.838 139.188 197.194Z" fill="#8CBFCB"/>
<path d="M120.905 184.78C121.35 182.412 121.848 180.108 122.732 177.859C123.638 175.553 124.146 173.208 124.864 170.847C125.534 168.644 126.457 166.559 127.445 164.485C127.562 164.24 127.985 164.414 127.888 164.672C127.067 166.868 126.172 169.055 125.532 171.313C124.83 173.791 124.205 176.179 123.291 178.594C122.474 180.751 122.056 182.993 121.629 185.252C121.235 187.337 120.928 189.745 119.701 191.53C119.588 191.694 119.351 191.591 119.386 191.397C119.786 189.178 120.488 187.006 120.905 184.78Z" fill="#2F3F4F"/>
<path d="M80.447 197.334C76.739 197.334 73.226 196.623 69.582 196.049C66.376 195.544 63.419 196.215 60.223 196.244C57.888 196.265 55.613 195.714 53.373 195.062C53.612 194.286 53.846 193.508 54.069 192.727C54.755 190.331 55.38 187.917 55.943 185.489C56.528 182.968 57.047 180.431 57.498 177.882C57.86 175.837 58.098 173.737 58.955 171.824C60.022 169.438 61.681 167.356 62.811 164.991C63.955 162.596 64.899 160.097 66.275 157.819C68.796 153.646 72.741 151.579 77.768 150.572C77.956 150.534 77.394 152.441 77.767 153.334C78.119 154.179 78.311 155.075 78.407 155.983C78.632 158.115 78.295 160.255 78.077 162.373C77.559 167.41 77.872 172.494 79.073 177.416C80.166 181.894 81.896 186.225 82.422 190.83C82.69 193.176 82.432 195.667 80.99 197.333H80.447V197.334Z" fill="#8CBFCB"/>
<path d="M65.2511 170.893C67.4981 173.512 68.6541 176.984 70.7471 179.725C70.2541 177.51 70.7381 175.246 70.1351 173.016C69.3811 170.228 68.0851 167.587 67.1831 164.844C67.0711 164.504 67.6231 164.259 67.7711 164.596C68.8681 167.087 69.9531 169.673 70.7601 172.275C71.0961 173.358 71.3041 174.443 71.3191 175.576C71.3391 177.039 71.1561 178.396 71.5871 179.831C72.3301 182.302 73.2311 184.513 73.5921 187.095C73.9561 189.697 74.3451 192.268 74.8231 194.852C74.8721 195.115 74.4821 195.334 74.3541 195.05C73.3941 192.924 73.2401 190.53 72.9461 188.242C72.6061 185.595 71.9141 183.272 71.0531 180.773C70.9981 180.784 70.9371 180.773 70.8761 180.726C70.7651 180.641 70.6541 180.555 70.5431 180.47C70.4991 180.436 70.4781 180.389 70.4691 180.339C69.3661 179.199 68.6301 177.588 67.8181 176.267C66.8011 174.614 65.5451 172.947 64.8151 171.148C64.7171 170.906 65.0871 170.702 65.2511 170.893Z" fill="#2F3F4F"/>
<path d="M108.017 197.483L86.0414 182.95C84.9434 182.224 84.6424 180.746 85.3684 179.648L107.041 146.875C107.767 145.777 109.245 145.476 110.343 146.202L132.319 160.735C133.417 161.461 133.718 162.939 132.992 164.037L111.319 196.81C110.593 197.907 109.115 198.209 108.017 197.483Z" fill="#F79787"/>
<g opacity="0.15">
<path d="M132.319 160.735L132.143 160.618C132.082 160.775 132.007 160.929 131.91 161.075L110.237 193.848C109.511 194.946 108.033 195.247 106.935 194.521L85.1364 180.105C84.7414 181.127 85.0914 182.32 86.0424 182.95L108.018 197.483C109.116 198.209 110.594 197.908 111.32 196.81L132.993 164.037C133.718 162.939 133.417 161.461 132.319 160.735Z" fill="#070707"/>
</g>
<path d="M123.774 161.121C123.69 161.121 123.606 161.097 123.531 161.048L113.495 154.411C113.397 154.346 113.329 154.246 113.306 154.131C113.282 154.016 113.306 153.897 113.37 153.799L116.477 149.101C116.611 148.897 116.886 148.841 117.089 148.976L127.125 155.613C127.223 155.678 127.291 155.778 127.314 155.893C127.338 156.008 127.314 156.127 127.25 156.225L124.143 160.923C124.058 161.052 123.917 161.121 123.774 161.121ZM114.35 153.918L123.649 160.067L126.268 156.107L116.969 149.958L114.35 153.918Z" fill="#001F33"/>
<path d="M100.021 136.924C101.77 139.553 105.45 139.903 106.914 137.739C107.117 137.438 107.358 137.141 107.235 136.769C107.061 136.247 106.628 136.56 106.323 136.575C104.266 136.674 102.195 136.53 100.021 136.924Z" fill="#FCFAFA"/>
<path d="M97.9523 127.076C98.8863 127.046 99.8953 127.035 100.9 126.975C101.51 126.938 102.195 126.881 102.146 126.014C102.096 125.124 101.365 125.212 100.783 125.22C99.7763 125.234 98.7713 125.343 97.7633 125.368C97.0983 125.385 96.4713 125.481 96.5073 126.297C96.5463 127.176 97.2893 127.035 97.9523 127.076Z" fill="#2E2127"/>
<path d="M107.43 126.898C108.184 126.878 108.941 126.891 109.691 126.824C110.235 126.776 110.681 126.498 110.612 125.864C110.556 125.345 110.181 125.066 109.665 125.074C108.911 125.085 108.157 125.12 107.406 125.186C106.847 125.235 106.426 125.505 106.47 126.141C106.51 126.708 106.94 126.859 107.43 126.898Z" fill="#2E2127"/>
<path d="M105.511 131.616C104.936 132.078 105.025 132.552 105.116 132.974C105.335 133.984 105.267 134.712 103.932 134.552C103.688 134.523 103.391 134.673 103.369 134.955C103.335 135.391 103.732 135.356 104.01 135.409C105.219 135.64 106.069 134.865 105.954 133.645C105.893 132.996 105.871 132.338 105.511 131.616Z" fill="#2E2127"/>
<path d="M98.5957 130.43C98.6437 130.992 98.9567 131.399 99.5187 131.404C100.073 131.408 100.432 131.062 100.432 130.44C100.432 129.887 100.128 129.588 99.6247 129.549C99.0407 129.502 98.6997 129.837 98.5957 130.43Z" fill="#2E2127"/>
<path d="M107.106 130.345C107.07 130.988 107.406 131.278 107.99 131.313C108.528 131.345 108.847 131.024 108.907 130.537C108.978 129.966 108.667 129.563 108.088 129.501C107.497 129.437 107.172 129.776 107.106 130.345Z" fill="#2E2127"/>
<path d="M114.111 133.265C114.111 133.265 102.896 130.328 95.5391 133.293C95.5391 133.293 95.8131 140.816 97.9571 144.658C97.9571 144.658 104.84 151.23 110.593 143.167C110.593 143.167 114.163 137.601 114.111 133.265Z" fill="#80CECF"/>
<path d="M97.2603 135.381L96.9313 135.991L93.2773 131.082L93.8233 131.279L97.2603 135.381Z" fill="#80CECF"/>
<path d="M92.8184 137.55L98.5544 144.085L98.1194 144.627L92.8234 138.531C92.8234 138.531 92.8224 137.832 92.8184 137.55Z" fill="#80CECF"/>
<path d="M104.34 137.089C103.157 137 101.963 136.823 100.761 136.555C100.65 136.532 100.58 136.421 100.605 136.31C100.63 136.201 100.739 136.132 100.849 136.156C104.282 136.917 107.645 136.943 110.845 136.233C110.955 136.208 111.064 136.278 111.088 136.389C111.113 136.498 111.045 136.606 110.934 136.632C108.797 137.107 106.59 137.259 104.34 137.089Z" fill="#FF6619"/>
<path d="M104.793 139.724C103.87 139.654 103.069 139.488 102.245 139.263C102.136 139.233 102.072 139.121 102.101 139.012C102.131 138.903 102.246 138.841 102.352 138.869C104.002 139.32 105.568 139.528 108.27 139.167C108.381 139.149 108.485 139.23 108.5 139.343C108.515 139.455 108.436 139.558 108.324 139.572C106.896 139.762 105.776 139.797 104.793 139.724Z" fill="#FF6619"/>
<path d="M104.812 142.213C103.356 142.103 101.922 141.757 100.705 141.187C100.604 141.139 100.56 141.016 100.607 140.915C100.655 140.813 100.779 140.769 100.88 140.817C103.342 141.972 106.728 142.174 109.306 141.318C109.413 141.283 109.53 141.34 109.564 141.449C109.6 141.555 109.542 141.671 109.435 141.706C108.039 142.17 106.412 142.333 104.812 142.213Z" fill="#FF6619"/>
<path d="M139.315 198.781C138.213 197.845 136.991 197.012 135.889 196.118C130.209 191.513 124.529 186.909 118.849 182.304C118.124 181.716 117.398 181.128 116.673 180.54L107.125 191.273C111.025 195.035 114.968 198.755 118.953 202.428C121.648 204.912 124.355 207.392 127.166 209.744C130.006 212.121 132.836 213.921 136.804 213.285C141.948 212.46 144.041 207.215 142.258 202.587C141.657 201.03 140.562 199.84 139.315 198.781Z" fill="#FFAF99"/>
<path d="M114.463 173.361C115.806 174.7 119.533 179.412 121.993 182.918C125.133 186.31 124.929 191.604 121.537 194.744C118.186 197.846 112.98 197.678 109.827 194.402L109.813 194.415C109.813 194.415 103.768 188.825 99.615 183.487C94.345 176.711 96.676 175.37 96.676 175.37C96.676 175.37 95.035 172.333 97.087 171.39C97.087 171.39 95.959 168.613 98.195 168.396C98.195 168.396 98.58 163.604 101.849 168.28C104.765 172.45 110.139 176.976 111.697 176.878C113.255 176.78 110.056 173.841 110.059 171.857C110.061 169.875 113.12 172.022 114.463 173.361Z" fill="#FF6619"/>
<path d="M97.9607 168.526C98.5067 170.161 99.5657 171.607 100.64 172.934C101.677 174.215 102.812 175.427 104.031 176.537C104.324 176.804 104.763 176.369 104.468 176.1C103.296 175.032 102.202 173.869 101.197 172.643C100.148 171.364 99.0867 169.947 98.5577 168.362C98.4317 167.986 97.8347 168.147 97.9607 168.526Z" fill="#6D3333"/>
<path d="M96.7374 171.673C98.0184 174.405 100.167 176.722 102.423 178.684C102.722 178.944 103.161 178.509 102.86 178.247C100.639 176.315 98.5324 174.051 97.2714 171.361C97.1024 171.002 96.5694 171.315 96.7374 171.673Z" fill="#6D3333"/>
<path d="M96.3328 175.36C96.8048 176.371 97.3678 177.322 98.0888 178.175C98.8748 179.103 99.7918 179.915 100.683 180.739C100.975 181.009 101.413 180.573 101.12 180.302C100.245 179.493 99.3448 178.696 98.5688 177.788C97.8638 176.963 97.3238 176.028 96.8658 175.048C96.6988 174.688 96.1658 175.002 96.3328 175.36Z" fill="#6D3333"/>
<path d="M64.3181 206.435C65.7921 206.086 67.2531 205.573 68.6921 205.198C76.1031 203.265 83.5141 201.332 90.9261 199.398C91.8731 199.151 92.8191 198.904 93.7661 198.657L90.6391 183.938C85.0431 184.893 79.4571 185.91 73.8851 186.992C70.1161 187.724 66.3441 188.468 62.6131 189.379C58.8441 190.299 55.5691 191.569 53.6421 195.312C51.1441 200.164 54.2701 205.187 59.2811 206.555C60.9671 207.015 62.6511 206.83 64.3181 206.435Z" fill="#FFAF99"/>
<path d="M95.6689 179.517C94.2779 180.33 90.2039 183.404 87.4309 185.759C84.1229 187.874 83.1559 192.27 85.2709 195.578C87.3609 198.847 91.6759 199.824 94.9699 197.807L94.9789 197.821C94.9789 197.821 101.147 194.522 105.704 191.024C111.489 186.584 109.86 184.982 109.86 184.982C109.86 184.982 111.86 182.837 110.376 181.622C110.376 181.622 111.899 179.581 110.107 178.923C110.107 178.923 110.818 174.901 107.128 178.045C103.837 180.848 98.4489 183.416 97.1899 183.002C95.9309 182.587 99.1899 180.857 99.6129 179.226C100.035 177.595 97.0599 178.704 95.6689 179.517Z" fill="#5EA8A6"/>
<path d="M109.815 178.816C109.036 180.009 107.858 180.95 106.716 181.778C105.63 182.567 104.485 183.286 103.297 183.91C102.998 184.067 103.263 184.521 103.562 184.363C104.806 183.709 106.003 182.954 107.133 182.12C108.296 181.261 109.47 180.303 110.268 179.08C110.454 178.797 109.999 178.533 109.815 178.816Z" fill="#6D3333"/>
<path d="M110.228 181.558C108.612 183.499 106.398 184.907 104.157 186.021C103.854 186.171 104.12 186.624 104.422 186.474C106.698 185.343 108.958 183.9 110.599 181.929C110.814 181.671 110.445 181.298 110.228 181.558Z" fill="#6D3333"/>
<path d="M109.771 184.675C109.185 185.383 108.541 186.036 107.784 186.563C106.951 187.142 106.041 187.605 105.148 188.083C104.85 188.242 105.115 188.696 105.413 188.536C106.322 188.05 107.25 187.579 108.095 186.984C108.871 186.437 109.538 185.776 110.142 185.047C110.356 184.788 109.987 184.415 109.771 184.675Z" fill="#6D3333"/>
<path d="M109.576 239.65L92.0352 315.502" stroke="#1E1F35" stroke-width="0.9838" stroke-miterlimit="10"/>
<path d="M410.212 140.886L408.381 143.719L414.659 149.397C414.659 149.397 426.613 146.869 426.234 142.85C425.496 139.761 423.99 137.568 423.816 134.989C423.751 134.031 423.765 133.01 423.885 131.852L411.417 132.238L410.212 140.886Z" fill="#FCA287"/>
<path d="M423.885 131.852L411.417 132.238L410.212 140.886L409.361 142.203C411.632 143.146 414.448 143.371 417.311 142.652C420.442 141.865 422.993 140.111 424.522 137.954C424.165 136.973 423.885 136.011 423.816 134.989C423.751 134.031 423.765 133.01 423.885 131.852Z" fill="#DB7963"/>
<path d="M426.784 121.586C428.115 115.637 427.989 111.677 420.456 109.61C410.139 106.779 407.277 110.232 405.719 113.454C404.684 115.596 403.533 124.047 404.102 129.842C404.389 132.77 405.512 138.961 408.069 139.428C410.484 139.869 421.923 137.275 424.623 130.287C426.4 129.05 428.783 126.026 427.97 123.28C427.638 122.155 427.223 121.678 426.784 121.586Z" fill="#FCA287"/>
<path d="M424.286 123.242C422.979 125.387 421.364 127.354 419.391 128.893C419.044 130.443 425.111 123.341 424.286 123.242Z" fill="white"/>
<path d="M424.473 130.251C423.332 132.686 421.141 134.674 418.541 136.152C418.825 136.74 421.18 134.716 421.6 134.411C422.342 133.863 425.114 130.67 424.473 130.251Z" fill="white"/>
<path d="M419.717 128.826C419.717 128.826 418.364 132.651 419.418 135.746C419.418 135.746 413.448 142.046 405.983 138.621C403.251 131.881 403.49 126.492 403.49 126.492C403.49 126.492 406.392 123.558 410.256 123.246C412.906 123.032 415.702 128.337 419.717 128.826Z" fill="white"/>
<path d="M417.858 130.401C415.392 129.537 409.869 125.323 409.869 125.323L404.451 127.954L409.571 126.081C409.571 126.081 416.147 130.634 417.858 130.401Z" fill="#474EBB"/>
<path d="M415.954 133.824C412.151 134.599 404.729 132.821 404.729 132.821C404.729 132.821 407.394 135.545 415.954 133.824Z" fill="#474EBB"/>
<path d="M416.675 131.45C412.033 131.953 404.777 130.31 404.777 130.31C404.777 130.31 407.641 133.074 416.675 131.45Z" fill="#474EBB"/>
<path d="M416.297 135.404C406.636 139.994 404.918 135.448 404.918 135.448C404.918 135.448 407.331 138.861 416.297 135.404Z" fill="#474EBB"/>
<path d="M421.975 115.969C423.348 118.785 423.081 124.343 423.081 124.343L424.088 123.948L426.785 121.586L428.119 115.257L421.975 115.969Z" fill="#5C595C"/>
<path d="M427.058 119.606C418.472 116.624 410.175 116.115 403.633 120.333L402.987 119.92C401.922 119.239 401.357 117.995 401.546 116.746L401.906 114.365C402.223 112.264 403.322 110.36 404.982 109.033L409.029 105.8C412.666 102.895 417.708 102.506 421.748 104.818L426.874 107.753C428.482 108.673 429.601 110.257 429.932 112.079C430.143 113.242 430.022 114.442 429.582 115.538L428.92 117.188C428.534 118.151 427.89 118.988 427.058 119.606Z" fill="#29ADC6"/>
<path d="M424.582 116.118C423.977 116.159 423.317 116.156 422.624 116.088C421.932 116.014 421.208 115.88 420.475 115.675C419.007 115.271 417.517 114.56 416.192 113.61C415.53 113.132 414.91 112.61 414.347 112.019C413.789 111.427 413.292 110.749 412.997 109.99C412.69 109.241 412.632 108.398 412.815 107.69C412.992 106.975 413.419 106.368 413.946 106.06C413.139 106.991 413.125 108.483 413.784 109.627C414.435 110.801 415.648 111.776 416.865 112.671C418.097 113.553 419.431 114.296 420.761 114.857C421.425 115.14 422.085 115.383 422.726 115.593C423.369 115.798 423.992 115.966 424.582 116.118Z" fill="#1BA5BA"/>
<path d="M426.035 113.057C424.616 113.351 422.67 113.342 420.809 112.891C418.945 112.454 417.204 111.584 416.07 110.682C417.431 111.183 419.173 111.798 420.969 112.22C422.762 112.652 424.594 112.889 426.035 113.057Z" fill="#1BA5BA"/>
<path d="M403.083 117.034C403.071 116.453 403.157 115.774 403.372 115.08C403.585 114.386 403.925 113.679 404.367 113.042C404.81 112.406 405.354 111.841 405.931 111.399C406.507 110.956 407.114 110.639 407.662 110.447C406.733 111.146 405.651 112.151 404.821 113.357C403.98 114.555 403.415 115.92 403.083 117.034Z" fill="#1BA5BA"/>
<path d="M417.212 119.467C416.278 119.437 415.269 119.426 414.264 119.366C413.654 119.329 412.969 119.272 413.018 118.405C413.068 117.515 413.799 117.603 414.381 117.611C415.388 117.625 416.393 117.734 417.401 117.759C418.066 117.776 418.693 117.872 418.657 118.688C418.618 119.566 417.875 119.426 417.212 119.467Z" fill="#2E2127"/>
<path d="M407.734 119.289C406.98 119.269 406.223 119.282 405.473 119.215C404.929 119.167 404.483 118.889 404.552 118.255C404.608 117.736 404.983 117.457 405.499 117.465C406.253 117.476 407.007 117.511 407.758 117.577C408.317 117.626 408.738 117.896 408.694 118.532C408.654 119.099 408.224 119.25 407.734 119.289Z" fill="#2E2127"/>
<path d="M416.568 122.821C416.52 123.383 416.207 123.79 415.645 123.795C415.091 123.799 414.732 123.453 414.732 122.831C414.732 122.278 415.036 121.979 415.539 121.94C416.123 121.893 416.464 122.227 416.568 122.821Z" fill="#2E2127"/>
<path d="M408.057 122.735C408.093 123.378 407.757 123.668 407.173 123.703C406.635 123.735 406.316 123.414 406.256 122.927C406.185 122.356 406.496 121.953 407.075 121.891C407.666 121.828 407.991 122.167 408.057 122.735Z" fill="#2E2127"/>
<path d="M383.984 377.226H451.037C451.037 377.226 449.841 262.665 447.367 246.762C445.847 236.995 442.699 227.502 440.495 221.638C439.119 217.948 438.111 215.693 438.111 215.693H398.869C398.869 215.693 397.574 217.877 395.874 221.638C392.879 228.25 388.661 239.725 388.112 252.727C387.456 268.135 383.984 377.226 383.984 377.226Z" fill="#69B5B5"/>
<path d="M395.875 220.981H440.496C439.12 217.698 438.112 215.692 438.112 215.692H398.87C398.87 215.692 397.575 217.635 395.875 220.981Z" fill="#2F3F4F"/>
<path d="M429.631 215.693L429.873 220.981L429.981 223.248L430.881 223.212L430.773 220.981L430.53 215.693H429.631Z" fill="#4663AB"/>
<path d="M398.879 223.212L399.779 223.248L399.886 220.981L400.129 215.693H399.23L398.987 220.981L398.879 223.212Z" fill="#4663AB"/>
<path d="M412.295 376.214C412.542 376.214 412.742 375.977 412.745 375.682L413.712 258.85C413.715 258.554 413.515 258.311 413.267 258.308C412.996 258.279 412.815 258.543 412.813 258.84L411.846 375.672C411.843 375.968 412.043 376.211 412.291 376.214C412.291 376.214 412.293 376.214 412.295 376.214Z" fill="#2F3F4F"/>
<path d="M438.332 169C438.332 169 443.342 189.308 448.758 198.635C448.758 198.635 456.674 204.599 463.079 200.795C463.079 200.795 461.645 180.422 453.907 165.638C453.907 165.638 444.106 157.792 438.332 169Z" fill="#FCA287"/>
<path d="M368.238 193.77C368.992 189.243 371.821 182.884 372.994 180.433C382.279 161.046 388.422 149.399 392.99 146.581C393.67 145.684 409.236 140.564 406.015 154.498C405.167 159.256 387.156 190.349 379.762 195.597C379.762 195.597 374.229 197.654 368.238 193.77Z" fill="#FCA287"/>
<path d="M410.115 153.552L396.437 189.243C387.907 189.243 376.786 181.276 372.383 176.773C381.136 159.787 389.029 149.056 389.029 149.056C389.029 149.056 393.658 140.839 403.402 144.225C403.402 144.225 411.262 146.254 410.115 153.552Z" fill="#474EBB"/>
<path d="M389.768 189.178L389.738 155.661C389.902 147.659 396.207 144.025 396.207 144.025L408.445 139.56L414.329 149.672L427.317 139.56L442.648 145.869C442.648 145.869 448.243 149.666 446.892 156.017L442.423 187.874C444.112 195.57 443.417 204.591 443.884 212.439C444.236 218.373 444.589 224.307 444.941 230.241C445.061 232.255 446.792 244.239 447.105 246.231C400.134 255.838 385.039 241.502 385.039 241.502C385.829 227.226 387.232 218.052 387.551 212.989C388.094 204.393 389.226 197.774 389.768 189.178Z" fill="#474EBB"/>
<path d="M368.238 193.77C370.658 208.222 378.731 216.133 390.94 228.185L394.235 224.143C390.184 219.162 382.201 196.516 383.077 190.992C383.077 190.992 372.438 183.793 368.238 193.77Z" fill="#FCA287"/>
<path d="M463.079 200.795C457.219 212.807 450.923 218.543 435.253 228.394L433.113 224.746C435.998 221.949 448.478 208.415 448.947 196.406C448.947 196.406 461.219 188.548 463.079 200.795Z" fill="#FCA287"/>
<path d="M426.871 236.577L429.411 235.042C429.411 235.042 425.391 238.92 423.008 238.253C423.008 238.253 422.482 238.232 422.776 237.344C422.776 237.344 426.856 234.842 428.389 233.277C428.389 233.277 424.833 236.607 421.736 237.977C421.736 237.977 420.161 237.874 421.011 236.487C419.872 236.657 420.318 235.589 420.318 235.589C420.318 235.589 420.89 234.641 422.506 232.916C422.506 232.916 424.979 230.243 427.51 226.765C427.51 226.765 423.784 226.531 423.989 224.521L429.43 224.351L434.604 224.638L436.563 226.917L434.173 231.895C434.173 231.895 431.217 235.61 429.089 236.913C429.089 236.913 422.74 240.227 426.871 236.577Z" fill="#FCA287"/>
<path d="M442.423 187.873C449.243 187.219 456.708 183.786 462.294 179.284C457.186 164.424 453.107 147.672 441.884 145.554C441.884 145.554 429.856 151.554 435.425 167.704C435.425 167.704 439.306 177.788 442.423 187.873Z" fill="#474EBB"/>
<path d="M399.89 236.369L397.35 234.834C397.35 234.834 401.37 238.712 403.753 238.045C403.753 238.045 404.279 238.024 403.986 237.136C403.986 237.136 399.906 234.634 398.373 233.069C398.373 233.069 401.929 236.399 405.026 237.768C405.026 237.768 406.601 237.666 405.751 236.279C406.89 236.449 406.444 235.381 406.444 235.381C406.444 235.381 405.872 234.433 404.256 232.708C404.256 232.708 401.783 230.035 399.252 226.557C399.252 226.557 402.978 226.323 402.773 224.314L397.332 224.144L392.158 224.431L390.199 226.71L392.588 231.688C392.588 231.688 395.545 235.403 397.672 236.706C397.672 236.706 404.02 240.019 399.89 236.369Z" fill="#FCA287"/>
<path d="M436.521 233.861C437.038 231.357 437.541 228.85 438.033 226.341C432.799 226.104 427.182 224.91 423.088 222.041C422.616 224.497 421.493 226.889 420.812 229.232C420.182 231.398 419.561 233.57 418.91 235.729C418.764 236.214 418.732 236.6 418.788 236.938C418.917 237.713 419.509 238.228 420.25 239.075C420.89 239.808 421.564 240.514 422.244 241.215C423.347 242.354 424.608 244.255 425.954 245.09C426.996 245.737 429.985 243.87 430.9 243.432C432.137 242.839 433.583 242.276 434.659 241.44C435.489 240.795 435.492 238.769 435.697 237.807C435.973 236.493 436.249 235.177 436.521 233.861Z" fill="white"/>
<path d="M407.963 227.822C406.834 225.528 405.691 223.241 404.539 220.958C400.262 223.985 395.096 226.492 390.102 226.741C391.237 228.969 391.82 231.547 392.721 233.814C393.554 235.91 394.397 238.006 395.209 240.11C395.391 240.582 395.603 240.907 395.855 241.139C396.432 241.671 397.216 241.714 398.321 241.928C399.277 242.113 400.242 242.257 401.209 242.393C402.779 242.614 404.941 243.341 406.516 243.173C407.735 243.044 408.949 239.735 409.402 238.828C410.015 237.6 410.81 236.268 411.146 234.948C411.405 233.929 410.164 232.328 409.734 231.443C409.147 230.235 408.557 229.028 407.963 227.822Z" fill="white"/>
<path d="M386.339 377.226L372.766 386.082C370.832 387.344 371.726 390.349 374.036 390.349H410.497C411.799 390.349 412.847 389.278 412.819 387.976L412.585 377.225H386.339V377.226Z" fill="#1E1F35"/>
<path d="M419.242 377.226L405.669 386.082C403.735 387.344 404.628 390.349 406.938 390.349H443.4C444.702 390.349 445.75 389.278 445.722 387.976L445.488 377.225H419.242V377.226Z" fill="#1E1F35"/>
</svg>
