<svg width="469" height="347" viewBox="0 0 469 347" fill="none" xmlns="http://www.w3.org/2000/svg">
<path opacity="0.5" d="M446.701 288.632H65.7292C53.6789 288.632 43.8195 293.062 43.8195 298.476C43.8195 302.225 48.5489 305.5 55.4577 307.161H21.9097C9.85939 307.161 0 311.591 0 317.005C0 322.42 9.85939 326.849 21.9097 326.849H33.5996C30.3349 328.569 28.3538 330.795 28.3538 333.219V337.156C28.3538 342.57 38.2132 347 50.2636 347H425.565C437.615 347 447.475 342.57 447.475 337.156V333.219C447.475 327.804 437.615 323.375 425.565 323.375L400.046 323.593C401.99 323.593 405.146 322.905 407.264 321.519C410.976 319.091 411.141 315.394 409.326 312.334C408.149 310.351 406.264 308.778 401.593 308.187L446.701 308.32C458.751 308.32 468.611 303.89 468.611 298.476C468.611 293.062 458.751 288.632 446.701 288.632Z" fill="#EED5D5"/>
<path d="M169.99 108.778C183.865 94.9032 183.865 72.4073 169.99 58.5323C156.115 44.6573 133.619 44.6573 119.744 58.5323C105.869 72.4073 105.869 94.9032 119.744 108.778C133.619 122.653 156.115 122.653 169.99 108.778Z" fill="#353A85"/>
<path d="M166.644 105.429C178.669 93.4035 178.669 73.907 166.644 61.882C154.619 49.8569 135.123 49.8569 123.098 61.882C111.072 73.907 111.072 93.4035 123.098 105.429C135.123 117.454 154.619 117.454 166.644 105.429Z" fill="#F7F7F7"/>
<g opacity="0.07">
<path d="M166 61.458C170.547 66.8245 173.292 73.7674 173.292 81.3524C173.292 98.3584 159.505 112.145 142.499 112.145C134.317 112.145 126.881 108.952 121.367 103.747C127.015 110.413 135.447 114.645 144.868 114.645C161.874 114.645 175.661 100.859 175.661 83.8529C175.661 75.0281 171.948 67.0719 166 61.458Z" fill="#394860"/>
</g>
<path d="M142.685 83.7556L142.645 84.7117C142.629 85.1066 142.935 85.4398 143.33 85.4563L172.555 86.6797C172.95 86.6962 173.283 86.3896 173.3 85.9951L173.34 85.039C173.356 84.6446 173.05 84.3109 172.655 84.2944L143.43 83.071C143.035 83.0541 142.702 83.3607 142.685 83.7556Z" fill="#D67086"/>
<path d="M146.056 81.6064V66.483C146.056 65.8288 145.526 65.2988 144.872 65.2988C144.218 65.2988 143.688 65.8288 143.688 66.483V81.6064C142.981 82.016 142.504 82.7792 142.504 83.6555C142.504 84.9639 143.564 86.0243 144.873 86.0243C146.181 86.0243 147.242 84.9639 147.242 83.6555C147.241 82.7792 146.764 82.016 146.056 81.6064Z" fill="#292949"/>
<path d="M173.379 115.187C176.838 116.133 179.561 119.335 179.941 122.901C181.831 121.14 182.796 118.436 182.448 115.876C182.1 113.316 180.448 110.968 178.156 109.775C176.011 110.914 174.349 112.927 173.637 115.248L173.379 115.187Z" fill="#8C6654"/>
<path d="M418.474 77.1064L406.901 79.7527C406.427 79.2062 405.7 78.9292 404.976 79.0947L374.431 86.0787C373.706 86.2442 373.172 86.8097 372.983 87.5078L361.41 90.1541L364.237 102.517L375.684 99.8996C376.136 100.615 376.969 101.008 377.8 100.818L408.346 93.8338C409.177 93.6437 409.757 92.9275 409.853 92.0875L421.3 89.4699L418.474 77.1064Z" fill="#FF6619"/>
<g opacity="0.12">
<path d="M365.293 89.6109L368.044 101.648L372.427 100.646L366.541 89.2832L365.293 89.6109Z" fill="black"/>
</g>
<path d="M367.959 118.084L363.355 119.137C361.454 119.572 359.561 118.383 359.127 116.482L350.804 80.0846C350.37 78.1837 351.558 76.2909 353.459 75.8563L358.063 74.8035C359.964 74.3689 361.857 75.5573 362.291 77.4582L370.613 113.856C371.048 115.757 369.859 117.65 367.959 118.084Z" fill="#FF6619"/>
<path d="M356.553 120.694L351.949 121.747C350.048 122.181 348.155 120.993 347.72 119.092L339.398 82.694C338.964 80.7931 340.152 78.9002 342.053 78.4657L346.657 77.4128C348.558 76.9783 350.45 78.1667 350.885 80.0675L359.207 116.465C359.641 118.366 358.453 120.259 356.553 120.694Z" fill="#FF6619"/>
<path d="M344.456 107.308L343.188 107.201C342.265 107.124 341.41 106.193 341.128 104.958L339.602 98.2858C339.32 97.0509 339.686 95.8406 340.483 95.3697L341.579 94.7223C342.676 94.0744 344.09 95.0753 344.479 96.7739L346.177 104.2C346.565 105.899 345.725 107.415 344.456 107.308Z" fill="#FF6619"/>
<path d="M424.068 105.256L426.824 104.626C429.235 104.075 430.743 101.673 430.192 99.262L422.292 64.7126C421.741 62.3016 419.339 60.7939 416.928 61.345L414.173 61.9751C411.762 62.5263 410.254 64.928 410.805 67.3391L418.705 101.888C419.256 104.3 421.657 105.808 424.068 105.256Z" fill="#FF6619"/>
<path d="M435.475 102.648L438.23 102.018C440.641 101.466 442.149 99.0646 441.598 96.6536L433.698 62.1042C433.147 59.6932 430.746 58.1855 428.335 58.7366L425.579 59.3667C423.168 59.9179 421.66 62.3196 422.211 64.7307L430.111 99.28C430.662 101.691 433.064 103.199 435.475 102.648Z" fill="#FF6619"/>
<path d="M439.627 85.5494L440.723 84.902C441.52 84.4311 441.885 83.2207 441.603 81.9858L440.078 75.314C439.795 74.0791 438.94 73.1479 438.018 73.0702L436.749 72.9633C435.48 72.8565 434.641 74.373 435.029 76.0716L436.727 83.4977C437.115 85.1963 438.53 86.1972 439.627 85.5494Z" fill="#FF6619"/>
<path d="M132.935 119.652L134.532 113.962L132.13 113.174L130.174 116.828L129.211 115.928L128.438 120.963L130.824 122.12L132.935 119.652Z" fill="#C1796B"/>
<path d="M91.8477 145.04L114.766 142.093L128.128 119.17L132.745 121.707L122.969 152.268L95.7381 162.177L91.8477 145.04Z" fill="#8CABEF"/>
<path d="M97.7031 202.863V210.717L108.175 244.752L106.348 281.673L110.923 282.517L122.575 238.206L122.174 225.497L117.339 199.576L97.7031 202.863Z" fill="#BABCBE"/>
<path d="M106.012 212.162L95.2225 285.986L90.8802 286.415L87.6858 244.888L81.1406 205.617L106.012 212.162Z" fill="#BABCBE"/>
<path d="M111.022 282.302L116.018 287.59L114.575 290.271L104.266 285.322L106.164 281.404L111.022 282.302Z" fill="#292949"/>
<path d="M95.3969 285.838L101.556 289.71L100.828 292.666L89.6094 290.45L90.4692 286.182L95.3969 285.838Z" fill="#292949"/>
<path d="M112.13 124.15C107.888 124.462 103.921 120.979 99.746 121.843C97.0313 122.406 94.888 124.814 94.0599 127.527C93.6739 128.792 93.537 130.17 93.915 131.428C94.1604 132.244 94.6127 132.98 95.1452 133.634C95.8573 134.508 96.7281 135.234 97.6944 135.792C97.1635 136.647 96.5549 137.455 95.8788 138.201C97.835 138.95 99.7916 139.699 101.748 140.448C102.18 139.324 102.612 138.2 103.045 137.076C103.633 137.043 104.219 136.959 104.794 136.811C108.267 135.909 111.147 132.867 111.922 129.281C112.284 127.601 112.214 125.863 112.13 124.15Z" fill="#C1796B"/>
<path d="M111.058 125.43L97.9414 123.872L95.3956 133.891L91.6914 130.951L93.6003 114.557L112.112 114.158L120.127 118.86L119.788 123.572L112.62 128.397L111.058 125.43Z" fill="#292949"/>
<path d="M105.974 142L90.3938 135.819C90.3938 135.819 83.1159 151.199 76.8216 173.229C70.5273 195.26 78.8543 225.853 78.8543 225.853C78.8543 225.853 122.299 216.985 129.426 215.586L115.365 171.525L105.974 142Z" fill="#8CABEF"/>
<path d="M408.579 139.389C410.487 139.306 412.396 139.223 414.305 139.14C414.407 137.62 414.389 136.092 414.248 134.575C414.265 134.759 417.32 133.149 417.59 132.784C418.368 131.732 418.459 129.966 418.782 128.715C419.472 126.05 420.12 123.049 418.712 120.684C417.253 118.235 414.097 117.396 411.248 117.322C407.67 117.229 403.675 118.271 401.835 121.342C400.173 124.115 402.27 128.204 402.868 131.137C403.163 132.583 403.613 134.233 404.957 134.843C405.67 135.168 406.536 135.132 407.172 135.589C408.295 136.394 408.042 138.116 408.579 139.389Z" fill="#EFBFA5"/>
<path d="M396.192 116.039C395.979 114.062 395.767 112.084 395.554 110.106C395.475 109.372 395.399 108.609 395.636 107.91C396.031 106.747 397.213 106.02 398.399 105.699C399.585 105.378 400.833 105.366 402.033 105.102C403.314 104.82 404.559 104.249 405.869 104.307C408.361 104.417 410.268 106.728 412.73 107.121C416.14 107.666 419.271 106.104 421.33 110.117C421.708 110.854 421.813 111.703 422.146 112.461C422.577 113.441 423.361 114.214 423.975 115.092C426.671 118.95 425.799 124.805 422.531 128.074C420.947 129.66 420.299 131.093 418.116 131.602C419.116 129.57 417.796 121.476 415.059 120.568C414.334 120.327 412.157 121.214 411.354 121.331C409.576 121.591 407.846 121.877 406.173 122.569C403.69 123.598 400.994 124.327 398.307 124.527C397.963 124.553 397.579 124.566 397.319 124.339C397.075 124.126 397.024 123.771 396.99 123.449C396.723 120.978 396.457 118.509 396.192 116.039Z" fill="#292949"/>
<path d="M438.901 285.299L439.669 288.523L433.988 293.282L429.996 290.826L432.453 286.834L438.134 282.074L438.901 285.299Z" fill="#292949"/>
<path d="M425.863 185.557L428.194 195.349L425.238 240.89L438.992 284.179L432.901 286.98L405.343 237.004L402.071 221.039L400.406 187.286L425.863 185.557Z" fill="#BABCBE"/>
<path d="M387.693 189.44L387.203 231.744L395.175 286.29H401.305L405.177 235.96L413.565 185.63L387.693 189.44Z" fill="#BABCBE"/>
<path d="M401.263 285.561V288.875L394.635 292.189L391.32 288.875L394.635 285.561H401.263Z" fill="#292949"/>
<path d="M433.15 197.531C433.235 201.391 433.114 206.592 431.631 206.783C431.353 206.818 431.086 206.681 430.844 206.548C428.28 205.148 426.465 203.178 423.938 201.826C421.289 200.408 418.259 199.655 415.287 199.127C410.842 198.315 406.3 197.812 401.772 197.733C398.213 197.671 394.636 197.974 391.092 198.269C388.143 198.514 385.399 199.388 382.395 199.18C379.316 198.967 376.283 198.023 373.651 196.406C373.555 196.347 373.453 196.279 373.413 196.174C373.369 196.058 373.412 195.929 373.454 195.813C374.083 194.089 374.535 192.383 375.677 190.955C376.952 189.362 377.859 187.337 378.781 185.522C380.702 181.741 382.511 177.779 383.854 173.75C385.883 168.275 388.201 162.942 390.163 157.449C391.522 153.641 392.762 149.766 394.607 146.156C396.051 143.33 398.626 139.201 401.727 137.956C402.777 137.535 403.935 137.497 405.065 137.465C408.494 137.366 411.924 137.268 415.353 137.169C416.603 137.133 417.904 137.107 419.044 137.622C420.751 138.394 421.717 140.188 422.561 141.861C426.345 149.365 428.758 157.455 430.11 165.798C430.816 170.155 431.468 174.519 431.976 178.901C432.543 183.79 432.932 188.701 433.015 193.62C433.024 194.166 433.11 195.697 433.15 197.531Z" fill="#5254CF"/>
<path d="M410.271 156.141C410.142 158.084 410.419 160.029 410.696 161.958C412.379 173.703 414.063 185.449 415.746 197.195C406.538 197.115 397.33 197.035 388.121 196.955C388.454 192.554 388.788 188.153 389.121 183.752C389.335 180.931 389.55 178.1 390.146 175.331C391.106 170.865 393.034 166.662 394.948 162.498C398.484 154.804 402.02 147.111 405.556 139.418C405.745 139.006 405.944 138.581 406.293 138.285C406.71 137.93 407.28 137.811 407.825 137.717C410.457 137.259 413.43 136.873 416.075 137.261C416.736 139.669 414.297 143.856 413.392 146.096C412.077 149.355 410.507 152.591 410.271 156.141Z" fill="white"/>
<path d="M393.092 151.498L380.129 132.204L376.812 101.756L382.239 100.55L389.474 128.285L402.136 139.439L393.092 151.498Z" fill="#5254CF"/>
<path d="M382.241 100.549V98.573L383.146 96.6303L382.844 95.123H381.337L380.734 98.4391L376.223 99.5135L376.815 101.755L382.241 100.549Z" fill="#EFBFA5"/>
<path d="M399.809 174.679L397.012 175.792L394.591 174.703L394.099 175.099L394.562 175.724L392.294 175.396L390.706 176.365L390.527 178.834L391.949 180.959L394.419 180.877L396.914 179.323L400.808 177.965L399.809 174.679Z" fill="#EFBFA5"/>
<path d="M396.582 173.938L412.686 167.174L414.494 147.88L425.649 152.703L423.077 174.179L398.702 179.413L396.582 173.938Z" fill="#5254CF"/>
<path d="M238.805 207.524L240.937 236.701L247.997 285.005H253.425L256.854 240.434L258.373 204.373L238.805 207.524Z" fill="#BABCBE"/>
<path d="M253.391 284.358V287.294L247.521 290.229L244.586 287.294L247.521 284.358H253.391Z" fill="#292949"/>
<path d="M277.249 200.648L275.185 241.546L270.461 288.496H264.901L260.383 244.013L253.781 197.192L277.249 200.648Z" fill="#BABCBE"/>
<path d="M264.938 287.834V290.84L270.95 293.847L273.956 290.84L270.95 287.834H264.938Z" fill="#292949"/>
<path d="M258.299 135.074C260.195 134.888 262.092 134.703 263.989 134.517C264.009 132.998 263.908 131.476 263.687 129.973C265.268 129.419 267.096 128.588 267.374 126.936C267.461 126.415 267.372 125.883 267.282 125.363C266.914 123.212 266.545 121.062 266.177 118.912C266.049 118.168 265.914 117.402 265.51 116.764C264.802 115.646 263.425 115.155 262.121 114.927C258.793 114.344 255.164 115.06 252.58 117.237C251.892 117.817 251.27 118.514 250.965 119.36C250.497 120.665 250.844 122.106 251.194 123.447C251.518 124.686 251.841 125.924 252.164 127.162C252.537 128.587 253.074 130.206 254.445 130.742C255.173 131.026 256.033 130.944 256.692 131.365C257.854 132.106 257.695 133.835 258.299 135.074Z" fill="#EFBFA5"/>
<path d="M239.77 113.582C239.733 112.108 239.94 110.616 240.235 109.272C240.741 106.962 243.466 105.924 245.825 105.76C250.92 105.406 255.837 103.096 260.813 104.879C263.657 105.898 267.477 106.143 270.051 107.58C271.126 108.18 271.982 109.116 272.65 110.151C274.963 113.734 274.969 118.67 272.665 122.258C272.148 123.064 271.53 123.799 270.881 124.502C269.536 125.956 267.928 127.752 266.081 128.289C266.039 126.636 267.551 121.429 266.284 120.073C264.273 117.922 259.72 118.665 257.221 119.191C254.496 119.765 252.065 121.691 249.363 122.099C247.419 122.393 244.939 121.437 243.288 120.43C240.701 118.852 239.837 116.245 239.77 113.582Z" fill="#292949"/>
<path d="M291.21 107.748L292.311 104.321L290.816 101.521L291.249 100.903L292.031 101.405L291.456 98.725L292.484 96.7523L295.415 96.3389L298.066 97.863L298.168 100.817L296.515 103.918L295.211 108.674L291.21 107.748Z" fill="#EFBFA5"/>
<path d="M291.055 105.22L296.482 105.521L291.055 132.352L275.576 148.317L266.598 134.906L282.915 124.212L291.055 105.22Z" fill="#FF6619"/>
<path d="M233.343 97.7635L233.159 94.1691L235.322 91.8464L235.063 91.1377L234.178 91.4215L235.422 88.9796L234.935 86.8093L232.209 85.6572L229.255 86.4499L228.398 89.2782L229.199 92.7003L229.238 97.6318L233.343 97.7635Z" fill="#EFBFA5"/>
<path d="M234.142 95.3596L228.82 94.2578L228.398 114.733L230.489 130.557L244.098 150.53L255.24 134.41L242.303 124.903L234.142 95.3596Z" fill="#FF6619"/>
<path d="M253.801 133.61L271.778 134.372L280.853 168.913L288.347 216.797L230.488 218.204L244.097 150.529L253.801 133.61Z" fill="#FF6619"/>
<path d="M208.02 143.265L210.21 141.2L210.247 138.546L210.813 138.268L211.184 138.952L211.845 136.757L213.394 135.728L215.707 136.608L217.033 138.795L215.915 140.999L213.452 142.603L210.576 145.56L208.02 143.265Z" fill="#EFBFA5"/>
<path d="M208.713 140.026L196.447 154.563L180.432 139.05L177.941 157.596L197.436 167.261L212.779 144.261L208.713 140.026Z" fill="#D67086"/>
<path d="M160.273 285.602L160.008 288.224L164.771 291.493L167.551 289.195L165.302 286.25L160.539 282.98L160.273 285.602Z" fill="#3B3387"/>
<path d="M160.393 205.444L159.586 213.407L166.729 240.763L160.096 284.723L164.978 286.405L177.852 243.487L179.895 231.002L179.821 204.57L160.393 205.444Z" fill="#EFBFA5"/>
<path d="M197.941 214.319L187.672 287.98H183.004L182.164 240.763L173.668 207.622L197.941 214.319Z" fill="#EFBFA5"/>
<path d="M183.027 287.397V290.044L188.075 292.69L190.599 290.044L188.075 287.397H183.027Z" fill="#3B3387"/>
<path d="M186.47 138.701C186.1 138.097 185.606 137.582 184.928 137.199C180.291 134.582 172.604 136.887 167.572 136.887C166.085 152.544 161.974 167.467 159.318 182.84C156.498 199.167 153.323 215.433 149.795 231.622C149.595 232.539 163.8 232.076 165.139 232.098C178.805 232.329 196.693 232.282 209.878 228.15C201.463 205.559 198.391 181.251 191.764 158.072C190.601 154.003 189.219 149.994 188.172 145.892C187.565 143.514 187.658 140.644 186.47 138.701Z" fill="#7ABE4C"/>
<path d="M187.307 120.232C185.519 110.796 173.73 112.427 170.348 120.068C168.425 124.414 170.44 130.565 174.287 133.589C174.369 134.424 174.478 136.729 175.117 137.288C175.809 137.892 177.987 137.316 178.841 137.118C179.078 137.063 179.326 136.995 179.497 136.823C179.712 136.608 179.748 136.032 179.752 135.393C180.379 135.35 181.021 135.228 181.675 135.013C184.417 134.113 186.403 131.574 187.224 128.807C188.045 126.041 187.844 123.068 187.307 120.232Z" fill="#EFBFA5"/>
<path d="M169.875 157.69C169.987 157.684 170.078 157.675 170.144 157.664C172.224 157.307 175.561 156.635 176.527 154.444C177.516 152.199 175.758 148.125 175.468 145.792C175.027 142.246 174.88 138.669 174.71 135.102C174.556 131.886 175.705 128.717 177.387 125.972C179.069 123.227 181.271 120.843 183.438 118.462C184.339 117.472 185.272 116.413 185.547 115.102C185.852 113.653 185.273 112.123 184.316 110.991C182.845 109.251 181.1 108.384 178.878 108.332C171.08 108.145 165.219 112.758 163.006 120.373C159.837 131.286 163.797 141.698 163.207 152.557C163.106 154.411 162.493 156.235 161.453 157.773C161.729 157.365 168.193 157.786 169.875 157.69Z" fill="#292949"/>
<path d="M154.121 199.242C153.496 200.024 152.371 200.271 151.389 200.073C150.408 199.876 149.544 199.306 148.754 198.689C147.802 197.945 146.918 197.116 146.114 196.214C145.652 195.696 145.208 195.137 144.993 194.477C144.778 193.817 144.831 193.031 145.287 192.508C145.599 192.149 146.054 191.953 146.494 191.77C146.805 191.641 147.138 191.508 147.47 191.571C147.748 191.624 147.981 191.807 148.201 191.985C149.716 193.204 156.101 196.762 154.121 199.242Z" fill="#D67086"/>
<path d="M151.053 199.247C151.177 199.282 151.304 199.308 151.435 199.324C151.842 199.375 152.461 199.367 152.836 199.177C152.836 199.177 153.942 198.403 153.457 198.413L152.453 198.436L154.492 196.286L154.654 193.887L152.181 191.855L148.876 191.77C147.886 193.273 146.471 194.665 147.64 196.504C147.987 197.049 148.48 197.483 148.966 197.908C149.593 198.457 150.265 199.026 151.053 199.247Z" fill="#EFBFA5"/>
<path d="M315.382 138.278C315.289 138.313 315.197 138.348 315.105 138.383C310.71 140.093 307.26 147.763 305.282 152.271C300.178 163.906 297.948 176.031 297.542 188.889C297.324 195.813 297.406 202.748 297.626 209.677C297.686 211.591 299.346 228.727 298.497 229.136C307.201 224.939 316.052 220.973 325.318 218.577C334.583 216.181 344.331 215.393 353.691 217.576C350.844 195.823 346.718 173.691 340.769 152.672C340.057 150.158 339.582 147.479 338.527 145.096C337.312 142.353 335.489 141.542 333.185 139.92C332.396 139.365 331.601 138.805 330.734 138.418C326.161 136.375 320.011 136.562 315.382 138.278Z" fill="#3B3387"/>
<path d="M302 206.745L311.976 247.234L312.208 278.367L316.965 279.253L318.935 250.369L323.69 199.539L302 206.745Z" fill="#C1796B"/>
<path d="M317.104 278.961L317.887 281.988L317.2 287.927L313.275 287.934L311.805 279.35L312.26 277.914L317.104 278.961Z" fill="#3B3387"/>
<path d="M340.078 202.273L340.958 237.258L336.288 286.671L331.506 287.021L329.788 241.722L320.051 200.655L340.078 202.273Z" fill="#C1796B"/>
<path d="M336.144 285.846L342.585 289.265L342.073 292.274L330.695 290.88L331.243 286.551L336.144 285.846Z" fill="#3B3387"/>
<path d="M341.484 206.787L344.725 247.208L341.428 274.929L328.476 274.195L326.168 242.679L320.566 208.319L321.436 202.97L340.103 203.243L341.484 206.787Z" fill="#474EBB"/>
<path d="M321.845 244.266L320.324 273.259L309.065 272.682L309.295 245.185L302.195 210.655L303.815 201.003L322.75 202.182L321.845 244.266Z" fill="#474EBB"/>
<path d="M348.134 207.509C336.546 209.278 317.263 210.629 305.675 212.399C305.05 191.446 307.114 167.25 312.169 146.974C313.086 143.296 314.44 139.326 317.653 137.453C321.096 135.446 328.398 135.718 330.499 139.617C333.573 145.321 334.18 154.4 335.551 160.748C338.654 175.111 346.212 192.937 348.134 207.509Z" fill="white"/>
<path d="M315.612 122.601C317.338 114.054 328.023 115.663 331.01 122.637C332.978 127.231 330.122 133.966 325.498 135.919C325.781 137.087 326.014 138.268 326.196 139.456C324.887 139.529 323.577 139.602 322.268 139.676C321.863 139.699 321.387 139.69 321.144 139.365C320.997 139.167 320.981 138.906 320.971 138.66C320.935 137.832 320.9 137.004 320.864 136.176C320.765 136.146 320.665 136.115 320.565 136.081C318.085 135.234 316.31 132.908 315.595 130.387C314.879 127.866 315.094 125.169 315.612 122.601Z" fill="#C1796B"/>
<path d="M316.684 124.939C315.331 127.514 316.168 130.632 316.914 133.302C317.575 135.669 317.693 137.176 315.002 137.345C313.486 137.44 310.791 137.64 309.692 136.311C308.86 135.305 309.834 132.776 310.477 131.813C310.967 131.079 311.988 130.832 312.459 130.084C312.653 129.775 312.733 129.41 312.797 129.052C313.057 127.587 313.095 126.083 312.908 124.607C312.782 123.605 312.551 122.603 312.628 121.596C312.74 120.135 314.033 118.623 314.785 117.388C316.184 115.089 320.19 112.354 322.776 114.762C323.365 115.31 323.628 116.117 323.83 116.895C323.952 117.36 324.06 117.843 323.988 118.317C323.701 120.211 321.923 120.248 320.584 120.952C318.932 121.821 317.547 123.296 316.684 124.939Z" fill="#292949"/>
<path d="M330.337 127.63C330.225 128.986 329.28 130.359 329.831 131.602C330.077 132.156 330.577 132.547 330.98 132.999C332.081 134.236 332.455 136.076 331.925 137.644C334.622 137.98 337.319 138.316 340.016 138.651C340.422 138.702 340.85 138.75 341.23 138.597C342.042 138.27 342.251 137.237 342.345 136.367C342.529 134.651 342.688 132.809 341.848 131.303C341.458 130.604 340.876 130.028 340.489 129.329C338.626 125.963 341.783 121.107 339.329 118.144C338.235 116.822 336.396 116.437 334.937 115.533C332.393 113.956 331.063 110.835 328.423 109.427C323.435 106.768 317.265 112.37 319.624 117.588C321.549 121.843 330.784 122.169 330.337 127.63Z" fill="#292949"/>
<path d="M315.709 138.904C315.709 138.904 312.023 190.93 320.1 201.188C328.179 211.447 331.634 215.312 331.634 215.312L298.527 229.134C298.527 229.134 299.246 153.271 315.709 138.904Z" fill="#3B3387"/>
<path d="M350.108 170.758C350.89 171.385 351.134 172.51 350.934 173.492C350.734 174.473 350.162 175.336 349.544 176.124C348.798 177.074 347.967 177.957 347.063 178.758C346.543 179.219 345.984 179.662 345.323 179.876C344.663 180.089 343.877 180.035 343.354 179.578C342.996 179.265 342.802 178.809 342.62 178.369C342.491 178.057 342.359 177.723 342.423 177.392C342.476 177.114 342.66 176.882 342.838 176.662C344.061 175.15 347.633 168.773 350.108 170.758Z" fill="#898F92"/>
<path d="M350.108 173.829C350.143 173.705 350.169 173.578 350.186 173.447C350.237 173.04 350.231 172.421 350.042 172.045C350.042 172.045 349.269 170.938 349.279 171.422L349.299 172.427L347.154 170.383L344.755 170.216L342.717 172.684L342.625 175.989C344.127 176.983 345.516 178.4 347.357 177.235C347.903 176.889 348.338 176.397 348.764 175.912C349.314 175.287 349.885 174.616 350.108 173.829Z" fill="#DDC8AC"/>
<path d="M388.305 160.823C387.248 162.471 385.401 163.564 383.298 163.564C381.998 163.564 380.795 163.145 379.817 162.437C379.112 163.454 377.939 164.121 376.608 164.121C375.229 164.121 374.019 163.404 373.325 162.324C372.659 162.642 371.913 162.821 371.126 162.821C368.303 162.821 366.015 160.533 366.015 157.71C366.015 156.718 366.299 155.792 366.789 155.008C364.595 154.879 362.856 153.06 362.856 150.834C362.856 150.754 362.859 150.675 362.863 150.596C360.335 151.52 358.128 152.85 356.309 154.21C353.102 156.61 349.035 157.703 345.047 157.314C339.5 156.774 331.949 157.577 326.316 164.038C318.764 172.7 320.019 183.936 324.688 193.164C328.142 199.993 332.982 206.693 339.283 211.523C345.38 216.198 355.577 220.089 363.137 215.157C365.441 213.654 368.18 212.86 370.924 213.034C384.056 213.867 389.267 198.855 391.038 189.272C392.755 179.979 392.883 169.277 388.305 160.823Z" fill="#CB3A3B"/>
<path d="M354.283 154.959C356.293 153.308 357.861 150.661 358.904 147.877C359.947 145.094 360.514 142.159 360.975 139.259C361.295 137.25 361.57 135.221 361.521 133.274C359.479 134.084 357.449 135.051 355.443 136.167C353.181 137.426 350.91 138.91 348.977 141.114C347.044 143.317 345.474 146.346 345.165 149.418C344.515 155.883 350.142 158.36 354.283 154.959Z" fill="#292949"/>
<path d="M292.472 0.0116838C281.106 0.281126 267.561 7.7896 265.191 17.7678C260.793 8.50248 242.881 4.40299 231.709 6.50869C202.226 12.0643 195.654 46.2877 210.612 67.2606C218.663 78.5485 229.52 88.0157 241.152 96.3181C250.893 103.27 275.637 117.586 275.701 117.522C275.777 117.571 296.994 98.4133 305.072 89.5833C314.718 79.0388 323.364 67.5166 328.886 54.7987C339.144 31.1685 322.465 -0.699085 292.472 0.0116838Z" fill="#CB3A3A"/>
<g opacity="0.12">
<path d="M323.397 58.2259C316.929 67.9604 309.232 77.2697 300.676 85.4687C292.401 93.3974 282.485 100.59 271.079 103.846C265.601 105.409 260.122 105.85 254.824 105.206C265.08 111.527 276.178 117.925 276.221 117.882C276.297 117.932 297.514 98.7739 305.592 89.944C315.239 79.3995 323.885 67.8772 329.406 55.1594C331.192 51.0443 332.16 46.6792 332.384 42.2803C329.847 47.8013 326.788 53.123 323.397 58.2259Z" fill="black"/>
</g>
<path d="M321.913 48.8527C314.147 49.8709 306.381 50.8887 298.614 51.9069C294.719 41.981 290.824 32.0548 286.929 22.1289C286.366 20.6939 284.182 21.0364 283.862 22.452C279.708 40.8822 275.555 59.3123 271.401 77.7425C271.16 78.8101 270.92 79.8773 270.679 80.9449C265.345 69.6626 260.011 58.3803 254.678 47.0979C253.822 45.2883 252.967 43.479 252.111 41.6694C251.596 40.5785 249.68 40.3264 249.168 41.6183C246.788 47.6237 244.407 53.6287 242.027 59.6341C233.312 60.5523 224.598 61.4704 215.883 62.3885C213.837 62.6043 214.149 65.5977 216.199 65.3819C225.241 64.4292 234.284 63.4764 243.327 62.5237C243.856 62.4679 244.428 62.1267 244.621 61.6376C246.661 56.4912 248.701 51.3452 250.741 46.1988C256.213 57.7738 261.685 69.3484 267.157 80.9234C268.013 82.7331 268.868 84.5423 269.723 86.3519C270.365 87.7093 272.455 87.5121 272.79 86.0289C276.943 67.5987 281.097 49.1686 285.251 30.7384C285.45 29.8566 285.649 28.9752 285.847 28.0938C289.252 36.7704 292.657 45.4466 296.062 54.1232C296.298 54.7259 297.025 55.1503 297.71 55.0604C305.883 53.9889 314.055 52.9179 322.227 51.8465C324.265 51.5792 323.958 48.5849 321.913 48.8527Z" fill="white"/>
<path d="M159.33 195.97L126.107 199.746C113.821 201.142 102.661 191.743 101.179 178.751C99.6975 165.759 108.456 154.095 120.743 152.699L153.881 148.933L159.33 195.97Z" fill="#F7F7F7"/>
<path d="M160.502 195.837L225.062 188.5C234.94 187.377 242.037 178.457 240.911 168.579L239.624 157.293C238.498 147.42 229.584 140.329 219.711 141.451L155.137 148.789L160.502 195.837Z" fill="#5528A9"/>
<path d="M170.352 162.739L172.11 162.539L173.868 177.957L172.11 178.157L171.316 171.187L164.564 171.954L165.359 178.924L163.602 179.124L161.844 163.706L163.601 163.506L164.396 170.476L171.148 169.708L170.352 162.739Z" fill="white"/>
<path d="M176.344 162.059L184.093 161.178L184.262 162.656L178.27 163.337L178.882 168.702L184.454 168.069L184.623 169.547L179.05 170.181L179.691 175.799L186.083 175.072L186.251 176.551L178.102 177.477L176.344 162.059Z" fill="white"/>
<path d="M190.507 160.449L192.844 160.184L199.376 175.059L197.638 175.257L195.69 170.772L190.137 171.403L189.249 176.21L187.512 176.408L190.507 160.449ZM191.873 161.963L190.408 169.874L195.062 169.345L191.873 161.963Z" fill="white"/>
<path d="M201.832 174.78L200.074 159.362L201.832 159.162L203.422 173.102L208.854 172.484L209.023 173.962L201.832 174.78Z" fill="white"/>
<path d="M206.794 160.095L206.625 158.617L216.212 157.527L216.381 159.006L212.466 159.451L214.055 173.39L212.298 173.59L210.708 159.65L206.794 160.095Z" fill="white"/>
<path d="M226.974 156.304L228.732 156.104L230.49 171.522L228.732 171.722L227.937 164.752L221.186 165.52L221.981 172.489L220.223 172.689L218.465 157.271L220.223 157.072L221.017 164.041L227.768 163.274L226.974 156.304Z" fill="white"/>
<path d="M143.996 169.993C141.182 170.313 138.368 170.632 135.555 170.952C135.291 170.982 135.027 171.012 134.764 171.042C134.517 168.876 134.27 166.709 134.023 164.542C133.899 163.455 133.775 162.368 133.651 161.28C133.609 160.918 133.284 160.643 132.941 160.682C131.192 160.881 129.443 161.08 127.695 161.279C127.352 161.318 127.096 161.658 127.137 162.021C127.476 164.996 127.816 167.971 128.155 170.947C128.187 171.225 128.218 171.504 128.25 171.783C126.201 172.016 124.152 172.249 122.103 172.481C121.075 172.598 120.047 172.715 119.019 172.832C118.676 172.871 118.42 173.211 118.461 173.574C118.672 175.423 118.883 177.272 119.094 179.121C119.117 179.327 119.208 179.475 119.329 179.57C119.445 179.679 119.605 179.742 119.804 179.72C122.618 179.4 125.431 179.081 128.245 178.76C128.509 178.73 128.772 178.7 129.036 178.67C129.283 180.837 129.53 183.004 129.777 185.171C129.901 186.258 130.025 187.345 130.149 188.432C130.191 188.795 130.516 189.07 130.86 189.03C132.608 188.832 134.357 188.633 136.106 188.434C136.3 188.412 136.439 188.319 136.527 188.191C136.629 188.07 136.687 187.903 136.663 187.692C136.324 184.717 135.984 181.742 135.645 178.766C135.613 178.488 135.582 178.209 135.549 177.93C137.599 177.697 139.648 177.464 141.697 177.232C142.725 177.115 143.753 176.998 144.781 176.881C145.123 176.842 145.38 176.502 145.338 176.139C145.128 174.29 144.917 172.441 144.706 170.591C144.665 170.229 144.339 169.954 143.996 169.993Z" fill="#3B3387"/>
<path d="M319.481 179.173C319.509 179.3 319.546 179.424 319.594 179.547C319.741 179.929 320.04 180.472 320.384 180.713C320.384 180.713 321.589 181.323 321.351 180.901L320.857 180.025L323.715 180.81L325.907 179.821L326.533 176.683L325.05 173.727C323.257 173.563 321.362 172.973 320.292 174.87C319.974 175.433 319.825 176.073 319.678 176.702C319.49 177.513 319.305 178.374 319.481 179.173Z" fill="#C1796B"/>
<path d="M321.142 173.511L310.869 166.844L302.957 174.311L319.588 179.547L321.142 173.511Z" fill="#3B3387"/>
</svg>
