<svg width="54" height="40" viewBox="0 0 54 40" fill="none" xmlns="http://www.w3.org/2000/svg">
<g opacity="0.2">
<path d="M45.7025 39.0932H18.0947C8.64385 39.0932 0.955072 31.793 0.955072 22.8201V6.95214H28.5629C38.0137 6.95214 45.7025 14.2523 45.7025 23.2253V39.0932ZM28.5629 6.04535H0V22.8201C0 32.2931 8.11719 40 18.0947 40H46.6576V23.2253C46.6576 13.7523 38.5404 6.04535 28.5629 6.04535Z" fill="white"/>
<path d="M45.9095 38.8982H18.3017C8.85088 38.8982 1.16214 31.598 1.16214 22.6251V6.75713H28.77C38.2208 6.75713 45.9095 14.0573 45.9095 23.0302L45.9095 38.8982ZM28.77 5.85034H0.207031V22.6251C0.207031 32.098 8.32422 39.805 18.3017 39.805H46.8646V23.0302C46.8646 13.5572 38.7474 5.85034 28.77 5.85034Z" fill="#FFF7F7"/>
<path d="M46.1126 38.7032H18.5048C9.05397 38.7032 1.36519 31.403 1.36519 22.4301V6.56212H28.9731C38.4238 6.56212 46.1126 13.8623 46.1126 22.8352V38.7032ZM28.9731 5.65533H0.410156V22.4301C0.410156 31.9031 8.52734 39.61 18.5048 39.61H47.0678V22.8353C47.0677 13.3622 38.9505 5.65533 28.9731 5.65533Z" fill="#FFEFEF"/>
<path d="M46.3197 38.5082H18.7118C9.26104 38.5082 1.57226 31.208 1.57226 22.2351V6.36712H29.1801C38.6309 6.36712 46.3197 13.6673 46.3197 22.6402V38.5082ZM29.1801 5.46033H0.617188V22.2351C0.617188 31.7081 8.73438 39.415 18.7118 39.415H47.2748V22.6403C47.2748 13.1672 39.1576 5.46033 29.1801 5.46033Z" fill="#FFE6E6"/>
<path d="M46.5228 38.3132H18.9149C9.46413 38.3132 1.77535 31.0131 1.77535 22.0401V6.17217H29.3832C38.834 6.17217 46.5228 13.4723 46.5228 22.4453V38.3132ZM29.3833 5.26538H0.820312V22.0401C0.820312 31.5131 8.9375 39.22 18.915 39.22H47.4779V22.4453C47.4779 12.9723 39.3607 5.26538 29.3833 5.26538Z" fill="#FFDEDE"/>
<path d="M46.7298 38.1181H19.122C9.67119 38.1181 1.98242 30.8179 1.98242 21.845V5.97708H29.5903C39.0411 5.97708 46.7298 13.2772 46.7298 22.2502V38.1181ZM29.5903 5.07025H1.02734V21.845C1.02734 31.318 9.14453 39.0249 19.122 39.0249H47.6849V22.2502C47.6849 12.7772 39.5677 5.07025 29.5903 5.07025Z" fill="#FFD6D6"/>
<path d="M46.9369 37.9232H19.329C9.87823 37.9232 2.18945 30.623 2.18945 21.65V5.7821H29.7973C39.2481 5.7821 46.9369 13.0822 46.9369 22.0552V37.9232ZM29.7973 4.87531H1.23438V21.65C1.23438 31.123 9.35156 38.8299 19.329 38.8299H47.892V22.0552C47.8919 12.5822 39.7747 4.87531 29.7973 4.87531Z" fill="#FFCECE"/>
<path d="M47.14 37.7281H19.5321C10.0813 37.7281 2.39261 30.4279 2.39261 21.455V5.58706H30.0005C39.4512 5.58706 47.14 12.8872 47.14 21.8601L47.14 37.7281ZM30.0004 4.68024H1.4375V21.455C1.4375 30.928 9.55469 38.6349 19.5321 38.6349H48.0951V21.8601C48.0951 12.3872 39.9779 4.68024 30.0004 4.68024Z" fill="#FFC5C5"/>
<path d="M47.347 37.5331H19.7392C10.2884 37.5331 2.5996 30.233 2.5996 21.2601V5.39212H30.2075C39.6582 5.39212 47.347 12.6923 47.347 21.6652V37.5331ZM30.2075 4.48529H1.64453V21.2601C1.64453 30.733 9.76172 38.4399 19.7392 38.4399H48.3021V21.6652C48.3021 12.1922 40.1849 4.48529 30.2075 4.48529Z" fill="#FFBDBD"/>
<path d="M47.5501 37.3381H19.9423C10.4915 37.3381 2.80273 30.038 2.80273 21.0651V5.19711H30.4106C39.8614 5.19711 47.5501 12.4973 47.5501 21.4702V37.3381ZM30.4106 4.29028H1.84766V21.0651C1.84766 30.538 9.96484 38.2449 19.9423 38.2449H48.5053V21.4702C48.5053 11.9972 40.388 4.29028 30.4106 4.29028Z" fill="#FFB5B5"/>
<path d="M47.7572 37.1431H20.1493C10.6985 37.1431 3.00976 29.843 3.00976 20.87V5.00207H30.6176C40.0684 5.00207 47.7571 12.3022 47.7571 21.2751L47.7572 37.1431ZM30.6176 4.09528H2.05469V20.87C2.05469 30.343 10.1719 38.0499 20.1493 38.0499H48.7123V21.2752C48.7123 11.8022 40.5951 4.09528 30.6176 4.09528Z" fill="#FFADAD"/>
<path d="M47.9603 36.9481H20.3525C10.9017 36.9481 3.21288 29.6479 3.21288 20.675V4.807H30.8208C40.2715 4.807 47.9603 12.1071 47.9603 21.0801V36.9481ZM30.8208 3.90021H2.25781V20.675C2.25781 30.1479 10.375 37.8548 20.3525 37.8548H48.9154V21.0801C48.9154 11.6071 40.7982 3.90021 30.8208 3.90021Z" fill="#FFA5A5"/>
<path d="M48.1673 36.753H20.5595C11.1087 36.753 3.41992 29.4529 3.41992 20.48V4.61199H31.0278C40.4785 4.61199 48.1673 11.9121 48.1673 20.8851L48.1673 36.753ZM31.0278 3.7052H2.46484V20.48C2.46484 29.9529 10.582 37.6598 20.5595 37.6598H49.1224V20.8851C49.1224 11.4121 41.0052 3.7052 31.0278 3.7052Z" fill="#FF9C9C"/>
<path d="M48.3744 36.558H20.7665C11.3157 36.558 3.62695 29.2579 3.62695 20.285V4.41698H31.2348C40.6856 4.41698 48.3744 11.7171 48.3744 20.6901V36.558ZM31.2348 3.51019H2.67188V20.285C2.67188 29.7579 10.7891 37.4648 20.7665 37.4648H49.3295V20.6901C49.3295 11.2171 41.2123 3.51019 31.2348 3.51019Z" fill="#FF9494"/>
<path d="M48.5775 36.3631H20.9696C11.5188 36.3631 3.83004 29.0629 3.83004 20.09V4.22204H31.4379C40.8886 4.22204 48.5774 11.5222 48.5774 20.4951L48.5775 36.3631ZM31.4379 3.31525H2.875V20.09C2.875 29.563 10.9922 37.2699 20.9697 37.2699H49.5326V20.4951C49.5326 11.0222 41.4154 3.31525 31.4379 3.31525Z" fill="#FF8C8C"/>
<path d="M48.7806 36.168H21.1727C11.7219 36.168 4.03316 28.8679 4.03316 19.8949V4.02697H31.641C41.0918 4.02697 48.7805 11.3271 48.7805 20.3V36.168H48.7806ZM31.641 3.12018H3.07812V19.8949C3.07812 29.3679 11.1953 37.0748 21.1728 37.0748H49.7357V20.3001C49.7357 10.8271 41.6185 3.12018 31.641 3.12018Z" fill="#FF8484"/>
<path d="M48.9877 35.9731H21.3798C11.929 35.9731 4.24023 28.6729 4.24023 19.7V3.83202H31.8481C41.2988 3.83202 48.9876 11.1322 48.9876 20.1051L48.9877 35.9731ZM31.8481 2.92523H3.28516V19.7C3.28516 29.173 11.4023 36.8799 21.3798 36.8799H49.9427V20.1051C49.9428 10.6321 41.8256 2.92523 31.8481 2.92523Z" fill="#FF7B7B"/>
<path d="M49.1946 35.7781H21.5868C12.136 35.7781 4.44722 28.4779 4.44722 19.505V3.63701H32.0551C41.5058 3.63701 49.1946 10.9372 49.1946 19.9101L49.1946 35.7781ZM32.0551 2.73022H3.49219V19.505C3.49219 28.978 11.6094 36.6849 21.5868 36.6849H50.1497V19.9101C50.1497 10.4371 42.0326 2.73022 32.0551 2.73022Z" fill="#FF7373"/>
<path d="M49.3978 35.583H21.79C12.3392 35.583 4.65042 28.2829 4.65042 19.3099V3.44198H32.2583C41.709 3.44198 49.3978 10.7421 49.3978 19.7151L49.3978 35.583ZM32.2583 2.53516H3.69531V19.3099C3.69531 28.7829 11.8125 36.4898 21.79 36.4898H50.3529V19.7151C50.3529 10.2421 42.2357 2.53516 32.2583 2.53516Z" fill="#FF6B6B"/>
<path d="M49.6048 35.388H21.997C12.5462 35.388 4.85742 28.0878 4.85742 19.1149V3.24697H32.4653C41.9161 3.24697 49.6048 10.5471 49.6048 19.5201L49.6048 35.388ZM32.4653 2.34015H3.90234V19.1149C3.90234 28.5879 12.0195 36.2948 21.997 36.2948H50.5599V19.5201C50.5599 10.0471 42.4427 2.34015 32.4653 2.34015Z" fill="#FF6363"/>
<path d="M49.8119 35.193H22.204C12.7532 35.193 5.06445 27.8928 5.06445 18.9199V3.05197H32.6723C42.1231 3.05197 49.8118 10.3521 49.8118 19.325L49.8119 35.193ZM32.6723 2.14514H4.10938V18.9199C4.10938 28.3929 12.2266 36.0998 22.204 36.0998H50.7669V19.325C50.7669 9.85208 42.6497 2.14514 32.6723 2.14514Z" fill="#FF5A5A"/>
<path d="M50.015 34.998H22.4072C12.9564 34.998 5.26761 27.6978 5.26761 18.7249V2.85696H32.8754C42.3262 2.85696 50.015 10.1571 50.015 19.13V34.998ZM32.8754 1.95013H4.3125V18.7249C4.3125 28.1979 12.4297 35.9048 22.4072 35.9048H50.9701V19.13C50.9701 9.65707 42.8529 1.95013 32.8754 1.95013Z" fill="#FF5252"/>
<path d="M50.222 34.803H22.6142C13.1634 34.803 5.4746 27.5028 5.4746 18.5299V2.66195H33.0824C42.5332 2.66195 50.222 9.9621 50.222 18.935L50.222 34.803ZM33.0825 1.75513H4.51953V18.5299C4.51953 28.0029 12.6367 35.7098 22.6142 35.7098H51.1771V18.935C51.1771 9.46207 43.0599 1.75513 33.0825 1.75513Z" fill="#FF4A4A"/>
<path d="M50.4251 34.608H22.8173C13.3665 34.608 5.67773 27.3079 5.67773 18.3349V2.46694H33.2856C42.7364 2.46694 50.4251 9.7671 50.4251 18.74L50.4251 34.608ZM33.2856 1.56012H4.72266V18.3349C4.72266 27.8079 12.8398 35.5148 22.8173 35.5148H51.3802V18.74C51.3802 9.26703 43.263 1.56012 33.2856 1.56012Z" fill="#FF4242"/>
<path d="M50.6322 34.4129H23.0243C13.5735 34.4129 5.88476 27.1128 5.88476 18.1398V2.27188H33.4926C42.9434 2.27188 50.6321 9.57203 50.6321 18.545L50.6322 34.4129ZM33.4926 1.36505H4.92969V18.1398C4.92969 27.6128 13.0469 35.3197 23.0243 35.3197H51.5872V18.545C51.5872 9.07196 43.4701 1.36505 33.4926 1.36505Z" fill="#5528A9"/>
<path d="M50.8392 34.2179H23.2314C13.7806 34.2179 6.09179 26.9178 6.09179 17.9448V2.07687H33.6996C43.1504 2.07687 50.8392 9.37699 50.8392 18.3499L50.8392 34.2179ZM33.6997 1.17004H5.13672V17.9448C5.13672 27.4178 13.2539 35.1247 23.2314 35.1247H51.7943V18.3499C51.7943 8.87695 43.6771 1.17004 33.6997 1.17004Z" fill="#5528A9"/>
<path d="M51.0423 34.0229H23.4345C13.9837 34.0229 6.29488 26.7228 6.29488 17.7499V1.88192H33.9027C43.3535 1.88192 51.0423 9.18204 51.0423 18.155V34.0229ZM33.9027 0.975098H5.33984V17.7499C5.33984 27.2228 13.457 34.9297 23.4345 34.9297H51.9974V18.155C51.9974 8.682 43.8802 0.975098 33.9027 0.975098Z" fill="#5528A9"/>
<path d="M51.2493 33.8279H23.6415C14.1907 33.8279 6.50191 26.5278 6.50191 17.5549V1.68691H34.1097C43.5606 1.68691 51.2493 8.98703 51.2493 17.96L51.2493 33.8279ZM34.1098 0.78009H5.54688V17.5549C5.54688 27.0278 13.6641 34.7347 23.6415 34.7347H52.2044V17.96C52.2044 8.48699 44.0872 0.78009 34.1098 0.78009Z" fill="#5528A9"/>
<path d="M51.4564 33.6329H23.8485C14.3977 33.6329 6.70894 26.3328 6.70894 17.3599V1.49187H34.3168C43.7676 1.49187 51.4564 8.79199 51.4564 17.765V33.6329ZM34.3168 0.585083H5.75391V17.3599C5.75391 26.8328 13.8711 34.5397 23.8486 34.5397H52.4115V17.765C52.4115 8.29199 44.2942 0.585083 34.3168 0.585083Z" fill="#5528A9"/>
<path d="M51.6595 33.4379H24.0516C14.6008 33.4379 6.91207 26.1378 6.91207 17.1648V1.29686H34.5199C43.9707 1.29686 51.6595 8.59698 51.6595 17.5699V33.4379ZM34.5199 0.390076H5.95703V17.1648C5.95703 26.6378 14.0742 34.3447 24.0517 34.3447H52.6146V17.57C52.6146 8.09698 44.4974 0.390076 34.5199 0.390076Z" fill="#5528A9"/>
<path d="M51.8626 33.2429H24.2548C14.804 33.2429 7.11523 25.9428 7.11523 16.9698V1.10186H34.7231C44.1739 1.10186 51.8626 8.40198 51.8626 17.3749V33.2429ZM34.7231 0.195068H6.16016V16.9698C6.16016 26.4428 14.2773 34.1497 24.2548 34.1497H52.8177V17.375C52.8177 7.90197 44.7005 0.195068 34.7231 0.195068Z" fill="#5528A9"/>
<path d="M52.0697 33.0478H24.4618C15.011 33.0478 7.3223 25.7477 7.3223 16.7748V0.906824H34.9301C44.3809 0.906824 52.0697 8.20694 52.0697 17.1799L52.0697 33.0478ZM34.9301 0H6.36719V16.7748C6.36719 26.2477 14.4843 33.9546 24.4618 33.9546H53.0248V17.1799C53.0248 7.70694 44.9076 0 34.9301 0Z" fill="#5528A9"/>
</g>
<path d="M34.9301 0H6.36719V16.7748C6.36719 26.2477 14.4843 33.9546 24.4618 33.9546H53.0248V17.1799C53.0248 7.70694 44.9076 0 34.9301 0ZM52.0697 33.0478H24.4618C15.011 33.0478 7.3223 25.7477 7.3223 16.7748V0.906824H34.9301C44.3809 0.906824 52.0697 8.20694 52.0697 17.1799L52.0697 33.0478Z" fill="#5528A9"/>
<path d="M35.0632 9.05828C34.5793 9.50564 33.984 10.0648 33.4555 10.5666C31.6472 8.01544 28.6546 6.27741 25.2322 6.06584C24.9998 6.05072 24.7674 6.0447 24.5318 6.0447C24.4172 6.0447 24.2994 6.04773 24.1848 6.05072C18.5212 6.223 13.9527 10.5756 13.7903 15.956C13.7871 16.0527 13.7871 16.1525 13.7871 16.2492C13.7871 16.485 13.7967 16.7207 13.8126 16.9505C14.1883 22.1555 18.6899 26.2995 24.2294 26.4477C24.3313 26.4507 24.43 26.4507 24.5318 26.4507C24.7833 26.4507 25.0285 26.4416 25.2768 26.4265V28.5454C25.0285 28.5605 24.7833 28.5665 24.5318 28.5665C17.3783 28.5665 11.5586 23.0411 11.5586 16.2492C11.5586 9.45722 17.3783 3.92877 24.5318 3.92877C28.8648 3.92877 32.7041 5.95399 35.0632 9.05828Z" fill="#5528A9"/>
<path d="M25.2764 16.876H25.2829C25.4388 16.7082 25.5365 16.4904 25.5365 16.249C25.5365 15.7237 25.0872 15.2971 24.5339 15.2971C23.9806 15.2971 23.5312 15.7237 23.5312 16.249C23.5312 16.7748 23.9806 17.201 24.5339 17.201C24.8295 17.201 25.0928 17.0771 25.2764 16.8835V16.876Z" fill="#5528A9"/>
<path d="M25.2302 6.02032H24.1836V8.00767H25.2302V6.02032Z" fill="#5528A9"/>
<path d="M25.2771 24.6118H24.2305V26.5987H25.2771V24.6118Z" fill="#5528A9"/>
<path d="M15.8119 15.9571H13.7188V16.9507H15.8119V15.9571Z" fill="#5528A9"/>
<path d="M28.5485 12.1746L24.1875 15.8801L24.8854 16.6205L29.2464 12.915L28.5485 12.1746Z" fill="#5528A9"/>
<path d="M18.2086 14.2769L17.957 15.2416L24.3886 16.7532L24.6401 15.7886L18.2086 14.2769Z" fill="#5528A9"/>
<path d="M29.9023 20.1693L32.4027 16.518L32.593 16.2409C32.8976 15.7911 33.1239 15.4154 33.2719 15.1142C33.42 14.8129 33.4942 14.4857 33.4942 14.1321C33.4942 13.8187 33.4307 13.5798 33.3038 13.415C33.1769 13.2505 32.9907 13.1681 32.7452 13.1681C32.3982 13.1681 32.1572 13.2966 32.0218 13.5536C31.8864 13.8108 31.8188 14.1643 31.8188 14.6141V15.06H29.9024V14.578C29.9024 13.6621 30.1286 12.9372 30.5813 12.4028C31.0338 11.8687 31.7426 11.6015 32.7072 11.6015C33.5958 11.6015 34.2725 11.8244 34.738 12.2703C35.2033 12.7161 35.436 13.3488 35.436 14.1683C35.436 14.6664 35.3387 15.1142 35.1441 15.5119C34.9495 15.9095 34.6448 16.4017 34.2304 16.988L34.0907 17.1929L32.1108 20.0126H35.1569V21.4828H29.9025V20.1693H29.9023Z" fill="black"/>
<path d="M38.3684 19.1933H35.2461V17.7473L37.9242 11.722H40.1961V17.7835H41.1987V19.1933H40.1961V21.4829H38.3683L38.3684 19.1933ZM38.3684 17.7834V13.638L36.7946 17.7834H38.3684Z" fill="black"/>
<path d="M42.3516 11.722H44.2682V15.1564C44.8011 14.6503 45.4019 14.3972 46.0704 14.3972C46.4849 14.3972 46.8022 14.5459 47.0224 14.843C47.2423 15.1404 47.3524 15.5221 47.3524 15.9879V21.4829H45.4484V16.2771C45.4484 16.0843 45.4145 15.9417 45.3469 15.8493C45.2791 15.7571 45.1648 15.7107 45.0041 15.7107C44.7926 15.7107 44.5473 15.8113 44.2682 16.0121V21.4829H42.3516V11.722Z" fill="black"/>
<path d="M47.6761 22.7957H26.7539V28.611H47.6761V22.7957Z" fill="black"/>
<path d="M28.4904 27.1493C28.3313 26.9834 28.2447 26.7264 28.2305 26.3786L28.8356 26.2815C28.8413 26.4892 28.8719 26.6422 28.9272 26.7407C28.9826 26.8392 29.0657 26.8883 29.1766 26.8883C29.2589 26.8883 29.3185 26.8634 29.3556 26.8135C29.3923 26.7636 29.4109 26.6996 29.4109 26.6213C29.4109 26.4918 29.3803 26.3819 29.3193 26.2915C29.2583 26.2012 29.1623 26.102 29.0317 25.9941L28.6736 25.6988C28.5317 25.5854 28.4229 25.4641 28.3478 25.3346C28.2724 25.2051 28.2348 25.0501 28.2348 24.8693C28.2348 24.6023 28.3178 24.3966 28.4841 24.2523C28.6502 24.108 28.8797 24.0358 29.1723 24.0358C29.4847 24.0358 29.702 24.1215 29.8244 24.2927C29.9465 24.4641 30.0161 24.6818 30.0331 24.9462L29.4237 25.0312C29.418 24.8586 29.3975 24.7311 29.362 24.6487C29.3264 24.5665 29.256 24.5254 29.151 24.5254C29.0743 24.5254 29.0146 24.553 28.9721 24.6084C28.9294 24.6636 28.9082 24.7291 28.9082 24.8046C28.9082 24.9125 28.933 25.0036 28.9827 25.0777C29.0323 25.152 29.1111 25.2335 29.2191 25.3225L29.5686 25.6138C29.7333 25.7514 29.8627 25.8964 29.9564 26.0488C30.0502 26.2012 30.097 26.3799 30.097 26.5849C30.097 26.7413 30.0601 26.8809 29.9863 27.0036C29.9123 27.1263 29.808 27.2228 29.6731 27.2929C29.5381 27.363 29.3824 27.3981 29.2064 27.3981C28.8882 27.3981 28.6496 27.3152 28.4904 27.1493Z" fill="white"/>
<path d="M31.1055 24.0764H32.6098V24.5376H31.8043V25.4075H32.4265V25.8728H31.8043V26.9005H32.6182V27.3536H31.1055L31.1055 24.0764Z" fill="white"/>
<path d="M33.6172 24.0764H34.5122C34.8842 24.0764 35.1641 24.141 35.3517 24.2705C35.5391 24.4 35.6329 24.6239 35.6329 24.9422C35.6329 25.1553 35.6016 25.3272 35.5392 25.458C35.4767 25.5889 35.3658 25.688 35.2066 25.7554L35.684 27.3536H34.9637L34.5718 25.8687H34.316V27.3536H33.6172L33.6172 24.0764ZM34.5249 25.4722C34.6896 25.4722 34.8054 25.4337 34.8722 25.3569C34.9389 25.28 34.9723 25.1592 34.9723 24.9948C34.9723 24.8329 34.9425 24.7143 34.8828 24.6387C34.8231 24.5632 34.7151 24.5254 34.5589 24.5254H34.3159V25.4722L34.5249 25.4722Z" fill="white"/>
<path d="M36.5508 24.0764H37.1602L37.5693 26.3421L37.9528 24.0764H38.5877L37.9315 27.3536H37.2071L36.5508 24.0764Z" fill="white"/>
<path d="M39.5859 24.0764H40.2848V27.3536H39.5859V24.0764Z" fill="white"/>
<path d="M41.6286 27.1169C41.4751 26.9294 41.3984 26.659 41.3984 26.3057V25.1323C41.3984 24.7709 41.4743 24.4978 41.6263 24.313C41.7783 24.1282 42.0389 24.0358 42.4083 24.0358C42.7606 24.0358 43.01 24.1174 43.1563 24.2806C43.3026 24.4438 43.3757 24.6779 43.3757 24.9826V25.2577H42.6939V24.9543C42.6939 24.8571 42.6888 24.7789 42.6789 24.7196C42.669 24.6602 42.6434 24.6111 42.6022 24.572C42.561 24.5328 42.4978 24.5133 42.4125 24.5133C42.2847 24.5133 42.2022 24.5524 42.1654 24.6306C42.1284 24.7088 42.11 24.8235 42.11 24.9745V26.4635C42.11 26.6172 42.1313 26.7319 42.1739 26.8074C42.2166 26.883 42.2962 26.9206 42.4125 26.9206C42.532 26.9206 42.6087 26.8822 42.6428 26.8053C42.6768 26.7285 42.6939 26.6146 42.6939 26.4635V26.1438H43.3758V26.4149C43.3758 26.7278 43.3032 26.9699 43.1584 27.1412C43.0135 27.3124 42.7635 27.398 42.4084 27.398C42.0418 27.3981 41.782 27.3044 41.6286 27.1169Z" fill="white"/>
<path d="M44.4453 24.0764H45.9496V24.5376H45.1443V25.4075H45.7664V25.8728H45.1443V26.9005H45.9582V27.3536H44.4453L44.4453 24.0764Z" fill="white"/>
</svg>
