<svg width="42" height="46" viewBox="0 0 42 46" fill="none" xmlns="http://www.w3.org/2000/svg">
<path d="M27.6905 5.936C27.6905 2.66347 25.5787 0 22.983 0C21.0792 0 19.4349 1.4333 18.6952 3.48872C17.9541 1.4333 16.3117 0 14.4068 0C11.8117 0 9.69922 2.66347 9.69922 5.936C9.69922 6.62498 9.79415 7.28781 9.96676 7.90431C10.1634 8.60644 10.4615 9.24915 10.8398 9.80178C11.0009 10.038 11.1771 10.2587 11.3658 10.4617L18.5456 19.4523C18.5905 19.5089 18.6491 19.5366 18.7067 19.5366C18.7646 19.5366 18.8222 19.509 18.8666 19.4523L26.3143 10.125L26.3139 10.1236C26.7964 9.51435 27.175 8.77316 27.412 7.9476C27.5923 7.31818 27.6905 6.64228 27.6905 5.936Z" fill="#0072F2"/>
<path d="M41.0561 28.5507L41.0694 28.504C38.1026 28.504 36.2864 26.2239 34.1032 24.3031C32.5182 22.9091 30.7412 21.7025 28.1826 21.7025C27.0334 21.7025 26.0576 21.7153 25.2285 21.746H19.196C18.3134 21.746 17.5984 22.6481 17.5984 23.7606C17.5984 24.8733 18.3134 25.7755 19.196 25.7755H22.6138H24.8609C26.0029 26.0106 26.8767 27.2565 26.8767 28.7637C26.8767 29.9069 26.3704 30.8902 25.6296 31.4052C25.45 31.4663 24.5837 31.7564 23.4273 32.1423C22.6817 32.3685 21.9736 32.6078 21.3095 32.8503L21.1669 32.8966C18.6793 33.7262 15.9996 34.6156 15.5141 34.7591C15.1931 34.7809 14.8985 34.7634 14.6401 34.6821L5.71714 27.3902L4.10125 25.9164L4.10013 25.9205C4.0242 25.8553 3.94125 25.7987 3.85898 25.7465C3.73947 25.6698 3.61622 25.6028 3.48634 25.552C3.38433 25.5145 3.27791 25.4868 3.17106 25.4651C3.05644 25.4433 2.94028 25.4287 2.82119 25.4287C2.66194 25.4287 2.50653 25.4491 2.35628 25.4885C1.03841 25.6319 0 27.0099 0 28.7088C0 29.6082 0.296282 30.4116 0.766222 30.9962L0.764483 30.999L0.776652 31.0108C0.964095 31.2401 1.17407 31.4387 1.40883 31.591L2.02374 32.154L16.0106 44.9365L16.0117 44.9351C16.0686 44.9627 16.1261 44.99 16.1836 45.019C16.4983 45.1553 16.8315 45.2455 17.1824 45.2455C17.3877 45.2455 17.588 45.218 17.7825 45.1699L17.852 45.1467C22.5903 43.6264 32.3818 40.4888 36.9642 39.0659C37.0768 39.0121 37.1832 38.9627 37.2938 38.9106C38.4628 38.5407 40.0582 38.1013 41.0561 38.1013V37.2569L41.0694 37.2555L41.0561 36.0964V28.8044V28.5507Z" fill="#5528A9"/>
</svg>
