<svg width="39" height="38" viewBox="0 0 39 38" fill="none" xmlns="http://www.w3.org/2000/svg">
<path d="M34.6953 11.5645L31.7621 15.0254C32.1271 16.2788 32.3228 17.6047 32.3228 18.9768C32.3228 26.7979 25.9616 33.1591 18.1405 33.1591C10.3193 33.1591 3.95816 26.7979 3.95816 18.9768C3.95816 11.1556 10.3193 4.79443 18.1405 4.79443C20.6538 4.79443 23.0176 5.45177 25.0669 6.60409L27.6612 3.54332C24.893 1.82601 21.6298 0.83667 18.1403 0.83667C8.13785 0.83667 0 8.97452 0 18.977C0 28.9794 8.13785 37.1173 18.1403 37.1173C28.1427 37.1173 36.2806 28.9794 36.2806 18.977C36.2806 16.3381 35.7132 13.827 34.6953 11.5645Z" fill="#34CA8D"/>
<path d="M20.1432 25.3307L11.1836 16.3711L15.5371 12.0175L19.7703 16.251L33.5505 0L38.246 3.9817L20.1432 25.3307Z" fill="#34CA8D"/>
</svg>
