<svg width="31" height="42" viewBox="0 0 31 42" fill="none" xmlns="http://www.w3.org/2000/svg">
<path d="M20.7129 4.39543C20.7129 4.39543 10.3795 5.34092 7.51562 2.07881C7.51562 2.07881 18.1843 -3.71905 22.8098 4.05052C22.8098 4.05052 26.4275 5.11464 25.6968 9.57707C25.6968 9.57707 24.8941 8.44924 23.7267 8.5827C22.5588 8.71671 20.7129 4.39543 20.7129 4.39543Z" fill="#5B4842"/>
<path d="M24.5041 14.8975C24.5041 19.5013 20.5173 23.4892 15.1426 23.4892C9.76631 23.4892 5.41016 19.7589 5.41016 15.1564C5.41016 3.11528 9.5815 2.83105 14.9573 2.83105C20.3333 2.83133 24.5041 4.07779 24.5041 14.8975Z" fill="#FFE5BA"/>
<path d="M7.25357 17.0951C7.25357 17.8302 6.65657 18.4289 5.92226 18.4289C5.18685 18.4289 4.58984 17.83 4.58984 17.0951C4.58984 16.3597 5.18685 15.7627 5.92226 15.7627C6.65657 15.7627 7.25357 16.3597 7.25357 17.0951Z" fill="#FFE5BA"/>
<path d="M23.0312 17.0951C23.0312 17.8302 23.628 18.4289 24.3642 18.4289C25.1007 18.4289 25.6974 17.83 25.6974 17.0951C25.6974 16.3597 25.1004 15.7627 24.3642 15.7627C23.6277 15.7627 23.0312 16.3597 23.0312 17.0951Z" fill="#FFE5BA"/>
<path d="M16.4096 23.1123H13.5039V27.3581H16.4096V23.1123Z" fill="#FFE5BA"/>
<path d="M15.6104 1.52518C8.54357 0.736775 6.67265 3.41918 6.19922 6.35889C6.19922 6.35889 7.24658 8.73922 15.0376 8.73922C22.8286 8.73922 23.5066 6.35889 23.5066 6.35889C21.9729 2.53987 17.9891 1.79101 15.6104 1.52518Z" fill="#5B4842"/>
<path d="M22.8022 4.26766C22.8022 4.26766 15.3948 -1.23994 5.53711 2.77021C5.53711 2.77021 10.7413 5.34524 12.247 5.06266C13.7524 4.77734 23.1246 4.25805 22.8022 4.26766Z" fill="#5B4842"/>
<path d="M24.3998 15.8468C24.3998 15.8468 26.4767 7.53514 23.5073 6.35871C23.0006 6.15714 21.9813 7.55793 21.9813 7.55793C21.9813 7.55793 21.8654 10.8593 24.3998 15.8468Z" fill="#5B4842"/>
<path d="M5.46039 15.8466C5.46039 15.8466 3.34918 7.38611 6.31745 6.2094C6.82548 6.00839 7.87971 7.55774 7.87971 7.55774C7.87971 7.55774 7.99615 10.8591 5.46039 15.8466Z" fill="#5B4842"/>
<path d="M7.54032 7.10503C7.54032 7.10503 5.65045 6.67746 4.73242 4.69532C4.73242 4.69532 6.02611 3.94316 8.88976 2.83098C10.5819 2.17274 7.54032 7.10503 7.54032 7.10503Z" fill="#5B4842"/>
<path d="M22.6908 6.57623C21.6965 7.7793 9.40156 9.47392 5.04102 4.93652C5.04102 4.93652 15.1766 7.37315 21.3076 5.61124C22.5612 5.2504 23.3095 5.82791 22.6908 6.57623Z" fill="#7C6D68"/>
<path d="M28.4102 29.1038C28.1457 28.8495 22.6422 27.0459 22.6422 27.0459C21.4106 28.2935 14.832 27.5136 14.832 27.5136V27.5435C15.0284 27.5355 15.1421 27.5281 15.1421 27.5281L15.1429 41.3301C20.9408 41.3301 26.2347 39.1843 30.2849 35.6503C30.0018 32.8009 29.4597 30.1128 28.4102 29.1038Z" fill="#5B4842"/>
<path d="M1.87477 29.1038C2.13949 28.8495 7.6427 27.0459 7.6427 27.0459C8.87461 28.2935 15.4526 27.5136 15.4526 27.5136V27.5435C15.2566 27.5355 15.1432 27.5281 15.1432 27.5281L15.1423 41.3301C9.34447 41.3301 4.05024 39.1843 0 35.6503C0.283948 32.8009 0.825755 30.1128 1.87477 29.1038Z" fill="#5B4842"/>
<path d="M15.1425 35.2592C15.1425 35.2592 12.5081 35.3847 12.3285 35.2592C12.1495 35.1332 11.3199 31.0684 11.3402 30.4379C11.3619 29.8082 11.5313 27.6975 12.3285 27.6975C13.1257 27.6975 19.0661 26.1221 19.8765 27.382C20.6877 28.6424 17.9152 36.8654 15.1425 35.2592Z" fill="#EDEDED"/>
<path d="M15.1424 27.0459V30.1968H14.3018C14.3018 30.1968 13.6718 29.2299 13.252 27.9708C13.252 27.9708 14.1131 27.1299 15.1424 27.0459Z" fill="#5B4842"/>
<path d="M15.1426 27.0459V30.1968H15.9823C15.9823 30.1968 16.6131 29.2299 17.033 27.9708C17.033 27.9708 16.1713 27.1299 15.1426 27.0459Z" fill="#5B4842"/>
<path d="M13.5041 24.6973L9.51562 26.3452L12.5597 29.9025L15.143 27.046C15.143 27.046 13.5535 26.4435 13.5041 24.6973Z" fill="white"/>
<path d="M16.4094 24.7275L20.7702 26.345L17.705 29.9023L15.1426 27.0458C15.1426 27.0458 16.394 26.5051 16.4094 24.7275Z" fill="white"/>
<path d="M14.3018 30.1973C13.4244 32.7597 13.252 37.0238 13.252 37.0238L15.1427 40.5732V30.1973H14.3018Z" fill="#5B4842"/>
<path d="M15.9823 30.1973H15.1426V40.5732L17.3554 37.162C17.3554 37.162 17.2494 33.3454 15.9823 30.1973Z" fill="#5B4842"/>
<path d="M19.2659 25.7871L22.6419 27.0457L20.7702 29.9024L21.9518 31.6034L15.1426 40.5724L19.2659 25.7871Z" fill="#7C6D68"/>
<path d="M10.8406 25.7979L7.46484 27.0561L9.33659 29.9126L8.15522 31.6138L14.9642 40.5824L10.8406 25.7979Z" fill="#7C6D68"/>
<path d="M26.9257 15.5681C26.9257 13.904 25.7429 12.5153 24.1719 12.1973V18.9387C25.7429 18.6212 26.9257 17.2325 26.9257 15.5681Z" fill="#B0E6EC"/>
<path d="M23.4859 12.1289C23.2517 12.1289 23.0221 12.1533 22.8008 12.1973V18.9387C23.0224 18.9832 23.252 19.0068 23.4859 19.0068C23.7199 19.0068 23.9495 18.9832 24.1705 18.9387V12.1973C23.9495 12.1533 23.7199 12.1289 23.4859 12.1289Z" fill="#297492"/>
<path d="M2.78125 15.5681C2.78125 13.904 3.964 12.5153 5.5356 12.1973V18.9387C3.964 18.6212 2.78125 17.2325 2.78125 15.5681Z" fill="#B0E6EC"/>
<path d="M6.22144 12.1289C6.45568 12.1289 6.68498 12.1533 6.90632 12.1973V18.9387C6.68471 18.9832 6.45541 19.0068 6.22144 19.0068C5.98692 19.0068 5.7579 18.9832 5.53711 18.9387V12.1973C5.75762 12.1533 5.98692 12.1289 6.22144 12.1289Z" fill="#297492"/>
<path d="M16.666 22.4442V21.3274C23.3934 21.3274 24.4625 16.8454 24.5051 16.6543L25.5977 16.8888C25.5859 16.944 24.3301 22.4442 16.666 22.4442Z" fill="#B0E6EC"/>
<path d="M17.8317 21.8853C17.8317 22.4589 17.3665 22.9241 16.7934 22.9241H15.009C14.4353 22.9241 13.9707 22.4589 13.9707 21.8853C13.9707 21.3119 14.4353 20.8467 15.009 20.8467H16.7934C17.3663 20.8467 17.8317 21.3119 17.8317 21.8853Z" fill="#297492"/>
<path d="M25.2111 14.7738L24.1319 14.4832C24.3708 13.5941 24.4922 12.6782 24.4922 11.7599C24.4922 6.2169 20.1687 1.70751 14.8536 1.70751C9.53935 1.70751 5.21532 6.21717 5.21532 11.7599L5.234 14.7606L4.1166 14.7686L4.09766 11.7635C4.09766 5.60095 8.92285 0.589844 14.8536 0.589844C20.7849 0.589844 25.6099 5.60095 25.6099 11.7602C25.6099 12.776 25.4759 13.7898 25.2111 14.7738Z" fill="#B0E6EC"/>
</svg>
