<svg width="46" height="48" viewBox="0 0 46 48" fill="none" xmlns="http://www.w3.org/2000/svg">
<path d="M23.0001 48.0002C35.7027 48.0002 46.0002 37.7027 46.0002 25.0001C46.0002 12.2975 35.7027 2 23.0001 2C10.2975 2 0 12.2975 0 25.0001C0 37.7027 10.2975 48.0002 23.0001 48.0002Z" fill="#2A8DB8"/>
<path d="M23.0003 1.99982C35.7029 1.99982 44.698 13.3678 43.2811 25.7329C42.0379 36.5822 33.0167 44.4474 23.0003 44.4474C12.9839 44.4474 3.9627 36.5822 2.71951 25.7329C1.30263 13.3678 10.2977 1.99982 23.0003 1.99982C10.2977 1.99982 0 12.2973 0 24.9999C0 37.7025 10.2975 48.0002 23.0003 48.0002C35.7031 48.0002 46.0004 37.7027 46.0004 25.0001C46.0004 12.2975 35.7029 1.99982 23.0003 1.99982Z" fill="#267FA6"/>
<mask id="mask0_819_483" style="mask-type:luminance" maskUnits="userSpaceOnUse" x="0" y="0" width="46" height="47">
<path d="M23.0001 46.0002C35.7027 46.0002 46.0002 35.7027 46.0002 23.0001C46.0002 10.2975 35.7027 0 23.0001 0C10.2975 0 0 10.2975 0 23.0001C0 35.7027 10.2975 46.0002 23.0001 46.0002Z" fill="white"/>
</mask>
<g mask="url(#mask0_819_483)">
<path d="M29.0309 27.2845C29.0309 27.2845 30.7249 28.0113 32.5464 29.2161C32.5464 29.2161 31.0868 31.4085 30.245 39.2369C29.8745 42.6819 29.8956 47.491 29.7534 53.2241C29.7534 53.2241 28.8342 54.7006 23.0017 54.7006C17.1693 54.7006 16.2498 53.2241 16.2498 53.2241C16.1039 47.333 16.1356 42.7743 15.752 39.2923C14.9139 31.6856 13.457 29.2163 13.457 29.2163C15.2785 28.0115 16.9725 27.2847 16.9725 27.2847H29.0309V27.2845Z" fill="#E9E5EA"/>
<path d="M19.4838 31.1246L17.3984 34.8441L21.9441 39.5269L19.4838 31.1246Z" fill="white"/>
<path d="M17.6645 27.2845L16.1289 32.8049L19.9864 33.8437L17.6645 27.2845Z" fill="white"/>
<path d="M29.7554 53.2241C29.9014 47.333 29.8632 42.7191 30.247 39.2369C31.0851 31.6302 32.5484 29.2161 32.5484 29.2161C30.7269 28.0113 29.0329 27.2845 29.0329 27.2845H23.0039V54.7006C28.8361 54.7006 29.7554 53.2241 29.7554 53.2241Z" fill="#CECBCF"/>
<path d="M26.4681 31.1246L28.5535 34.8441L24.0078 39.5269L26.4681 31.1246Z" fill="white"/>
<path d="M28.2868 27.2845L29.8223 32.8049L25.9648 33.8437L28.2868 27.2845Z" fill="white"/>
<path d="M27.7924 28.6552L22.9498 42.4474L18.2031 28.6552L22.9498 26.7217L27.7924 28.6552Z" fill="#77B2B5"/>
<path d="M24.7008 27.4207L22.9767 29.2358L21.2471 27.4153L18.2031 28.6553L18.72 30.1573L20.2435 32.1571L21.8325 30.4912C21.8739 31.1025 22.3815 31.586 23.0034 31.586C23.6074 31.586 24.1046 31.13 24.1703 30.5434L25.7097 32.1571L27.2926 30.0792L27.7926 28.6553L24.7008 27.4207Z" fill="#679EA1"/>
<path d="M21.875 39.3251L22.9495 42.4474L24.1453 39.0415L23.4073 30.0291L22.5877 30.0267L21.875 39.3251Z" fill="#1A5670"/>
<path d="M29.962 29.8089C29.8506 26.0447 26.7373 23.0001 22.9475 23.0001C19.0878 23.0001 15.9297 26.1582 15.9297 30.0179V33.2187" stroke="#585759" stroke-width="2" stroke-miterlimit="10" stroke-linecap="round" stroke-linejoin="round"/>
<path d="M27.2528 27.6388L23.0001 29.8302L18.6406 27.6388L20.0651 19.4551H25.8283L27.2528 27.6388Z" fill="#FFCC92"/>
<path d="M22.9734 28.3034L19.2651 24.051L18.6406 27.6388L23.0001 29.8302L27.2528 27.6388L26.6283 24.0516L22.9734 28.3034Z" fill="#E8B376"/>
<path d="M24.178 29.8301C24.178 30.4789 23.6518 31.005 23.003 31.005C22.3542 31.005 21.8281 30.4791 21.8281 29.8301C21.8281 29.1811 22.3542 28.6552 23.003 28.6552C23.652 28.6552 24.178 29.1813 24.178 29.8301Z" fill="#1E6482"/>
<path d="M25.8312 19.4551H20.0683L19.3789 23.4152C19.9388 24.0594 20.4689 24.6383 20.7731 24.8928C21.3488 25.3741 22.7123 25.3426 22.7123 25.3426C22.7123 25.3426 24.0758 25.3739 24.6515 24.8928C25.0268 24.5789 25.7459 23.7713 26.4406 22.9564L25.8312 19.4551Z" fill="#E8B376"/>
<path d="M17.6505 14.7408C17.8991 16.0053 17.4384 17.1605 16.6215 17.3211C15.8046 17.4818 14.8478 16.1129 14.599 14.8486C14.3504 13.5841 14.9042 12.9028 15.7211 12.7422C16.5382 12.5815 17.4019 13.4763 17.6505 14.7408Z" fill="#E8B376"/>
<path d="M28.458 14.7408C28.2094 16.0053 28.6701 17.1605 29.4869 17.3211C30.3038 17.4818 31.2607 16.1129 31.5095 14.8486C31.7581 13.5841 31.2042 12.9028 30.3874 12.7422C29.5705 12.5815 28.7066 13.4763 28.458 14.7408Z" fill="#E8B376"/>
<path d="M23.002 5.39185C26.887 5.39185 29.9807 9.12162 29.9807 13.7227C29.9807 13.7227 29.429 17.6934 28.5088 19.7846C28.5088 19.7846 25.8081 23.1437 24.9412 23.8684C24.3655 24.3497 23.002 24.3182 23.002 24.3182C23.002 24.3182 21.6386 24.3495 21.0629 23.8684C20.196 23.1437 17.4953 19.7846 17.4953 19.7846C16.5751 17.6934 16.0234 13.7227 16.0234 13.7227C16.0234 9.12182 19.1171 5.39185 23.002 5.39185Z" fill="#FFCC92"/>
<path d="M17.5896 7.20996C14.5281 11.6622 16.4058 16.0416 16.4058 16.0416C16.4058 16.0416 16.7122 11.9142 19.8203 9.89815L17.5896 7.20996Z" fill="#2A333D"/>
<path d="M29.5741 16.0418C29.5741 16.0418 29.2676 11.9144 26.1594 9.89836C26.1594 9.89836 18.935 14.4346 13.5586 10.4024C13.5586 10.4024 15.3578 9.77466 16.8347 7.2941C18.9661 3.71474 25.3288 2.7579 28.3903 7.21017C31.4518 11.6624 29.5741 16.0418 29.5741 16.0418Z" fill="#3F4C5B"/>
<path d="M19.1636 24.6427L23.0017 28.6829L20.242 31.5761L16.9727 27.2845L19.1636 24.6427Z" fill="#8FCCCF"/>
<path d="M26.7872 24.6427L22.9492 28.6829L25.7089 31.5761L28.9782 27.2845L26.7872 24.6427Z" fill="#8FCCCF"/>
<path d="M30.0751 34.8649L30.9009 33.1043C31.5115 31.8018 30.9456 30.2366 29.6432 29.6259C28.3408 29.0153 26.7755 29.5811 26.1648 30.8836L25.5508 32.1932" stroke="#585759" stroke-width="2" stroke-miterlimit="10" stroke-linecap="round" stroke-linejoin="round"/>
<path d="M24.9551 33.0591C24.8336 32.9794 24.7992 32.8147 24.879 32.6932L25.3316 32.0025C25.4113 31.881 25.5759 31.8466 25.6974 31.9262C25.8189 32.0059 25.8533 32.1704 25.7737 32.292L25.3211 32.9828C25.2412 33.1045 25.0765 33.1388 24.9551 33.0591Z" fill="#B9B6BA"/>
<path d="M25.5462 32.1565L25.9521 32.4224C26.137 32.5436 26.1892 32.7941 26.0679 32.979C25.9468 33.1639 25.6962 33.2161 25.5113 33.0949L25.1055 32.829L25.5462 32.1565Z" fill="#848285"/>
<path d="M30.2287 34.614C30.3502 34.6937 30.3846 34.8582 30.3048 34.9799L29.8522 35.6706C29.7725 35.7921 29.6078 35.8265 29.4864 35.7469C29.3649 35.6672 29.3305 35.5026 29.4101 35.3811L29.8627 34.6903C29.9426 34.5686 30.1073 34.5343 30.2287 34.614Z" fill="#B9B6BA"/>
<path d="M29.6379 35.5166L29.2321 35.2507C29.0472 35.1296 28.9949 34.879 29.1162 34.6941C29.2375 34.5091 29.4879 34.4569 29.6729 34.5782L30.0787 34.8441L29.6379 35.5166Z" fill="#848285"/>
</g>
<mask id="mask1_819_483" style="mask-type:luminance" maskUnits="userSpaceOnUse" x="0" y="0" width="46" height="47">
<path d="M23.0001 46.0002C35.7027 46.0002 46.0002 35.7027 46.0002 23.0001C46.0002 10.2975 35.7027 0 23.0001 0C10.2975 0 0 10.2975 0 23.0001C0 35.7027 10.2975 46.0002 23.0001 46.0002Z" fill="white"/>
</mask>
<g mask="url(#mask1_819_483)">
<path d="M22.9988 45.0498C20.5754 45.0498 18.2403 44.6741 16.0469 43.9793C16.1354 46.6161 16.1593 49.677 16.2473 53.224C16.2473 53.224 17.1666 54.7006 22.9992 54.7006C28.8316 54.7006 29.7509 53.224 29.7509 53.224C29.8364 49.775 29.8633 46.6635 29.9515 43.9791C27.7577 44.6741 25.4223 45.0498 22.9988 45.0498Z" fill="#CECBCF"/>
</g>
<path d="M13.4546 31.2161C13.4546 31.2161 10.332 32.4844 10.332 36.9766C10.332 43.0727 11.1483 45.6566 12.0391 46.4717C13.2461 47.5761 14.5696 47.7498 15.6014 44.8092C16.4321 42.4417 14.6457 32.5641 13.4546 31.2161Z" fill="white"/>
<path d="M17.5883 36.0816C17.7191 35.2736 17.1702 34.5125 16.3623 34.3817C15.5544 34.251 14.7934 34.7999 14.6626 35.608C14.5318 36.416 15.0807 37.177 15.8886 37.3078C16.6965 37.4386 17.4575 36.8896 17.5883 36.0816Z" fill="#848285"/>
<path d="M16.1269 36.662C16.5788 36.662 16.9452 36.2956 16.9452 35.8437C16.9452 35.3918 16.5788 35.0254 16.1269 35.0254C15.675 35.0254 15.3086 35.3918 15.3086 35.8437C15.3086 36.2956 15.675 36.662 16.1269 36.662Z" fill="#B9B6BA"/>
<path d="M32.5452 31.2161C32.5452 31.2161 35.6678 32.4844 35.6678 36.9766C35.6678 43.0727 34.8513 45.6566 33.9607 46.4717C32.7537 47.5761 31.4862 47.4432 30.4906 45.2825C29.599 43.3484 30.4069 34.8157 32.5452 31.2161Z" fill="white"/>
<path d="M13.6406 47.1725C13.6406 47.1725 22.647 47.1725 28.7173 43.1472L27.5689 39.8782C27.5689 39.8782 20.2277 39.9672 15.5503 41.2953C15.5503 41.2953 16.5634 46.1121 13.6406 47.1725Z" fill="white"/>
<path d="M27.8774 40.7612C26.8254 40.4899 25.7435 40.2309 24.7057 39.9935C22.5973 40.1188 19.6693 40.3787 17.1289 40.9114C19.5137 43.0614 21.8928 44.4737 24.0131 45.4014C25.6397 44.8438 27.2618 44.1113 28.7156 43.1472L27.8774 40.7612Z" fill="#E9E5EA"/>
<path d="M19.5659 40.5142L19.3538 38.9013C19.3538 38.9013 17.1703 38.2871 16.1335 39.8784C15.8325 40.3405 15.7405 40.8301 15.7604 41.2923C16.9263 40.962 18.244 40.7086 19.5659 40.5142Z" fill="#FFCC92"/>
<path d="M28.8078 39.5883C28.5453 39.5152 28.3903 39.2409 28.4634 38.9785L28.7799 37.8405C28.8528 37.578 29.1273 37.423 29.3897 37.4959C29.6522 37.569 29.8072 37.8433 29.7341 38.1058L29.4176 39.2437C29.3447 39.5064 29.0702 39.6614 28.8078 39.5883Z" fill="#FFCC92"/>
<path d="M29.364 41.8387C28.519 42.2901 27.4583 41.9683 27.0069 41.1233C26.5555 40.2783 26.9424 39.5847 27.7872 39.1333C28.6322 38.6819 29.6278 38.6367 30.0792 39.4817C30.5308 40.3267 30.2088 41.3873 29.364 41.8387Z" fill="#FFCC92"/>
<path d="M27.5693 39.8785C27.4305 39.5921 27.5514 39.2443 27.8378 39.1058L31.2974 37.2879C31.5838 37.1493 31.9316 37.27 32.0701 37.5564C32.2087 37.8427 32.088 38.1905 31.8017 38.3291L28.342 40.147C28.0556 40.2855 27.7078 40.1648 27.5693 39.8785Z" fill="#FFCC92"/>
<path d="M28.8036 40.2534C28.665 39.9671 28.7857 39.6193 29.072 39.4807L31.2383 38.4349C31.5247 38.2964 31.8725 38.417 32.011 38.7034C32.1496 38.9897 32.0289 39.3375 31.7426 39.4761L29.5763 40.5219C29.2899 40.6606 28.9423 40.5398 28.8036 40.2534Z" fill="#FFCC92"/>
<path d="M28.542 41.2074C28.3866 40.9297 28.4866 40.5754 28.7641 40.42L30.8646 39.2473C31.1421 39.0919 31.4965 39.1919 31.6519 39.4694C31.8074 39.7471 31.7073 40.1013 31.4298 40.2568L29.3296 41.4295C29.0517 41.5849 28.6975 41.4849 28.542 41.2074Z" fill="#FFCC92"/>
<path d="M27.8699 42.1904C27.6904 41.9277 27.7583 41.5659 28.0209 41.3863L30.0083 40.0311C30.2709 39.8516 30.6328 39.9195 30.8123 40.1821C30.9918 40.4448 30.924 40.8066 30.6613 40.9861L28.6739 42.3414C28.4113 42.5209 28.0494 42.453 27.8699 42.1904Z" fill="#FFCC92"/>
<path d="M32.3689 47.1725C32.3689 47.1725 25.0947 47.4402 17.8203 40.8104L19.4326 38.7174C19.4326 38.7174 25.7684 39.909 30.4458 41.2371C30.4458 41.2371 29.446 46.1121 32.3689 47.1725Z" fill="white"/>
</svg>
