<svg width="48" height="36" viewBox="0 0 48 36" fill="none" xmlns="http://www.w3.org/2000/svg">
<path d="M4.78649 19.2084L4.80736 19.1953L4.78477 19.2072C4.68063 19.2619 4.58252 19.322 4.48828 19.3928L4.78649 19.2096V19.2084Z" fill="#B0E6EC"/>
<path d="M19.5363 24.6809C18.953 24.206 18.4034 23.6789 17.8964 23.0996L11.9551 26.7784L14.0525 28.0773L14.6272 27.7216C14.7547 27.6196 14.8937 27.5291 15.0464 27.4614L19.5363 24.6809Z" fill="#34CA8D"/>
<path d="M15.731 19.7365C15.415 19.0407 15.1589 18.3305 14.9679 17.6113L6.91623 22.5967L6.67317 22.7458L6.60547 22.789L6.67755 22.7496C7.13849 23.333 7.66155 23.8758 8.24707 24.3689L8.56565 24.1714L9.15254 23.809L15.731 19.7365Z" fill="#34CA8D"/>
<path d="M14.5486 13.165L20.8025 9.29364L20.8051 9.29888L23.4988 7.63275L23.5991 7.56978L23.761 7.39987C23.5991 7.20364 23.5206 6.95391 23.5596 6.70404L23.5692 6.66345C23.59 6.56275 23.6238 6.46464 23.6794 6.37198L23.761 6.28556C24.0384 5.94919 24.5155 5.84742 24.9 6.07484L24.9278 6.09198L32.6218 10.8969L34.1666 11.8621C34.6032 12.1668 35.1593 12.2936 35.7175 12.1644C36.7662 11.9209 37.419 10.8746 37.1768 9.82824C37.0526 9.29199 36.7176 8.86332 36.2822 8.60161L36.2275 8.56776L26.5885 2.54786L26.5832 2.55302L26.5598 2.53717C25.6613 1.98005 24.7198 1.55496 23.761 1.22943C21.391 0.423794 18.8917 0.295775 16.5279 0.805777C15.9732 0.923685 15.4289 1.07537 14.895 1.26199C14.415 1.42953 13.9457 1.62575 13.4852 1.84687C12.5198 2.04309 11.4829 1.88983 10.5787 1.33148L8.42934 0L0 13.6162L1.95279 14.8244L3.16773 15.5764C3.7945 16.1416 4.21291 16.8764 4.39085 17.6665L4.42599 17.8537C4.47935 18.1398 4.55272 18.421 4.62954 18.7022C4.67644 18.8722 4.73109 19.0398 4.78495 19.2072L4.80754 19.1953L14.5486 13.165Z" fill="#34CA8D"/>
<path d="M39.0937 0L36.9438 1.33148C36.0392 1.8899 35.0027 2.04309 34.0374 1.84687C33.5786 1.62575 33.1076 1.42953 32.6276 1.26199C32.0937 1.07537 31.5485 0.923685 30.9964 0.805777C28.6308 0.295775 26.1315 0.423866 23.7616 1.22943C24.7204 1.55496 25.6619 1.98012 26.5604 2.53717L26.5839 2.55302L26.5891 2.54786L36.2282 8.56798L36.2829 8.60183C36.7182 8.86354 37.0533 9.29221 37.1774 9.82846C37.4196 10.8748 36.7668 11.9211 35.7181 12.1646C35.16 12.2937 34.6039 12.167 34.1673 11.8623L32.6225 10.8972L24.9284 6.0922L24.9007 6.07506C24.5161 5.84763 24.039 5.9494 23.7617 6.28577L23.8442 6.37219C24.0495 6.70684 23.9983 7.11349 23.7617 7.40001L23.5997 7.56992L23.4995 7.63289L20.8057 9.29902L20.8032 9.29379L14.5493 13.1652L4.80827 19.1955L4.7874 19.2098L4.48919 19.393C4.00522 19.7617 3.6875 20.337 3.6875 20.9938C3.6875 22.108 4.58945 23.0104 5.70413 23.0104C6.02967 23.0104 6.33354 22.9253 6.60522 22.7894L6.67292 22.7463L6.91598 22.5972L14.9676 17.6118C15.1586 18.331 15.4148 19.0411 15.7307 19.737L9.15222 23.8094L8.56533 24.1718C8.14519 24.5416 7.87259 25.0768 7.87259 25.6811C7.87259 26.7952 8.77633 27.6977 9.8905 27.6977C10.4213 27.6977 10.9023 27.4885 11.2625 27.151L11.2912 27.1903L11.9561 26.7781L17.8975 23.0993C18.4045 23.6785 18.954 24.2056 19.5374 24.6806L15.0475 27.4611C14.8947 27.5289 14.7558 27.6193 14.6282 27.7213C14.162 28.0874 13.8581 28.6484 13.8581 29.2853C13.8581 30.3918 14.7549 31.2863 15.8622 31.2863C16.4426 31.2863 16.9617 31.0368 17.3272 30.6416L17.3876 30.7188L17.8646 30.4233L21.6652 28.0692L22.8059 27.363V27.2909V26.3481L22.7963 26.1556L22.8059 25.9636C22.9036 24.9459 23.7608 24.1495 24.8043 24.1495C25.9038 24.151 26.797 25.0375 26.8079 26.1361V26.157V26.1765L26.8061 28.6565L26.8053 32.1889L29.0128 30.8222V30.5555L29.0102 30.5357L29.0128 30.5162V28.3805L29.0154 25.3174V23.7402L29.0163 23.2039L29.0102 23.1084L29.0163 23.0116C29.0388 22.5146 29.2441 22.0649 29.5658 21.7286C29.9308 21.3468 30.4417 21.1087 31.012 21.1074C31.5815 21.1087 32.0937 21.3468 32.4578 21.7286C32.8011 22.0884 33.0121 22.5735 33.0121 23.1097L33.0082 23.2066L33.0173 23.2052V25.1984L33.0165 28.3583L35.2231 26.9914V24.704L35.2249 21.8607V21.8542L35.2223 21.7821L35.2353 21.5953V21.3494H35.2743C35.4107 20.7413 35.8221 20.2365 36.3742 19.9763C36.6334 19.8532 36.9212 19.7788 37.2259 19.7788C38.1843 19.7801 38.9812 20.4522 39.1783 21.3494H39.2165V21.6608L39.2252 21.7418L39.2304 21.7849L39.2252 21.8765V24.4138C40.7253 23.162 41.8413 21.5822 42.5214 19.844C42.7741 19.1993 42.9658 18.5321 43.0982 17.8537L43.1316 17.6666C43.3109 16.8764 43.7284 16.1416 44.3561 15.5765L45.5701 14.8245L47.5221 13.6163L39.0937 0Z" fill="#B0E6EC"/>
<path d="M33.0169 23.2052L33.0078 23.2066L33.0117 23.1098C33.0117 22.5735 32.8008 22.0885 32.4574 21.7286C32.0932 21.3468 31.5811 21.1087 31.0116 21.1074C30.4413 21.1087 29.9304 21.3468 29.5654 21.7286C29.2438 22.065 29.0384 22.5146 29.0159 23.0117L29.0098 23.1085L29.0159 23.2039L29.015 23.7403V25.3174L29.0124 28.3805V30.5162L29.0098 30.5358L29.0124 30.5555V30.8223L29.0367 30.8064C29.1717 31.7822 29.9969 32.5355 31.0091 32.5355C32.027 32.5355 32.8591 31.7705 32.9828 30.7856H32.9997V30.6233L33.0088 30.5358L32.9997 30.4483V28.3672L33.0162 28.3583L33.0171 25.1984V23.2052H33.0169Z" fill="#34CA8D"/>
<path d="M26.8066 26.1764V26.1569V26.1361C26.7957 25.0375 25.9024 24.1509 24.803 24.1494C23.7595 24.1494 22.9023 24.9459 22.8046 25.9635L22.795 26.1556L22.8046 26.3481V27.2908V27.3629V28.7754L21.6639 28.0691L17.8633 30.4232L19.9598 31.7203L20.5341 31.3648L20.5775 31.3386L22.8029 29.9603V31.3701V32.3089L22.802 34.6619V34.6672L22.9062 34.6029C23.1614 35.4113 23.9097 35.9999 24.8031 35.9999C25.8205 35.9999 26.6522 35.236 26.7767 34.2511H26.7936V34.089L26.8027 34.0013L26.7936 33.9138V32.1965L26.8041 32.1887L26.8049 28.6563L26.8066 26.1764Z" fill="#34CA8D"/>
<path d="M39.2289 21.7845L39.2236 21.7413L39.2149 21.6603V21.3489H39.1767C38.9797 20.4517 38.1827 19.7796 37.2244 19.7783C36.9196 19.7783 36.6319 19.8527 36.3727 19.9758C35.8206 20.236 35.4091 20.7409 35.2728 21.349H35.2337V21.5948L35.2207 21.7817L35.2233 21.8538V21.8603L35.2216 24.7036V26.991L35.2337 26.9832V27.3061L35.225 27.3899L35.2337 27.475V27.6397H35.251C35.3748 28.6246 36.2059 29.3896 37.2243 29.3896C38.2417 29.3896 39.0751 28.6246 39.1974 27.6397H39.2148V27.4773L39.2235 27.3899L39.2148 27.3035V24.4198L39.2235 24.4133V21.8761L39.2289 21.7845Z" fill="#34CA8D"/>
<path d="M22.804 31.3707V29.9609L20.5786 31.3393L20.5352 31.3655C20.0092 31.7265 19.6641 32.3304 19.6641 33.0147C19.6641 34.1209 20.56 35.0168 21.666 35.0168C22.0887 35.0168 22.479 34.8848 22.8032 34.6626L22.804 32.3096V31.3707Z" fill="#B0E6EC"/>
</svg>
