<svg width="40" height="35" viewBox="0 0 40 35" fill="none" xmlns="http://www.w3.org/2000/svg">
<path d="M36.759 19.8468C36.2842 20.6155 35.7748 21.3717 35.2313 22.1131C34.2046 21.5417 33.0219 21.2161 31.7629 21.2161C27.8179 21.2161 24.6201 24.414 24.6201 28.359C24.6201 29.4344 24.8577 30.4541 25.2833 31.369C23.6349 32.4165 21.8717 33.359 20 34.1779C12.5933 30.9384 6.89052 25.7557 3.24097 19.8468C3.0203 19.4891 2.80479 19.1246 2.59658 18.7544H6.99508C7.17685 18.7544 7.33945 18.6407 7.40208 18.4699L8.03917 16.7286L10.0164 20.7103C10.0963 20.8711 10.2674 20.9657 10.4462 20.9486C10.6249 20.931 10.7744 20.8055 10.8222 20.6319L12.6532 13.9522L14.9942 26.3997C15.0313 26.597 15.1994 26.7432 15.4003 26.7523C15.407 26.7526 15.4134 26.7526 15.4197 26.7526C15.6128 26.7526 15.7836 26.6243 15.8362 26.4371L18.3508 17.5225L18.8468 18.9246C18.9079 19.0976 19.0714 19.2131 19.2547 19.2131H27.7146C27.9538 19.2131 28.1474 19.0194 28.1474 18.7802C28.1474 18.541 27.9538 18.3471 27.7146 18.3471H19.5611L18.7125 15.948C18.6495 15.7702 18.479 15.6535 18.2903 15.6595C18.1018 15.6656 17.9386 15.7933 17.8875 15.9747L15.5042 24.4252L13.1574 11.9474C13.12 11.7495 12.951 11.6033 12.7495 11.5948C12.5477 11.5866 12.3674 11.7188 12.3139 11.913L10.2872 19.3079L8.3665 15.4407C8.28929 15.2857 8.12699 15.1918 7.95464 15.2012C7.78199 15.2106 7.63154 15.3222 7.57198 15.4845L6.69264 17.8882H2.13C0.381967 14.4982 -0.649031 10.6912 0.459178 7.12003C1.47589 3.84311 4.34156 1.16803 7.75737 0.307237C11.1729 -0.553561 15.0194 0.430031 17.5535 2.81151C18.6401 3.83339 19.4693 5.09723 20 6.47109C20.5307 5.09721 21.3598 3.83339 22.4468 2.81151C24.9805 0.430031 28.827 -0.553561 32.2425 0.307237C35.6584 1.16803 38.524 3.84311 39.5407 7.12003C40.8684 11.3978 39.1262 16.0143 36.759 19.8468Z" fill="#CC3232"/>
<path d="M31.7628 34.4684C35.1369 34.4684 37.8722 31.7332 37.8722 28.359C37.8722 24.9849 35.1369 22.2496 31.7628 22.2496C28.3886 22.2496 25.6533 24.9849 25.6533 28.359C25.6533 31.7332 28.3886 34.4684 31.7628 34.4684Z" fill="#77BC42"/>
<path d="M34.5077 25.7287C34.2566 25.598 33.8129 25.5563 33.5649 25.7287C32.2022 26.6759 31.0898 27.9519 30.3711 29.438C30.1285 29.2005 29.8514 28.9981 29.5448 28.8435C29.2664 28.7032 28.8785 28.6869 28.602 28.8435C28.3686 28.9757 28.3462 29.2322 28.602 29.3612C28.6807 29.4009 28.7578 29.443 28.8328 29.4895C28.8593 29.506 28.8853 29.5232 28.9113 29.5406C28.918 29.5466 28.984 29.5945 28.9856 29.5958C29.1204 29.7019 29.2454 29.8205 29.3598 29.9484C29.5764 30.1906 29.7582 30.5086 29.8916 30.8346C29.9774 31.044 30.3431 31.108 30.5345 31.1033C30.6481 31.1005 30.7619 31.0859 30.871 31.0534C30.9611 31.0265 31.1438 30.9403 31.1774 30.8346C31.4753 29.8957 31.9239 29.0087 32.504 28.2124C32.775 27.8404 33.0961 27.476 33.4349 27.1443C33.6106 26.9723 33.7932 26.8073 33.9824 26.65C34.0702 26.577 34.1594 26.5058 34.2499 26.4362C34.2987 26.3987 34.3478 26.3617 34.3974 26.3253C34.4195 26.309 34.4417 26.2929 34.464 26.2769C34.4661 26.2755 34.4804 26.2655 34.5077 26.2464C34.5969 26.1844 34.703 26.1118 34.703 25.9875C34.703 25.8747 34.599 25.7762 34.5077 25.7287Z" fill="white"/>
</svg>
