<svg width="37" height="42" viewBox="0 0 37 42" fill="none" xmlns="http://www.w3.org/2000/svg">
<path d="M20.7434 42H3.89345C1.74308 42 0 40.2569 0 38.1065V3.89344C0 1.74308 1.74308 0 3.89345 0H20.7434C22.8938 0 24.6368 1.74308 24.6368 3.89344V38.1065C24.6368 40.2569 22.8938 42 20.7434 42Z" fill="#0072F2"/>
<path d="M22.4309 42H5.58095C3.43058 42 1.6875 40.2569 1.6875 38.1065V3.89344C1.6875 1.74308 3.43058 0 5.58095 0H22.4309C24.5813 0 26.3243 1.74308 26.3243 3.89344V38.1065C26.3243 40.2569 24.5813 42 22.4309 42Z" fill="#B0E6EC"/>
<path d="M20.8024 35.5598H6.91918C5.55489 35.5598 4.44922 34.4537 4.44922 33.0898V5.48852C4.44922 4.12423 5.55534 3.01855 6.91918 3.01855H20.8024C22.1667 3.01855 23.2724 4.12423 23.2724 5.48852V33.0898C23.2724 34.4537 22.1663 35.5598 20.8024 35.5598Z" fill="#2E214F"/>
<path d="M14.0067 40.7917C14.9391 40.7917 15.695 40.0358 15.695 39.1034C15.695 38.1709 14.9391 37.415 14.0067 37.415C13.0743 37.415 12.3184 38.1709 12.3184 39.1034C12.3184 40.0358 13.0743 40.7917 14.0067 40.7917Z" fill="#FFF6DE"/>
<path d="M36.688 9.38477H13.8633V13.0979H36.688V9.38477Z" fill="#2C9A9B"/>
<path d="M21.3621 16.043H6.94922V19.7561H21.3621V16.043Z" fill="#9FB7E7"/>
<path d="M21.3621 22.7012H6.94922V26.4144H21.3621V22.7012Z" fill="#3054A2"/>
</svg>
