<svg width="26" height="38" viewBox="0 0 26 38" fill="none" xmlns="http://www.w3.org/2000/svg">
<path d="M25.6855 4.35702V0.440154C25.6855 0.197064 25.4885 0 25.2454 0H0.440154C0.197064 0 0 0.197064 0 0.440154V4.35702C0 4.60011 0.197064 4.79717 0.440154 4.79717H1.86133C1.85105 5.844 1.84439 7.42742 1.88494 8.26602C1.96445 9.91086 2.51625 11.3381 3.48061 12.3935C4.27927 13.2676 5.31283 13.8487 6.31236 14.4107C6.61633 14.5817 6.90346 14.7431 7.18546 14.913L7.21929 14.9335C8.01621 15.4174 8.49199 16.2636 8.49199 17.197C8.49199 18.1304 8.01621 18.9765 7.21926 19.4605L7.18523 19.4811C6.90346 19.6509 6.61636 19.8123 6.31241 19.9832C5.31285 20.5452 4.27929 21.1263 3.48064 22.0004C2.51627 23.0558 1.96447 24.4831 1.88497 26.1279C1.84442 26.9665 1.85105 28.55 1.86135 29.5968H0.440176C0.197086 29.5968 2.25637e-05 29.7938 2.25637e-05 30.0369V33.9538C2.25637e-05 34.1969 0.197086 34.3939 0.440176 34.3939H25.2454C25.4885 34.3939 25.6856 34.1969 25.6856 33.9538V30.0369C25.6856 29.7938 25.4885 29.5968 25.2454 29.5968H23.8242C23.8346 28.5499 23.8412 26.9665 23.8006 26.1279C23.7211 24.483 23.1693 23.0558 22.205 22.0004C21.4063 21.1264 20.3727 20.5452 19.3732 19.9832C19.0692 19.8123 18.7821 19.6508 18.5011 19.4815L18.4663 19.4605C17.6694 18.9765 17.1936 18.1304 17.1936 17.1969C17.1936 16.2636 17.6694 15.4174 18.4663 14.9334L18.5004 14.9128C18.7822 14.7431 19.0693 14.5816 19.3732 14.4107C20.3728 13.8487 21.4063 13.2676 22.205 12.3935C23.1694 11.3381 23.7212 9.91083 23.8007 8.266C23.8412 7.4274 23.8346 5.84395 23.8243 4.79712H25.2454C25.4885 4.79717 25.6855 4.60011 25.6855 4.35702ZM22.072 8.18245C22.0302 9.04513 21.7978 10.2734 20.9273 11.2261C20.316 11.8951 19.446 12.3843 18.525 12.9022C18.2232 13.0718 17.9112 13.2472 17.6074 13.4303L17.568 13.4542C16.2498 14.2546 15.4629 15.6538 15.4629 17.1969C15.4629 18.7401 16.2498 20.1393 17.568 20.9398L17.6072 20.9635C17.9112 21.1467 18.2232 21.3221 18.5249 21.4917C19.446 22.0096 20.316 22.4988 20.9273 23.1678C21.7978 24.1205 22.0302 25.3488 22.0719 26.2115C22.1103 27.0051 22.1033 28.568 22.0932 29.5968H3.59228C3.58218 28.568 3.5752 27.0051 3.61358 26.2115C3.65529 25.3488 3.88775 24.1205 4.75824 23.1678C5.36958 22.4988 6.23956 22.0096 7.1606 21.4917C7.46233 21.3221 7.77432 21.1467 8.07905 20.963L8.11755 20.9397C9.4357 20.1393 10.2226 18.7401 10.2226 17.1969C10.2226 15.6537 9.4357 14.2546 8.11755 13.4541L8.07834 13.4304C7.7743 13.2472 7.46231 13.0718 7.16055 12.9021C6.23951 12.3843 5.36953 11.8951 4.75821 11.2261C3.8877 10.2734 3.65526 9.0451 3.61356 8.1824C3.57518 7.38879 3.58216 5.82588 3.59226 4.79712H22.0932C22.1033 5.82591 22.1103 7.38881 22.072 8.18245Z" fill="black"/>
<path d="M11.5573 21.6939C9.61092 22.5196 7.45172 23.4457 6.54918 24.4471C6.06956 24.9793 5.9337 25.7244 5.90776 26.2594C5.88287 26.7744 5.88008 27.4365 5.88461 28.3045H19.8013C19.8058 27.4365 19.803 26.7744 19.7781 26.2594C19.7522 25.7244 19.6163 24.9793 19.1367 24.4471C18.2342 23.4457 16.0749 22.5196 14.1286 21.6939C13.307 21.3454 12.3789 21.3454 11.5573 21.6939Z" fill="#0072F2"/>
<path d="M12.1858 13.7649C12.3239 14.0171 12.5059 14.22 12.7365 14.22C12.9572 14.22 13.1304 14.0409 13.2621 13.8132C13.6244 13.1865 14.204 12.7151 14.8881 12.4783C15.9912 12.0966 17.5184 11.4576 18.3049 10.6434C17.1402 10.8074 15.9127 10.5285 14.7833 10.1404C13.3741 9.65602 12.0028 9.00161 10.5241 8.81753C9.1238 8.64339 7.54952 8.9932 6.66797 10.0723C7.96061 11.2419 9.54452 11.9847 10.6167 12.3962C11.2852 12.6527 11.8418 13.1369 12.1858 13.7649Z" fill="#0072F2"/>
<path d="M12.8435 38C19.6693 38 25.2026 37.7027 25.2026 37.3359C25.2026 36.969 19.6693 36.6717 12.8435 36.6717C6.01774 36.6717 0.484375 36.969 0.484375 37.3359C0.484375 37.7027 6.01774 38 12.8435 38Z" fill="#C5D8DD"/>
</svg>
