<svg width="30" height="34" viewBox="0 0 30 34" fill="none" xmlns="http://www.w3.org/2000/svg">
<path d="M26.8344 26.3055C26.044 24.797 19.3517 24.2938 18.7049 23.5751C18.058 22.8565 17.699 20.2697 17.5548 18.617L14.6744 18.258L11.794 18.617C11.6504 20.2697 11.2914 22.8565 10.6445 23.5751C9.99768 24.2938 3.30606 24.7964 2.51497 26.3055C1.72515 27.8153 0 33.994 0 33.994H14.6744H29.3494C29.3494 33.994 27.6249 27.8146 26.8344 26.3055Z" fill="#EBAC88"/>
<path d="M12.5723 21.5538C12.7165 21.6948 12.8704 21.823 13.0262 21.9371C13.9442 22.6071 15.2565 22.825 16.3566 22.4981C16.6432 23.2834 16.9303 24.0681 17.2169 24.8534C17.2785 25.022 17.3439 25.197 17.4778 25.3163C17.599 25.4233 17.7593 25.4714 17.9144 25.5163C19.7235 26.0394 21.5327 26.5626 23.3418 27.0857C23.6668 27.1793 24.0053 27.2818 24.2483 27.5165C24.4432 27.7043 24.556 27.9582 24.6592 28.2082C25.4112 30.0314 25.8574 31.981 25.9734 33.9491C26.1895 33.926 29.3577 34.0235 29.35 33.9946C29.35 33.9946 27.6255 27.8152 26.8351 26.3061C26.0446 24.7976 19.3524 24.2944 18.7055 23.5757C18.0587 22.8571 17.6997 20.2703 17.5554 18.6176L14.675 18.2586L11.7946 18.6176C11.5786 18.6445 11.7312 20.185 11.8068 20.4043C11.9536 20.8338 12.2376 21.2268 12.5723 21.5538Z" fill="#E69F78"/>
<path d="M22.303 10.2938C22.1518 7.06916 20.7317 2.34247 14.6767 2.34247C8.62234 2.34247 7.20234 7.06916 7.05041 10.2938C6.18046 10.0483 5.48424 11.0368 5.65477 12.2318C5.85607 13.6467 6.92156 15.425 7.54085 15.2635C7.68317 15.2257 7.79279 15.1462 7.88895 15.0532C8.93904 17.6938 11.0899 21.0057 14.6761 21.0057C18.2629 21.0057 20.4138 17.6938 21.4632 15.0532C21.56 15.1462 21.6696 15.2263 21.812 15.2635C22.4313 15.425 23.4961 13.6467 23.698 12.2318C23.8699 11.0368 23.173 10.0483 22.303 10.2938Z" fill="#EBAC88"/>
<path d="M22.3031 10.2938C22.1518 7.06916 20.7317 2.34247 14.6767 2.34247C8.62234 2.34247 7.20234 7.06916 7.05041 10.2938C6.18046 10.0483 5.48424 11.0368 5.65477 12.2318C5.85607 13.6467 6.92156 15.425 7.54085 15.2635C7.68317 15.2257 7.79279 15.1462 7.88895 15.0532C7.93062 15.159 7.98639 15.2705 8.03191 15.3782C8.07743 13.764 7.98062 12.0997 8.60311 10.5656C8.93198 9.7553 9.5455 9.17961 10.3577 8.86997C11.3142 8.50648 12.0098 8.05387 12.6573 7.20315C12.6977 7.14994 12.74 7.09352 12.8016 7.0666C12.8977 7.02428 13.0093 7.06597 13.108 7.10443C14.0472 7.46985 15.0806 7.47561 16.0858 7.55318C18.2052 7.71665 19.8753 8.49045 20.508 10.6304C21.0824 12.5703 20.6022 14.7186 19.8169 16.529C19.1848 17.9855 18.1437 19.2202 17.1244 20.4332C19.2784 19.3728 20.6798 17.0264 21.4645 15.0519C21.5613 15.1449 21.6709 15.225 21.8133 15.2622C22.4325 15.4237 23.4974 13.6454 23.6993 12.2305C23.8698 11.0368 23.173 10.0483 22.3031 10.2938Z" fill="#E69F78"/>
<path d="M21.0623 9.11871C20.5604 8.15772 19.7783 7.36149 18.6544 6.86017C16.9056 6.08061 14.8669 6.26075 13.0655 5.61326C12.7264 5.49145 12.3981 5.3408 12.0846 5.16322C11.8013 6.51847 10.7929 6.99159 9.65558 7.51856C7.50154 8.51609 7.8285 10.8246 7.68105 12.7959C7.71439 12.3549 7.37076 11.6747 7.22908 11.258C6.93162 10.3816 6.9374 9.53668 6.74699 8.62827C6.39055 6.92876 6.43093 5.71326 7.14382 4.16441C7.74002 2.87006 8.62279 1.13594 10.103 0.71988C10.7864 0.527555 11.5173 0.642959 12.2231 0.560901C14.2573 0.323059 16.0843 -0.30905 18.18 0.182019C20.6418 0.758993 22.6586 2.90598 23.0818 5.39915C23.3113 6.75503 23.0952 8.12181 22.7708 9.44308C22.49 10.5829 21.8368 11.6471 21.7836 12.8363C21.8419 11.5131 21.6323 10.2105 21.0623 9.11871Z" fill="#38160D"/>
<path d="M26.8344 26.3055C26.044 24.797 19.3517 24.2937 18.7049 23.5751C18.6478 23.5116 18.5959 23.4199 18.5439 23.3283C17.4926 24.1815 16.095 24.1078 14.7224 24.1905C13.3364 24.2745 12.4556 24.2822 11.3972 23.4597C11.2164 23.3187 11.0869 23.1462 10.9798 22.9622C10.8773 23.2161 10.7676 23.4379 10.6445 23.5751C9.99768 24.2937 3.30606 24.7964 2.51497 26.3055C1.72515 27.8152 0 33.994 0 33.994H29.3487C29.3487 33.994 27.6249 27.8146 26.8344 26.3055Z" fill="#7ECAD6"/>
<path d="M14.6759 24.1905C13.379 24.1905 11.409 23.3494 11.2198 22.2551C10.9961 22.95 10.4102 23.3218 10.4102 23.3218C10.4102 23.3218 11.1628 26.7221 13.388 27.1901C13.4463 26.6054 14.0233 24.3661 14.6759 24.1905Z" fill="#69B2BF"/>
<path d="M14.6759 24.1905C13.379 24.1905 11.409 23.3494 11.2198 22.2551C10.9961 22.95 10.4102 23.3218 10.4102 23.3218C10.4102 23.3218 10.8801 26.2221 13.1046 26.6907C13.1636 26.1054 14.0233 24.3661 14.6759 24.1905Z" fill="#A2E0EB"/>
<path d="M14.6758 24.1905C15.9727 24.1905 17.9434 23.3494 18.1325 22.2551C18.3562 22.95 18.9422 23.3218 18.9422 23.3218C18.9422 23.3218 18.755 26.7221 16.5298 27.1901C16.4708 26.6054 15.3284 24.3661 14.6758 24.1905Z" fill="#69B2BF"/>
<path d="M14.6758 24.1905C15.9727 24.1905 17.9434 23.3494 18.1325 22.2551C18.3562 22.95 18.9422 23.3218 18.9422 23.3218C18.9422 23.3218 18.4723 26.2221 16.2471 26.6907C16.1881 26.1054 15.3284 24.3661 14.6758 24.1905Z" fill="#A2E0EB"/>
<path d="M18.1334 22.2551C18.0353 22.8218 17.4577 23.3167 16.7461 23.6654C16.8134 24.4104 17.4199 24.9027 18.077 25.4201C18.7591 24.4552 18.9431 23.3218 18.9431 23.3218C18.9431 23.3218 18.3571 22.95 18.1334 22.2551Z" fill="#93D9E6"/>
<path d="M18.9345 25.8144C18.621 28.5172 18.5736 31.6873 16.9805 33.994H29.3489C29.3489 33.994 27.6244 27.8146 26.8339 26.3055C26.1031 24.9111 20.3455 24.3758 18.9621 23.7354C19.0274 24.4521 19.0082 25.1778 18.9345 25.8144Z" fill="#362320"/>
<path d="M26.8359 26.3054C26.2211 25.1329 22.0534 24.5681 19.918 24.0373V26.0945C21.0591 26.4247 22.2015 26.7548 23.3433 27.085C23.6683 27.1786 24.0068 27.2805 24.2498 27.5158C24.4446 27.7036 24.5575 27.9575 24.6607 28.2075C25.4127 30.0308 25.8589 31.9803 25.9749 33.9484C26.191 33.9253 29.3592 34.0228 29.3515 33.9939C29.3515 33.9939 27.6263 27.8145 26.8359 26.3054Z" fill="#0B1112"/>
<path d="M21.0577 29.7622L22.213 29.2993C22.213 29.2993 21.3353 25.2323 20.7244 24.222C19.9564 24.0553 19.3159 23.8989 18.9621 23.7347C19.0274 24.4515 19.0082 25.1772 18.9345 25.8138C18.621 28.5166 18.5736 31.6867 16.9805 33.9933H19.6031C20.375 32.8285 22.045 30.2251 22.045 30.2251L21.0577 29.7622Z" fill="#0B1112"/>
<path d="M12.1697 33.8915C11.4824 30.9682 11.3164 27.8089 10.0579 25.051C9.88292 24.6657 9.81817 24.29 9.82651 23.9329C7.86287 24.4964 3.16951 25.0561 2.51497 26.3056C1.72515 27.8153 0 33.9941 0 33.9941H12.2107C12.1998 33.9575 12.1786 33.9287 12.1697 33.8915Z" fill="#362320"/>
<path d="M10.6307 23.1456C11.0897 24.7932 11.8186 30.5315 13.3784 33.9998C13.4059 33.994 10.4101 33.994 10.4101 33.994C10.4101 33.994 8.48113 31.6945 7.76953 29.834C8.426 29.6148 9.02861 29.2872 9.02861 29.2872L8.09841 29.068C8.09841 29.068 8.75487 24.6631 9.05618 23.979C9.41198 23.897 10.6307 23.1456 10.6307 23.1456Z" fill="#733930"/>
<path d="M18.7212 23.1456C18.2622 24.7932 17.5326 30.5315 15.9728 33.9998C15.9459 33.994 18.9417 33.994 18.9417 33.994C18.9417 33.994 20.8707 31.6945 21.5817 29.834C20.9252 29.6148 20.3232 29.2872 20.3232 29.2872L21.2534 29.068C21.2534 29.068 20.597 24.6631 20.2957 23.979C19.9405 23.897 18.7212 23.1456 18.7212 23.1456Z" fill="#733930"/>
<path d="M15.425 25.2316H15.25V33.9997H15.425V25.2316Z" fill="#69B2BF"/>
<path opacity="0.2" d="M14.0891 25.2316H13.9141V33.9997H14.0891V25.2316Z" fill="white"/>
<path d="M14.7656 28.282C14.9295 28.282 15.0624 28.1491 15.0624 27.9851C15.0624 27.8212 14.9295 27.6883 14.7656 27.6883C14.6016 27.6883 14.4688 27.8212 14.4688 27.9851C14.4688 28.1491 14.6016 28.282 14.7656 28.282Z" fill="#69B2BF"/>
<path d="M14.7656 30.0552C14.9295 30.0552 15.0624 29.9223 15.0624 29.7584C15.0624 29.5945 14.9295 29.4616 14.7656 29.4616C14.6016 29.4616 14.4688 29.5945 14.4688 29.7584C14.4688 29.9223 14.6016 30.0552 14.7656 30.0552Z" fill="#69B2BF"/>
<path d="M15.0624 31.531C15.0624 31.6951 14.9297 31.8278 14.7656 31.8278C14.6015 31.8278 14.4688 31.6951 14.4688 31.531C14.4688 31.3668 14.6015 31.2341 14.7656 31.2341C14.9297 31.2341 15.0624 31.3668 15.0624 31.531Z" fill="#69B2BF"/>
<path d="M14.7656 33.6009C14.9295 33.6009 15.0624 33.468 15.0624 33.3041C15.0624 33.1401 14.9295 33.0073 14.7656 33.0073C14.6016 33.0073 14.4688 33.1401 14.4688 33.3041C14.4688 33.468 14.6016 33.6009 14.7656 33.6009Z" fill="#69B2BF"/>
<path d="M14.9732 27.8441C14.9732 28.0082 14.8399 28.1409 14.6757 28.1409C14.5123 28.1409 14.3789 28.0082 14.3789 27.8441C14.3789 27.68 14.5123 27.5473 14.6757 27.5473C14.8399 27.5473 14.9732 27.68 14.9732 27.8441Z" fill="#EBAF38"/>
<path d="M14.9732 29.6172C14.9732 29.7807 14.8399 29.9141 14.6757 29.9141C14.5123 29.9141 14.3789 29.7807 14.3789 29.6172C14.3789 29.4531 14.5123 29.3204 14.6757 29.3204C14.8399 29.3204 14.9732 29.4531 14.9732 29.6172Z" fill="#EBAF38"/>
<path d="M14.9732 31.39C14.9732 31.5541 14.8399 31.6868 14.6757 31.6868C14.5123 31.6868 14.3789 31.5541 14.3789 31.39C14.3789 31.2265 14.5123 31.0931 14.6757 31.0931C14.8399 31.0931 14.9732 31.2265 14.9732 31.39Z" fill="#EBAF38"/>
<path d="M14.9732 33.1625C14.9732 33.3266 14.8399 33.4593 14.6757 33.4593C14.5123 33.4593 14.3789 33.3266 14.3789 33.1625C14.3789 32.9984 14.5123 32.8657 14.6757 32.8657C14.8399 32.8657 14.9732 32.9984 14.9732 33.1625Z" fill="#EBAF38"/>
<path d="M17.2673 24.4732C17.0006 24.4584 15.9697 25.0149 15.7331 25.3066V25.3124C15.6178 25.0559 15.3632 24.8764 15.0645 24.8764H14.6863C14.3875 24.8764 14.133 25.0559 14.0176 25.3124V25.3066C13.7772 25.0149 12.7252 24.4584 12.454 24.4732C12.1822 24.4879 11.8379 26.508 12.0847 26.7606C12.3162 26.999 13.8272 26.3464 14.0003 26.2695C14.1022 26.5535 14.367 26.7606 14.6863 26.7606H15.0645C15.3838 26.7606 15.6492 26.5541 15.7505 26.2695C15.846 26.3125 17.3948 27.0055 17.6288 26.7606C17.8705 26.508 17.5333 24.4886 17.2673 24.4732Z" fill="#69B2BF"/>
<path d="M15.5352 25.0226C15.7711 24.7309 16.8032 24.1751 17.0692 24.1899C17.3353 24.2046 17.6725 26.224 17.4315 26.4766C17.1898 26.7298 15.5352 25.9785 15.5352 25.9785V25.0226Z" fill="#C27400"/>
<path d="M17.0564 24.1912C17.266 24.195 17.1955 25.1227 17.166 25.2342C17.1243 25.397 17.032 25.5522 16.8903 25.6445C16.6672 25.7894 16.3755 25.7522 16.1153 25.6977C16.0614 25.6868 15.9915 25.6496 16.0101 25.5977C16.0159 25.581 16.03 25.5688 16.0409 25.5554C16.0704 25.5176 16.0755 25.4624 16.0531 25.4201C16.0076 25.3361 15.8306 25.3406 15.7479 25.2752C15.7152 25.2496 15.5178 25.0412 15.5588 24.9957C15.5505 25.0047 15.5383 25.0143 15.5312 25.0226V25.9785C15.5312 25.9785 17.1859 26.7298 17.4276 26.4766C17.6693 26.224 17.3314 24.2046 17.0564 24.1912Z" fill="#C27400"/>
<path d="M13.8188 25.0227C13.5777 24.731 12.5257 24.1752 12.2545 24.1899C11.9827 24.2047 11.6391 26.2241 11.8853 26.4767C12.1314 26.7299 13.8194 25.9785 13.8194 25.9785V25.0227H13.8188Z" fill="#C27400"/>
<path d="M13.6879 24.9034C13.5174 25.1304 13.4431 25.1323 13.1462 25.1688C13.1091 25.1733 13.0629 25.1874 13.061 25.2246C13.0597 25.2509 13.0841 25.2708 13.1071 25.283C13.1706 25.3137 13.2437 25.3137 13.3123 25.3259C13.3815 25.3394 13.4552 25.3721 13.479 25.4388C13.4969 25.4888 13.4815 25.5445 13.4578 25.5926C13.3296 25.8561 13.0116 25.9606 12.7231 26.0157C12.5154 26.0555 12.3032 26.083 12.0923 26.0632C12.0705 26.0612 12.0468 26.0574 12.0308 26.042C12.0154 26.0266 12.0128 26.0016 12.0115 25.9798C11.9968 25.7195 12.1077 25.4554 12.3038 25.2836C12.343 25.2503 12.3878 25.2015 12.3635 25.1573C12.3564 25.1451 12.3462 25.1362 12.3353 25.1272C12.1058 24.9329 12.0513 24.5489 12.1551 24.2758C11.9089 24.6637 11.6685 26.2536 11.8852 26.4767C12.1314 26.7299 13.8194 25.9785 13.8194 25.9785V25.0227C13.7809 24.9765 13.7373 24.9349 13.6879 24.9034Z" fill="#C27400"/>
<path d="M14.8668 26.4766H14.4892C14.0828 26.4766 13.7539 26.1471 13.7539 25.7413V25.3278C13.7539 24.9213 14.0834 24.5925 14.4892 24.5925H14.8668C15.2733 24.5925 15.6021 24.922 15.6021 25.3278V25.7413C15.6021 26.1477 15.2726 26.4766 14.8668 26.4766Z" fill="#C27400"/>
<path d="M14.8668 26.4765H14.4892C14.0828 26.4765 13.7539 26.147 13.7539 25.7412V25.3277C13.7539 25.2277 13.7565 25.0822 13.8623 25.0373C13.7949 25.2732 13.8231 25.529 13.9802 25.7252C14.1328 25.9175 14.3899 26.0214 14.6328 25.9906C14.7328 25.9771 14.8309 25.9432 14.9188 25.8938C15.1496 25.7643 15.3188 25.5149 15.3214 25.2502C15.3239 24.9848 15.1418 24.72 14.8835 24.6559C15.2906 24.6322 15.6021 24.8995 15.6021 25.3277V25.7412C15.6021 26.1477 15.2726 26.4765 14.8668 26.4765Z" fill="#C27400"/>
</svg>
