<svg width="70" height="58" viewBox="0 0 70 58" fill="none" xmlns="http://www.w3.org/2000/svg">
<path d="M44.1031 12.9209C46.6163 12.9209 48.9234 11.2956 49.7651 8.92482C50.6164 6.52796 49.8248 3.78546 47.8348 2.20527C45.8418 0.623081 42.9789 0.483121 40.8424 1.86616C38.7124 3.24519 37.6619 5.88786 38.2674 8.35395C38.8659 10.7849 40.9933 12.635 43.4835 12.8893C43.6882 12.9104 43.8954 12.9209 44.1031 12.9209Z" fill="#5528A9"/>
<path d="M62.5953 27.8795C63.8424 27.8795 65.0338 27.262 65.7562 26.2462C66.4881 25.2158 66.6692 23.8553 66.2332 22.6694C65.8078 21.5151 64.8331 20.6107 63.6497 20.2761C62.4348 19.933 61.0964 20.2154 60.1257 21.0215C59.1595 21.8222 58.6353 23.0642 58.7346 24.3153C58.8324 25.5499 59.5393 26.6861 60.5992 27.3247C61.1992 27.6874 61.895 27.8795 62.5953 27.8795Z" fill="#5528A9"/>
<path d="M69.8674 40.2622C69.8643 39.8202 69.8764 39.3783 69.8518 38.9368C69.8282 38.4863 69.7841 38.0369 69.747 37.5879C69.6697 36.6985 69.457 35.8261 69.2463 34.9618C69.1415 34.5293 68.9809 34.0924 68.8189 33.6786C68.6564 33.2662 68.4683 32.8594 68.2515 32.4731C67.8251 31.7061 67.3386 30.9932 66.723 30.3622C66.3147 29.9433 65.8617 29.5821 65.3867 29.2435C65.0144 28.9781 64.6282 28.7328 64.2098 28.5462C63.7287 28.331 63.2095 28.1976 62.6803 28.1941C62.0336 28.1905 61.4046 28.3817 60.8412 28.6927C60.3632 28.9561 59.9583 29.3077 59.54 29.6528C59.107 30.0095 58.6591 30.3496 58.1996 30.6722C57.3618 31.2606 56.4182 31.9022 55.3893 32.0793C55.4069 30.2608 55.3542 28.4298 55.0798 26.6299C54.9444 25.747 54.8004 24.8526 54.5722 23.9887C54.3469 23.137 54.0805 22.3037 53.759 21.4815C53.1575 19.939 52.3694 18.4892 51.3145 17.208C50.3679 16.0592 49.2402 15.0544 47.9539 14.2974C46.5639 13.4783 44.9802 12.9781 43.3538 13.1472C41.7802 13.3112 40.4047 14.1334 39.1681 15.072C37.4475 16.3783 36.0092 18.0598 35.015 19.9791C33.9756 17.372 32.1932 14.9892 29.7477 13.556C28.4043 12.7689 26.8437 12.2226 25.276 12.2006C23.6251 12.1775 21.9792 12.7479 20.5711 13.5856C17.7864 15.2415 15.9153 18.0553 14.9441 21.0998C13.9232 24.2958 13.7978 27.7305 14.0702 31.0524C14.0968 31.379 14.1269 31.7051 14.1625 32.0301C13.3619 31.836 12.6134 31.4001 11.9247 30.9611C11.1918 30.4936 10.4599 29.9935 9.81326 29.411C9.27449 28.9244 8.61884 28.5668 7.89396 28.4619C7.32961 28.3797 6.75723 28.4519 6.21545 28.6189C3.26126 29.5279 1.31186 32.3301 0.58196 35.2216C0.363243 36.0915 0.187166 36.9628 0.105899 37.8573C0.0206194 38.7632 0.00707567 39.6622 5.26151e-05 40.5717C-0.00195397 40.9168 0.0527253 41.2253 0.285991 41.4937C0.493673 41.7305 0.793656 41.88 1.10919 41.89C1.75581 41.9126 2.23689 41.4004 2.29859 40.7839C2.37685 40.0113 2.44558 39.2393 2.58453 38.4748C2.7285 37.6847 2.93318 36.9227 3.19604 36.1647C3.1218 37.5437 3.04805 38.9243 2.97281 40.3028C2.96277 40.4789 2.95324 40.6539 2.94321 40.83C2.92465 41.1932 2.95124 41.5604 3.02247 41.9171C3.06059 42.1117 3.11277 42.3034 3.17748 42.4905C3.21059 42.5843 3.2462 42.6771 3.28533 42.7679C3.31543 42.8396 3.40874 42.963 3.41175 43.0388C3.42429 43.2826 3.43733 43.5264 3.44987 43.7717C3.52612 45.2375 3.60187 46.7038 3.67712 48.1706C3.76842 49.9259 3.85822 51.6816 3.95052 53.4364C3.98112 54.0424 4.01322 54.6479 4.04483 55.2539C4.05937 55.5222 4.04984 55.8057 4.09599 56.071C4.20485 56.6926 4.76118 57.1777 5.39325 57.1917C6.03285 57.2048 6.61225 56.7317 6.73666 56.1057C6.79936 55.7841 6.78381 55.435 6.79936 55.1094C6.87662 53.4996 6.95438 51.8908 7.03263 50.2815C7.10136 48.8734 7.16858 47.4648 7.2373 46.0562C7.24132 45.9644 7.24633 45.8731 7.25085 45.7808C7.30352 46.7996 7.35569 47.819 7.40837 48.8378C7.49866 50.586 7.58946 52.3353 7.67976 54.0845C7.70835 54.6198 7.73644 55.156 7.76303 55.6908C7.76805 55.7801 7.77005 55.8689 7.77758 55.9577C7.83025 56.5867 8.34695 57.115 8.97501 57.1842C9.6121 57.2534 10.2271 56.829 10.4052 56.2155C10.4473 56.0715 10.4554 55.9271 10.4609 55.7786C10.4825 55.3577 10.503 54.9378 10.5226 54.5169C10.6018 52.8851 10.6801 51.2542 10.7599 49.6224C10.8391 47.9725 10.9194 46.3225 11.0002 44.6721C11.0207 44.2287 11.0433 43.7847 11.0639 43.3413C11.0699 43.2339 11.0669 43.1772 11.117 43.0834C11.4807 42.3932 11.6503 41.6096 11.6087 40.831C11.5399 39.5543 11.4697 38.2761 11.401 36.9994C11.3453 35.9711 11.2891 34.9427 11.2334 33.9143C12.0165 34.2269 12.8708 34.5113 13.7131 34.5916C14.1415 34.6322 14.5879 34.6402 15.0103 34.5519C15.2075 34.5108 15.4071 34.4551 15.5922 34.3763C15.6394 34.3563 15.6855 34.3337 15.7312 34.3101C15.7693 34.3151 15.8084 34.3207 15.8466 34.3232C15.9348 34.3312 16.0251 34.3317 16.1129 34.3257C16.7274 34.2825 17.2908 33.9033 17.5727 33.3565C17.7207 33.0691 17.7744 32.757 17.7618 32.435C17.7443 32.0106 17.7317 31.5852 17.7287 31.1608C17.7132 29.4838 17.812 27.8008 18.11 26.1493C18.409 24.4889 18.9016 22.8365 19.7268 21.3581C19.6104 22.3273 19.4925 23.2955 19.3751 24.2647C19.1624 26.0274 18.9487 27.7897 18.7355 29.552C18.6563 30.1951 18.5785 30.8377 18.5013 31.4798C18.4476 31.9228 18.3874 32.3622 18.3829 32.8092C18.3728 33.5998 18.4978 34.3909 18.7531 35.1398C18.8805 35.5151 19.041 35.8783 19.2332 36.2244C19.3255 36.3915 19.4243 36.5555 19.5312 36.7145C19.5567 36.7531 19.5577 36.7396 19.5577 36.7622C19.5673 36.9653 19.5763 37.169 19.5873 37.3722C19.643 38.5465 19.6982 39.7194 19.7539 40.8927C19.8372 42.6359 19.9204 44.3787 20.0017 46.1214C20.087 47.8917 20.1702 49.661 20.2535 51.4308C20.3142 52.6859 20.3729 53.9405 20.4326 55.1952C20.4452 55.46 20.4582 55.7244 20.4697 55.9893C20.5119 56.8727 21.0958 57.6587 21.9511 57.9166C23.2022 58.2948 24.525 57.3372 24.5837 56.0374C24.5938 55.8187 24.6023 55.6 24.6123 55.3823C24.674 54.0193 24.7347 52.6563 24.7964 51.2939C24.8767 49.4869 24.958 47.68 25.0392 45.8731C25.0979 44.5713 25.1556 43.2705 25.2148 41.9688C25.2218 41.8017 25.2293 41.6332 25.2374 41.4656C25.2725 42.2437 25.3101 43.0222 25.3452 43.8003C25.4245 45.5019 25.5038 47.2039 25.5835 48.9055C25.6618 50.5815 25.7395 52.2565 25.8178 53.9325C25.8434 54.4633 25.8679 54.995 25.892 55.5268C25.9066 55.8343 25.9011 56.1568 25.9813 56.4568C26.3194 57.7295 27.8123 58.3917 28.9676 57.74C29.6318 57.3658 29.9975 56.6876 30.0316 55.9396C30.0707 55.0853 30.1099 54.2305 30.149 53.3767C30.2222 51.7674 30.296 50.1586 30.3692 48.5499C30.4515 46.7264 30.5348 44.9029 30.619 43.0794C30.6868 41.5815 30.755 40.0831 30.8237 38.5847C30.8533 37.9521 30.8804 37.3185 30.911 36.6844C30.912 36.6578 30.9707 36.5921 30.9862 36.5675C31.0344 36.4903 31.0821 36.412 31.1282 36.3318C31.228 36.1582 31.3213 35.9811 31.4056 35.8C31.5692 35.4489 31.7036 35.0837 31.8064 34.7109C32.0161 33.9409 32.0869 33.1358 32.0211 32.3417C31.9915 32.0036 31.9439 31.667 31.9018 31.3303C31.7136 29.7622 31.5225 28.1946 31.3334 26.6274C31.1493 25.1119 30.9662 23.597 30.7816 22.082C30.759 21.8838 30.7344 21.6857 30.7108 21.488C31.4819 22.9137 31.9589 24.4814 32.2424 26.0716C32.5303 27.6859 32.6412 29.3323 32.6041 30.9702C32.594 31.4166 32.6041 31.8621 32.6081 32.3081C32.5975 32.6005 32.6041 32.8789 32.7069 33.1588C32.9246 33.7488 33.4533 34.2028 34.0764 34.3076C34.7004 34.412 35.3501 34.1601 35.7579 33.6796C36.231 33.1197 36.1979 32.3858 36.2535 31.6945C36.3634 30.3687 36.5776 29.0453 36.8816 27.7511C37.1816 26.4749 37.5598 25.2032 38.1151 24.0133C38.1151 24.3514 38.1151 24.6891 38.1151 25.0272C38.1151 25.1606 38.1357 25.3071 38.1081 25.4385C38.0504 25.7169 37.9927 25.9938 37.9346 26.2712C37.6531 27.6232 37.3732 28.9751 37.0908 30.3271C36.7216 32.1049 36.3509 33.8822 35.9806 35.6601C35.6817 37.0993 35.3832 38.539 35.0832 39.9787C35.0089 40.3324 34.9352 40.6871 34.861 41.0417C34.8434 41.13 34.8228 41.2178 34.8148 41.3086C34.7626 41.9858 35.3165 42.5597 35.9877 42.5597C36.7166 42.5597 38.1412 42.5597 38.1412 42.5597L38.4909 42.5632C38.4909 42.5632 38.5009 42.79 38.5054 42.8918C38.5661 44.1625 38.6288 45.4331 38.6895 46.7043C38.7768 48.5037 38.8641 50.3031 38.9504 52.103C39.0081 53.2994 39.0668 54.4974 39.125 55.6948C39.129 55.767 39.132 55.8403 39.1355 55.9125C39.1621 56.4819 39.441 57.0217 39.8724 57.3919C40.3565 57.8067 41.0157 57.9848 41.6407 57.8504C42.2502 57.7194 42.78 57.3076 43.0654 56.7553C43.2731 56.352 43.2916 55.9361 43.3152 55.4997C43.3418 54.9699 43.3699 54.4407 43.3965 53.912C43.4848 52.2114 43.5731 50.5123 43.6609 48.8122C43.7441 47.1994 43.8274 45.5871 43.9107 43.9748C43.9332 43.5555 43.9548 43.1356 43.9754 42.7152C43.9804 42.636 43.9508 42.5602 44.0371 42.5602C44.2262 42.5602 44.2192 42.5271 44.2272 42.6841C44.2799 43.7973 44.3341 44.9104 44.3887 46.0231C44.475 47.817 44.5613 49.6103 44.6496 51.4052C44.7133 52.7491 44.779 54.0941 44.8447 55.439C44.8633 55.8308 44.8653 56.213 45.0173 56.5837C45.5199 57.8092 47.068 58.2833 48.1506 57.5037C48.6603 57.138 48.9923 56.5506 49.0244 55.9215C49.0285 55.8608 49.0315 55.8001 49.0345 55.74C49.0571 55.305 49.0786 54.8701 49.1022 54.4362C49.1865 52.8108 49.2698 51.185 49.355 49.5602C49.4413 47.8701 49.5296 46.1806 49.6174 44.4895C49.644 43.9738 49.6701 43.4576 49.6967 42.941C49.7027 42.8281 49.7142 42.5657 49.7142 42.5657C49.7142 42.5657 51.4369 42.5607 52.1462 42.5607C52.8721 42.5607 53.4279 41.8845 53.2895 41.1721C53.2804 41.1215 53.2689 41.0718 53.2588 41.0217C53.0542 40.0184 52.8505 39.0141 52.6443 38.0103C52.2967 36.2986 51.9475 34.587 51.5989 32.8749C51.2628 31.225 50.9267 29.5746 50.5916 27.9242C50.424 27.105 50.2575 26.2858 50.0899 25.4661C50.0674 25.3512 50.0869 25.2183 50.0869 25.1004C50.0869 24.8245 50.0869 24.5481 50.0869 24.2732C50.4291 25.0843 50.6924 25.9176 50.9207 26.7674C51.1559 27.6443 51.3516 28.5276 51.483 29.4266C51.6124 30.3195 51.7163 31.2135 51.7905 32.1134C51.8181 32.4395 51.8307 32.7595 51.9661 33.0635C52.0905 33.347 52.2902 33.5943 52.5395 33.7789C52.8806 34.0337 53.3095 34.1636 53.7359 34.132C53.8583 34.1225 53.9486 34.2153 54.0565 34.272C54.1799 34.3372 54.3093 34.3929 54.4417 34.438C54.7201 34.5339 55.0051 34.587 55.297 34.6011C56.4814 34.6558 57.6583 34.2705 58.7333 33.8045L58.7313 36.4085L57.6683 40.9298C57.3046 42.4724 56.9424 44.015 56.5787 45.558C56.4935 45.9222 56.3013 46.3913 56.4995 46.7439C56.7317 47.1583 57.1637 47.1227 57.5675 47.1227C57.9829 47.1227 58.3972 47.1227 58.8136 47.1227C58.8281 47.1227 58.9881 47.1172 58.9881 47.1277C58.9892 47.1613 58.9912 47.1954 58.9942 47.2305C59.0022 47.4207 59.0117 47.6103 59.0208 47.8004C59.0559 48.5243 59.0915 49.2476 59.1256 49.971C59.2069 51.649 59.2881 53.3275 59.3684 55.006C59.387 55.3647 59.3664 55.752 59.4371 56.1062C59.5615 56.7237 60.1299 57.1967 60.763 57.1937C61.4016 57.1907 61.9699 56.7031 62.0778 56.0746C62.1385 55.7224 62.1239 55.3467 62.1425 54.9925C62.1826 54.22 62.2238 53.4469 62.2629 52.6749C62.3472 51.045 62.4315 49.4152 62.5157 47.7848C62.5258 47.5982 62.5353 47.4111 62.5453 47.2235C62.5473 47.1914 62.5483 47.1583 62.5493 47.1262C62.5493 47.1347 62.6828 47.0911 62.6863 47.1397C62.7048 47.5446 62.7254 47.9494 62.744 48.3547C62.8272 50.0713 62.9115 51.7885 62.9928 53.5046C63.0259 54.1643 63.0575 54.8234 63.0896 55.4821C63.0956 55.6201 63.1022 55.7575 63.1092 55.8945C63.1297 56.354 63.3836 56.7753 63.7804 57.0091C64.3387 57.3387 65.0601 57.2043 65.4744 56.7111C65.6851 56.4608 65.7779 56.1613 65.794 55.8393C65.8196 55.3522 65.8452 54.8641 65.8702 54.3765C65.9615 52.6408 66.0493 50.9051 66.1406 49.1699C66.1702 48.5744 66.2013 47.979 66.2329 47.3835C66.2329 47.37 66.2435 47.1227 66.2465 47.1227C66.5766 47.1227 66.9066 47.1227 67.2392 47.1227C67.5753 47.1227 68.0308 47.1944 68.3228 46.9922C68.6057 46.7961 68.6785 46.4685 68.6087 46.1515C68.5129 45.7085 68.4156 45.2661 68.3198 44.8236C67.9516 43.1416 67.5839 41.4591 67.2167 39.7771C66.9708 38.6544 66.4516 36.3869 66.4516 36.3869L66.4526 35.5251C67.1835 37.1585 67.3872 38.9619 67.5628 40.7217C67.5934 41.0141 67.6626 41.2785 67.8663 41.5032C68.075 41.7355 68.375 41.88 68.6875 41.8895C69.3236 41.9106 69.8729 41.3688 69.8699 40.7337C69.8704 40.5757 69.8674 40.4182 69.8674 40.2622Z" fill="#5528A9"/>
<path d="M7.2791 27.8795C8.52519 27.8795 9.7166 27.262 10.44 26.2462C11.1719 25.2158 11.352 23.8553 10.917 22.6694C10.4916 21.5151 9.51594 20.6107 8.33256 20.2761C7.11757 19.933 5.78119 20.2154 4.80849 21.0215C3.84232 21.8222 3.3181 23.0642 3.41843 24.3153C3.51626 25.5499 4.22207 26.6861 5.28205 27.3247C5.88152 27.6874 6.5773 27.8795 7.2791 27.8795Z" fill="#5528A9"/>
<path d="M25.2124 11.871C27.7307 11.871 30.0327 10.2221 30.8414 7.83525C31.6575 5.42383 30.8052 2.69287 28.7691 1.16937C26.7284 -0.356639 23.8524 -0.392755 21.7746 1.08259C19.7033 2.55592 18.7843 5.26381 19.5388 7.69378C20.2842 10.0962 22.5426 11.8038 25.0569 11.868C25.1085 11.8695 25.1612 11.871 25.2124 11.871Z" fill="#5528A9"/>
</svg>
