<svg width="119" height="58" viewBox="0 0 119 58" fill="none" xmlns="http://www.w3.org/2000/svg">
<path d="M11.0022 18C12.9897 18 14.8822 16.9881 15.9901 15.3384C17.1123 13.6663 17.3151 11.4798 16.519 9.62884C15.7419 7.82665 14.0847 6.48467 12.157 6.10918C10.1838 5.72488 8.10962 6.37011 6.70534 7.80766C5.30106 9.24454 4.70572 11.3375 5.13901 13.299C5.5628 15.215 6.9447 16.8397 8.76598 17.5696C9.4766 17.8543 10.2381 18 11.0022 18Z" fill="#5528A9"/>
<path d="M17.9342 32.4657C17.9235 32.3795 18.0645 32.1016 17.9342 32.4657V32.4657Z" fill="#5528A9"/>
<path d="M22.1095 30.613C22.2044 29.7291 22.2258 28.8432 22.2391 27.9553C22.2131 27.1616 22.2024 26.3592 22.0761 25.5749C21.9231 24.3536 21.6345 23.131 21.1715 21.9872L20.9884 21.5328C20.7747 21.0832 20.5482 20.6469 20.305 20.212C19.7906 19.3749 19.1946 18.6052 18.4897 17.9171C18.2593 17.7046 18.0341 17.4928 17.7969 17.3078C17.5678 17.1133 17.3272 16.947 17.0954 16.7806C16.7974 16.5862 16.4981 16.3924 16.1861 16.2227C14.6294 17.9251 12.269 18.7395 9.99347 18.3493C8.49826 18.0948 7.11196 17.3271 6.0931 16.2034C6.00959 16.2481 5.9254 16.2949 5.84189 16.3443C5.61139 16.4726 5.38156 16.6256 5.14438 16.7806C4.91389 16.947 4.67204 17.1133 4.44221 17.3078C4.20503 17.4922 3.98123 17.7046 3.74939 17.9171C3.04521 18.6039 2.44859 19.3735 1.93415 20.212C1.69029 20.6456 1.46515 21.0839 1.24935 21.5328L1.06563 21.9872C0.603298 23.1316 0.314664 24.3536 0.162336 25.5755C0.036733 26.3606 0.026056 27.1636 0 27.956C0.0106897 28.6548 0.0347286 29.3483 0.0788235 30.0465C0.111561 30.5496 0.177042 31.0493 0.232495 31.5504C0.336051 32.4663 1.16316 33.1672 2.08381 33.1118C3.00445 33.0563 3.74137 32.2653 3.73335 31.344V31.2591C3.72934 30.8422 3.71264 30.4213 3.72801 30.0037C3.75072 29.3871 3.78746 28.7757 3.83958 28.1611C3.92309 27.5337 3.9899 26.889 4.15893 26.2764C4.35535 25.4132 4.64331 24.5493 5.06222 23.7663L5.21254 23.4784L5.38022 23.2085C5.48511 23.0241 5.6154 22.8623 5.72897 22.6933C5.73899 22.6813 5.74835 22.6699 5.7577 22.6566L4.39144 32.2051C4.16429 33.862 4.54043 35.5697 5.47109 36.962L6.37571 56.0491C6.42782 57.0532 7.23555 57.9017 8.23838 57.9919C9.22784 58.0814 10.1645 57.4213 10.409 56.4566C10.4431 56.3216 10.4632 56.1827 10.4705 56.0431L11.1199 41.5365L11.7967 56.0471C11.8475 57.0526 12.6539 57.9004 13.658 57.9919C14.6455 58.0814 15.5822 57.422 15.8287 56.4586C15.8628 56.3236 15.8828 56.1847 15.8895 56.0444L16.758 37.0535C17.3673 36.1743 17.7695 35.1495 17.9125 34.0571C18.1904 34.452 18.7436 34.5609 19.1512 34.3003C19.3316 34.1841 19.4705 34.0023 19.5307 33.7945C19.5654 33.6816 19.5654 33.5707 19.5727 33.4538C19.5808 33.3021 19.6155 33.1518 19.6756 33.0115C20.3865 33.2634 21.1929 33.0242 21.6526 32.4242C22.0087 32.6654 22.2438 33.073 22.2438 33.5333V56.4653C22.2438 56.9623 22.658 57.3759 23.1551 57.3759C23.6508 57.3759 24.0657 56.9623 24.0657 56.4653V33.5333C24.0664 32.2172 23.256 31.0874 22.1095 30.613ZM18.5091 31.4775C18.2626 31.7675 18.0642 32.1016 17.9339 32.4657C17.9232 32.3788 17.9145 32.292 17.9025 32.2044L16.5496 22.7521C16.6538 22.9004 16.764 23.0441 16.8576 23.2078L17.0246 23.4777L17.1756 23.7663C17.5945 24.5487 17.8831 25.4132 18.0789 26.277C18.2506 26.8897 18.3147 27.5331 18.3989 28.1604C18.451 28.7751 18.4884 29.3864 18.5111 30.0031C18.5258 30.4206 18.5098 30.8415 18.5051 31.2584V31.3513C18.5038 31.3947 18.5064 31.4348 18.5091 31.4775Z" fill="#5528A9"/>
<path d="M68.8062 12.9209C71.3194 12.9209 73.6265 11.2956 74.4683 8.92482C75.3196 6.52796 74.528 3.78546 72.5379 2.20527C70.5449 0.623081 67.682 0.483121 65.5455 1.86616C63.4155 3.24519 62.365 5.88786 62.9705 8.35395C63.569 10.7849 65.6965 12.635 68.1866 12.8893C68.3913 12.9104 68.5985 12.9209 68.8062 12.9209Z" fill="#5528A9"/>
<path d="M87.2984 27.8796C88.5455 27.8796 89.7369 27.2621 90.4593 26.2462C91.1912 25.2159 91.3723 23.8554 90.9363 22.6695C90.511 21.5152 89.5363 20.6107 88.3529 20.2761C87.1379 19.933 85.7995 20.2154 84.8288 21.0216C83.8626 21.8222 83.3384 23.0643 83.4377 24.3154C83.5356 25.5499 84.2424 26.6862 85.3024 27.3248C85.9023 27.6875 86.5981 27.8796 87.2984 27.8796Z" fill="#5528A9"/>
<path d="M94.5705 40.2622C94.5675 39.8203 94.5795 39.3783 94.5549 38.9369C94.5313 38.4864 94.4872 38.0369 94.4501 37.5879C94.3728 36.6985 94.1601 35.8262 93.9494 34.9618C93.8446 34.5294 93.6841 34.0925 93.522 33.6786C93.3595 33.2663 93.1714 32.8594 92.9547 32.4732C92.5283 31.7061 92.0417 30.9933 91.4262 30.3622C91.0178 29.9434 90.5648 29.5822 90.0898 29.2436C89.7176 28.9782 89.3313 28.7329 88.9129 28.5463C88.4318 28.3311 87.9126 28.1976 87.3834 28.1941C86.7368 28.1906 86.1077 28.3817 85.5444 28.6928C85.0663 28.9561 84.6615 29.3078 84.2431 29.6529C83.8102 30.0096 83.3622 30.3497 82.9027 30.6722C82.0649 31.2607 81.1213 31.9023 80.0925 32.0794C80.11 30.2609 80.0573 28.4299 79.7829 26.63C79.6475 25.7471 79.5035 24.8526 79.2753 23.9888C79.05 23.137 78.7837 22.3038 78.4621 21.4816C77.8606 19.939 77.0726 18.4893 76.0176 17.2081C75.071 16.0593 73.9433 15.0545 72.6571 14.2975C71.267 13.4783 69.6833 12.9782 68.057 13.1472C66.4833 13.3113 65.1078 14.1335 63.8712 15.072C62.1506 16.3783 60.7124 18.0599 59.7181 19.9792C58.6787 17.3721 56.8963 14.9893 54.4508 13.5561C53.1074 12.769 51.5468 12.2227 49.9791 12.2006C48.3282 12.1776 46.6823 12.7479 45.2742 13.5857C42.4895 15.2416 40.6184 18.0553 39.6472 21.0998C38.6264 24.2958 38.501 27.7306 38.7734 31.0525C38.7999 31.3791 38.83 31.7051 38.8657 32.0302C38.065 31.8361 37.3166 31.4001 36.6278 30.9612C35.8949 30.4937 35.163 29.9935 34.5164 29.4111C33.9776 28.9245 33.322 28.5668 32.5971 28.462C32.0327 28.3797 31.4604 28.452 30.9186 28.619C27.9644 29.528 26.015 32.3302 25.2851 35.2217C25.0664 36.0915 24.8903 36.9629 24.809 37.8573C24.7237 38.7633 24.7102 39.6622 24.7032 40.5717C24.7012 40.9169 24.7559 41.2254 24.9891 41.4938C25.1968 41.7305 25.4968 41.88 25.8123 41.8901C26.4589 41.9126 26.94 41.4005 27.0017 40.7839C27.08 40.0114 27.1487 39.2394 27.2877 38.4749C27.4316 37.6848 27.6363 36.9228 27.8992 36.1648C27.8249 37.5438 27.7512 38.9243 27.6759 40.3029C27.6659 40.4789 27.6564 40.654 27.6463 40.8301C27.6278 41.1933 27.6544 41.5605 27.7256 41.9172C27.7637 42.1118 27.8159 42.3034 27.8806 42.4905C27.9137 42.5843 27.9493 42.6771 27.9885 42.7679C28.0186 42.8397 28.1119 42.9631 28.1149 43.0388C28.1274 43.2826 28.1405 43.5264 28.153 43.7717C28.2292 45.2375 28.305 46.7039 28.3802 48.1707C28.4715 49.9259 28.5613 51.6817 28.6536 53.4365C28.6842 54.0424 28.7163 54.6479 28.748 55.2539C28.7625 55.5223 28.753 55.8057 28.7991 56.0711C28.908 56.6926 29.4643 57.1777 30.0964 57.1918C30.736 57.2048 31.3154 56.7318 31.4398 56.1057C31.5025 55.7842 31.4869 55.435 31.5025 55.1094C31.5797 53.4997 31.6575 51.8909 31.7358 50.2816C31.8045 48.8735 31.8717 47.4649 31.9404 46.0562C31.9444 45.9644 31.9495 45.8731 31.954 45.7808C32.0066 46.7997 32.0588 47.819 32.1115 48.8379C32.2018 50.5861 32.2926 52.3353 32.3829 54.0846C32.4115 54.6198 32.4396 55.1561 32.4662 55.6909C32.4712 55.7801 32.4732 55.8689 32.4807 55.9577C32.5334 56.5868 33.0501 57.115 33.6781 57.1842C34.3152 57.2535 34.9302 56.8291 35.1083 56.2156C35.1505 56.0716 35.1585 55.9271 35.164 55.7786C35.1856 55.3578 35.2061 54.9379 35.2257 54.517C35.305 52.8851 35.3832 51.2543 35.463 49.6224C35.5422 47.9725 35.6225 46.3226 35.7033 44.6722C35.7238 44.2287 35.7464 43.7848 35.767 43.3413C35.773 43.234 35.77 43.1773 35.8202 43.0835C36.1839 42.3932 36.3534 41.6096 36.3118 40.8311C36.2431 39.5544 36.1728 38.2762 36.1041 36.9995C36.0484 35.9711 35.9922 34.9428 35.9365 33.9144C36.7196 34.2269 37.5739 34.5113 38.4162 34.5916C38.8446 34.6322 39.2911 34.6403 39.7134 34.552C39.9106 34.5108 40.1102 34.4552 40.2953 34.3764C40.3425 34.3563 40.3887 34.3338 40.4343 34.3102C40.4724 34.3152 40.5116 34.3207 40.5497 34.3232C40.638 34.3313 40.7283 34.3318 40.8161 34.3257C41.4306 34.2826 41.9939 33.9034 42.2759 33.3566C42.4238 33.0691 42.4775 32.7571 42.465 32.435C42.4474 32.0106 42.4349 31.5852 42.4319 31.1609C42.4163 29.4838 42.5151 27.8008 42.8131 26.1494C43.1121 24.489 43.6047 22.8365 44.4299 21.3582C44.3135 22.3274 44.1956 23.2955 44.0783 24.2647C43.8656 26.0275 43.6519 27.7898 43.4387 29.5521C43.3594 30.1952 43.2816 30.8378 43.2044 31.4799C43.1507 31.9229 43.0905 32.3623 43.086 32.8093C43.076 33.5999 43.2009 34.3909 43.4562 35.1399C43.5836 35.5151 43.7442 35.8783 43.9363 36.2245C44.0286 36.3915 44.1274 36.5556 44.2343 36.7146C44.2599 36.7532 44.2609 36.7397 44.2609 36.7622C44.2704 36.9654 44.2794 37.1691 44.2905 37.3722C44.3461 38.5466 44.4013 39.7194 44.457 40.8928C44.5403 42.636 44.6236 44.3787 44.7048 46.1214C44.7901 47.8918 44.8734 49.6611 44.9566 51.4309C45.0173 52.686 45.076 53.9406 45.1357 55.1952C45.1483 55.4601 45.1613 55.7245 45.1729 55.9893C45.215 56.8727 45.7989 57.6588 46.6542 57.9167C47.9053 58.2949 49.2282 57.3373 49.2869 56.0375C49.2969 55.8188 49.3054 55.6001 49.3155 55.3823C49.3772 54.0194 49.4379 52.6564 49.4996 51.2939C49.5798 49.487 49.6611 47.6801 49.7424 45.8731C49.801 44.5714 49.8587 43.2706 49.9179 41.9688C49.9249 41.8018 49.9325 41.6332 49.9405 41.4657C49.9756 42.2437 50.0132 43.0223 50.0484 43.8003C50.1276 45.5019 50.2069 47.204 50.2866 48.9056C50.3649 50.5816 50.4427 52.2566 50.5209 53.9326C50.5465 54.4633 50.5711 54.9951 50.5952 55.5268C50.6097 55.8343 50.6042 56.1569 50.6844 56.4569C51.0226 57.7295 52.5155 58.3917 53.6707 57.7401C54.3349 57.3658 54.7006 56.6876 54.7347 55.9397C54.7739 55.0854 54.813 54.2306 54.8521 53.3768C54.9254 51.7675 54.9991 50.1587 55.0723 48.5499C55.1546 46.7264 55.2379 44.903 55.3222 43.0795C55.3899 41.5816 55.4581 40.0831 55.5268 38.5847C55.5564 37.9521 55.5835 37.3186 55.6141 36.6845C55.6151 36.6579 55.6738 36.5922 55.6894 36.5676C55.7375 36.4903 55.7852 36.4121 55.8313 36.3318C55.9312 36.1583 56.0245 35.9812 56.1087 35.8001C56.2723 35.4489 56.4067 35.0837 56.5096 34.711C56.7192 33.941 56.79 33.1358 56.7243 32.3417C56.6947 32.0036 56.647 31.667 56.6049 31.3304C56.4168 29.7623 56.2256 28.1946 56.0365 26.6275C55.8524 25.112 55.6693 23.597 55.4847 22.0821C55.4621 21.8839 55.4375 21.6858 55.414 21.4881C56.185 22.9138 56.6621 24.4814 56.9455 26.0716C57.2334 27.6859 57.3443 29.3323 57.3072 30.9702C57.2972 31.4167 57.3072 31.8622 57.3112 32.3081C57.3007 32.6006 57.3072 32.879 57.41 33.1589C57.6277 33.7488 58.1565 34.2028 58.7795 34.3077C59.4036 34.412 60.0532 34.1602 60.461 33.6796C60.9341 33.1198 60.901 32.3859 60.9567 31.6946C61.0665 30.3687 61.2807 29.0454 61.5847 27.7512C61.8847 26.475 62.2629 25.2033 62.8183 24.0134C62.8183 24.3515 62.8183 24.6891 62.8183 25.0272C62.8183 25.1607 62.8388 25.3071 62.8112 25.4386C62.7536 25.717 62.6959 25.9939 62.6377 26.2713C62.3563 27.6232 62.0763 28.9752 61.7939 30.3271C61.4247 32.1049 61.054 33.8823 60.6838 35.6601C60.3848 37.0993 60.0863 38.5391 59.7863 39.9788C59.7121 40.3325 59.6383 40.6871 59.5641 41.0418C59.5465 41.1301 59.526 41.2179 59.5179 41.3087C59.4658 41.9859 60.0196 42.5598 60.6908 42.5598C61.4197 42.5598 62.8444 42.5598 62.8444 42.5598L63.194 42.5633C63.194 42.5633 63.204 42.79 63.2085 42.8918C63.2692 44.1625 63.332 45.4332 63.3927 46.7044C63.4799 48.5038 63.5672 50.3032 63.6535 52.1031C63.7112 53.2995 63.7699 54.4974 63.8281 55.6949C63.8321 55.7671 63.8351 55.8403 63.8386 55.9126C63.8652 56.482 64.1441 57.0217 64.5755 57.3919C65.0596 57.8068 65.7188 57.9849 66.3438 57.8504C66.9533 57.7195 67.4831 57.3077 67.7685 56.7553C67.9762 56.352 67.9948 55.9362 68.0183 55.4997C68.0449 54.97 68.073 54.4408 68.0996 53.912C68.1879 52.2114 68.2762 50.5124 68.364 48.8123C68.4472 47.1995 68.5305 45.5872 68.6138 43.9749C68.6364 43.5555 68.6579 43.1357 68.6785 42.7153C68.6835 42.636 68.6539 42.5603 68.7402 42.5603C68.9293 42.5603 68.9223 42.5271 68.9303 42.6842C68.983 43.7973 69.0372 44.9105 69.0919 46.0231C69.1781 47.817 69.2644 49.6104 69.3527 51.4053C69.4164 52.7492 69.4821 54.0941 69.5479 55.439C69.5664 55.8308 69.5684 56.2131 69.7204 56.5838C70.2231 57.8093 71.7712 58.2834 72.8537 57.5038C73.3634 57.1381 73.6955 56.5507 73.7276 55.9216C73.7316 55.8609 73.7346 55.8002 73.7376 55.74C73.7602 55.3051 73.7818 54.8702 73.8053 54.4362C73.8896 52.8109 73.9729 51.1851 74.0582 49.5602C74.1444 47.8702 74.2327 46.1806 74.3205 44.4896C74.3471 43.9739 74.3732 43.4577 74.3998 42.941C74.4058 42.8281 74.4173 42.5658 74.4173 42.5658C74.4173 42.5658 76.14 42.5608 76.8493 42.5608C77.5752 42.5608 78.131 41.8845 77.9926 41.1722C77.9835 41.1215 77.972 41.0719 77.962 41.0217C77.7573 40.0184 77.5536 39.0141 77.3475 38.0103C76.9998 36.2987 76.6507 34.5871 76.302 32.875C75.9659 31.2251 75.6298 29.5746 75.2947 27.9242C75.1272 27.105 74.9606 26.2858 74.7931 25.4662C74.7705 25.3513 74.7901 25.2183 74.7901 25.1005C74.7901 24.8246 74.7901 24.5481 74.7901 24.2732C75.1322 25.0844 75.3956 25.9176 75.6238 26.7674C75.8591 27.6443 76.0547 28.5277 76.1861 29.4267C76.3156 30.3196 76.4194 31.2135 76.4937 32.1135C76.5212 32.4395 76.5338 32.7596 76.6692 33.0636C76.7936 33.347 76.9933 33.5943 77.2426 33.7789C77.5837 34.0338 78.0126 34.1637 78.439 34.1321C78.5614 34.1226 78.6517 34.2154 78.7596 34.2721C78.883 34.3373 79.0124 34.393 79.1449 34.4381C79.4233 34.5339 79.7082 34.5871 80.0002 34.6011C81.1846 34.6558 82.3614 34.2706 83.4364 33.8045L83.4344 36.4086L82.3714 40.9299C82.0077 42.4725 81.6456 44.015 81.2819 45.5581C81.1966 45.9223 81.0045 46.3913 81.2026 46.744C81.4349 47.1583 81.8668 47.1227 82.2706 47.1227C82.686 47.1227 83.1003 47.1227 83.5167 47.1227C83.5312 47.1227 83.6913 47.1172 83.6913 47.1277C83.6923 47.1614 83.6943 47.1955 83.6973 47.2306C83.7053 47.4207 83.7149 47.6103 83.7239 47.8005C83.759 48.5243 83.7946 49.2477 83.8287 49.9711C83.91 51.6491 83.9913 53.3276 84.0715 55.0061C84.0901 55.3648 84.0695 55.7521 84.1402 56.1062C84.2647 56.7237 84.833 57.1968 85.4661 57.1938C86.1047 57.1908 86.6731 56.7032 86.7809 56.0746C86.8416 55.7225 86.8271 55.3467 86.8456 54.9926C86.8858 54.22 86.9269 53.447 86.966 52.675C87.0503 51.0451 87.1346 49.4153 87.2189 47.7849C87.2289 47.5983 87.2384 47.4112 87.2484 47.2236C87.2505 47.1915 87.2515 47.1584 87.2525 47.1262C87.2525 47.1348 87.3859 47.0911 87.3894 47.1398C87.408 47.5446 87.4285 47.9494 87.4471 48.3548C87.5304 50.0714 87.6147 51.7885 87.6959 53.5047C87.729 54.1643 87.7606 54.8235 87.7927 55.4822C87.7988 55.6201 87.8053 55.7576 87.8123 55.8945C87.8329 56.354 88.0867 56.7754 88.4835 57.0092C89.0418 57.3388 89.7632 57.2043 90.1776 56.7112C90.3883 56.4609 90.4811 56.1614 90.4971 55.8393C90.5227 55.3522 90.5483 54.8641 90.5734 54.3765C90.6647 52.6408 90.7524 50.9051 90.8438 49.1699C90.8734 48.5745 90.9044 47.979 90.9361 47.3836C90.9361 47.37 90.9466 47.1227 90.9496 47.1227C91.2797 47.1227 91.6098 47.1227 91.9424 47.1227C92.2785 47.1227 92.7339 47.1945 93.0259 46.9923C93.3088 46.7962 93.3816 46.4686 93.3119 46.1515C93.216 45.7086 93.1187 45.2661 93.0229 44.8237C92.6547 43.1417 92.287 41.4591 91.9198 39.7771C91.674 38.6544 91.1548 36.387 91.1548 36.387L91.1558 35.5252C91.8867 37.1585 92.0903 38.962 92.2659 40.7217C92.2965 41.0142 92.3657 41.2786 92.5694 41.5033C92.7781 41.7356 93.0781 41.88 93.3906 41.8896C94.0267 41.9106 94.576 41.3688 94.573 40.7338C94.5735 40.5757 94.5705 40.4182 94.5705 40.2622Z" fill="#5528A9"/>
<path d="M31.9822 27.8796C33.2283 27.8796 34.4197 27.2621 35.1431 26.2462C35.875 25.2159 36.0551 23.8554 35.6202 22.6695C35.1948 21.5152 34.2191 20.6107 33.0357 20.2761C31.8207 19.933 30.4843 20.2154 29.5116 21.0216C28.5454 21.8222 28.0212 23.0643 28.1216 24.3154C28.2194 25.5499 28.9252 26.6862 29.9852 27.3248C30.5846 27.6875 31.2804 27.8796 31.9822 27.8796Z" fill="#5528A9"/>
<path d="M49.9155 11.871C52.4338 11.871 54.7358 10.2221 55.5445 7.83525C56.3607 5.42383 55.5084 2.69287 53.4722 1.16937C51.4315 -0.356639 48.5555 -0.392755 46.4777 1.08259C44.4064 2.55592 43.4874 5.26381 44.2419 7.69378C44.9873 10.0962 47.2457 11.8038 49.76 11.868C49.8117 11.8695 49.8643 11.871 49.9155 11.871Z" fill="#5528A9"/>
<path d="M106.264 20.9188C108.071 20.9188 109.793 19.998 110.8 18.497C111.82 16.9756 112.005 14.9861 111.28 13.3019C110.575 11.6621 109.067 10.441 107.313 10.0993C105.52 9.74967 103.632 10.3368 102.355 11.6448C101.079 12.9522 100.537 14.8566 100.931 16.6413C101.317 18.3847 102.573 19.863 104.23 20.5272C104.876 20.7862 105.569 20.9188 106.264 20.9188Z" fill="#5528A9"/>
<path d="M116.415 32.6551C116.501 31.8614 116.516 31.0628 116.529 30.266C116.507 29.5334 116.495 28.7927 116.38 28.0687C116.238 26.9414 115.971 25.8128 115.544 24.757L115.374 24.3376C115.177 23.9226 114.967 23.5199 114.743 23.1184C114.269 22.3457 113.718 21.6353 113.068 21.0001C112.855 20.8039 112.647 20.6085 112.429 20.4376C112.217 20.2582 111.995 20.1046 111.781 19.9511C111.506 19.7716 111.229 19.5927 110.941 19.4361C109.505 21.0075 107.326 21.7592 105.226 21.3991C103.844 21.1641 102.565 20.4555 101.624 19.4182C101.547 19.4595 101.47 19.5027 101.392 19.5483C101.18 19.6667 100.968 19.808 100.749 19.9511C100.536 20.1046 100.314 20.2582 100.102 20.4376C99.8828 20.6078 99.6749 20.8039 99.4609 21.0001C98.8109 21.634 98.2608 22.3457 97.7854 23.1184C97.5609 23.5187 97.3531 23.9232 97.1551 24.3376L96.9843 24.757C96.5575 25.8134 96.2911 26.9414 96.1505 28.0693C96.0339 28.794 96.0241 29.5352 96 30.2666C96.0105 30.9117 96.0333 31.5519 96.0746 32.1963C96.1036 32.6607 96.1647 33.122 96.2158 33.5845C96.3108 34.43 97.0755 35.0769 97.926 35.0258C98.7752 34.9746 99.4554 34.2444 99.448 33.394L99.4468 33.3156C99.4437 32.9308 99.4283 32.5423 99.4424 32.1568C99.464 31.5876 99.4992 31.0233 99.5454 30.456C99.6219 29.8769 99.6842 29.2818 99.8396 28.7163C100.023 27.9195 100.287 27.1221 100.673 26.3993L100.813 26.1335L100.967 25.8844C101.064 25.7142 101.184 25.5649 101.289 25.4089C101.299 25.3978 101.308 25.3873 101.317 25.3749L100.055 34.1889C100.023 34.4331 100.002 34.6878 99.9975 34.9437C99.3209 37.0602 98.7542 39.2119 98.3274 41.3907C97.8384 43.8804 97.5288 46.4113 97.4974 48.9484C97.4918 49.2728 97.4863 49.5787 97.6922 49.8494C97.8736 50.0875 98.1622 50.2299 98.46 50.2299H101.669L101.951 56.199C101.999 57.1259 102.745 57.9091 103.671 57.9924C104.583 58.075 105.449 57.4657 105.674 56.5752C105.706 56.4506 105.724 56.3223 105.731 56.1935L105.997 50.2299H106.676L106.954 56.1971C107.001 57.1253 107.746 57.9079 108.673 57.9924C109.585 58.075 110.449 57.4663 110.676 56.577C110.708 56.4525 110.727 56.3242 110.733 56.1947L111.005 50.2299H114.179C114.445 50.2299 114.705 50.1165 114.886 49.9222C115.08 49.7156 115.148 49.4584 115.145 49.1828C115.142 48.5322 115.12 47.8846 115.08 47.2371C115.004 45.9623 114.861 44.6907 114.669 43.4277C114.315 41.107 113.788 38.8154 113.136 36.5607C113.07 36.3294 113 36.1 112.931 35.8694C113.138 36.2857 113.659 36.459 114.072 36.245C114.258 36.1488 114.402 35.9829 114.475 35.7886C114.515 35.6819 114.523 35.574 114.526 35.4623C114.532 35.3125 114.563 35.1633 114.621 35.0245C115.208 35.0547 115.746 34.7655 116.053 34.3005C116.592 34.4331 116.993 34.9184 116.993 35.4969V56.6652C116.993 57.1234 117.376 57.5058 117.834 57.5058C118.293 57.5058 118.676 57.1234 118.676 56.6652V35.4969C118.677 34.1136 117.71 32.9536 116.415 32.6551ZM112.931 34.7951C112.866 35.0523 112.817 35.3446 112.853 35.6091C112.763 35.3113 112.67 35.0208 112.58 34.739C112.57 34.5558 112.552 34.3733 112.526 34.1883L111.278 25.4631C111.373 25.6 111.477 25.7326 111.561 25.8837L111.716 26.1329L111.857 26.3993C112.243 27.1215 112.509 27.9195 112.69 28.7169C112.846 29.2824 112.908 29.8763 112.985 30.4554C113.033 31.0227 113.067 31.587 113.089 32.1562C113.102 32.5417 113.087 32.9302 113.083 33.315V33.4007C113.082 33.6363 113.133 33.8608 113.225 34.0643C113.094 34.2937 112.994 34.5392 112.931 34.7951Z" fill="#5528A9"/>
<path d="M112.854 35.6093C112.763 35.3114 112.849 35.5723 112.854 35.6093V35.6093Z" fill="#5528A9"/>
</svg>
